<?xml version="1.0" standalone="no"?>
<!DOCTYPE svg PUBLIC "-//W3C//DTD SVG 1.1//EN" "http://www.w3.org/Graphics/SVG/1.1/DTD/svg11.dtd" >
<svg>
<metadata>
Created by FontForge 20090622 at Wed Mar  5 05:10:49 2014
 By ffonts
1.2, Copyright Copr. Castcraft Software, Inc. 1990-1991.
</metadata>
<defs>
<font id="OPTICenturyExpandedTwo" horiz-adv-x="548" >
  <font-face 
    font-family="OPTI Century Expanded Two"
    font-weight="400"
    font-stretch="normal"
    units-per-em="1000"
    panose-1="2 0 6 4 7 0 0 2 0 3"
    ascent="800"
    descent="-200"
    x-height="530"
    cap-height="810"
    bbox="-104.748 -295 1091 1045"
    underline-thickness="62"
    underline-position="-50"
    stemh="37"
    stemv="78"
    unicode-range="U+0020-U+221E"
  />
<missing-glyph horiz-adv-x="280" 
 />
    <glyph glyph-name=".notdef" horiz-adv-x="280" 
 />
    <glyph glyph-name="space" unicode=" " horiz-adv-x="207" 
 />
    <glyph glyph-name="exclam" unicode="!" horiz-adv-x="205" 
d="M125 263h-39l-32 381c-9 104 -29 179 51 179c81 0 65 -74 56 -173zM107 128c38 0 70 -32 70 -70s-32 -69 -70 -69s-69 31 -69 69s31 70 69 70z" />
    <glyph glyph-name="quotedbl" unicode="&#x22;" horiz-adv-x="234" 
d="M84 481h-22l-18 207c-3 27 -22 131 29 131c49 0 31 -104 29 -134zM182 481h-22l-18 207c-2 27 -21 131 29 131c49 0 31 -104 29 -134z" />
    <glyph glyph-name="numbersign" unicode="#" horiz-adv-x="787" 
d="M437 724l-77 -226h171l78 226h60l-77 -226h166l-18 -49h-165l-62 -178h167l-17 -50h-166l-76 -222h-61l76 222h-172l-76 -222h-62l78 222h-164l17 50h163l62 178h-163l16 49h164l78 226h60zM282 271h171l62 178h-173z" />
    <glyph glyph-name="dollar" unicode="$" horiz-adv-x="507" 
d="M228 875h49v-93c76 -2 188 -46 188 -161c0 -47 -23 -75 -65 -75c-24 0 -62 23 -62 65c0 69 60 69 60 69c16 15 -45 75 -133 75c-75 0 -164 -63 -164 -159c0 -78 65 -117 161 -162l50 -23c107 -51 168 -100 168 -212c0 -125 -106 -201 -203 -210v-136h-49v134
c-89 6 -192 61 -192 168c0 47 33 79 71 81c31 0 67 -22 67 -68c0 -30 -14 -47 -38 -58c-17 -8 -34 -3 -41 -18c-7 -16 64 -77 147 -77c92 0 180 61 180 159c0 78 -57 107 -138 144l-52 24c-93 44 -186 86 -186 211c0 139 84 214 182 229v93z" />
    <glyph glyph-name="percent" unicode="%" horiz-adv-x="885" 
d="M657 780h53l-467 -780h-54zM186 786c112 0 147 -136 147 -256c0 -116 -39 -258 -148 -258c-93 0 -147 142 -147 258c0 118 54 256 148 256zM186 754c-66 0 -72 -132 -72 -225c0 -92 3 -226 72 -226s69 175 69 227c0 91 1 224 -69 224zM709 503c112 0 148 -136 148 -256
c0 -116 -39 -258 -149 -258c-93 0 -146 142 -146 258c0 118 53 256 147 256zM709 471c-66 0 -71 -132 -71 -225c0 -92 3 -226 71 -226c70 0 70 175 70 227c0 91 1 224 -70 224z" />
    <glyph glyph-name="ampersand" unicode="&#x26;" horiz-adv-x="792" 
d="M306 462c41 -128 118 -249 181 -321c32 50 57 98 71 152c19 68 9 131 -105 131v37h283v-37c-107 0 -108 -59 -133 -125c-33 -86 -52 -129 -91 -194c48 -52 69 -68 118 -68c40 0 81 37 100 135h35c-11 -97 -45 -183 -176 -183c-42 0 -86 11 -138 52
c-61 -41 -120 -52 -178 -52c-160 0 -235 121 -235 232c0 74 44 146 124 202l54 37c-12 41 -21 113 -21 166c0 131 92 195 186 195c84 0 144 -63 144 -132c0 -112 -104 -164 -184 -208c0 0 -21 -10 -35 -19zM454 691c0 61 -32 98 -76 98c-48 0 -107 -43 -107 -142
c0 -52 12 -106 28 -145c131 65 155 140 155 189zM319 35c36 0 70 12 103 39c-65 78 -149 213 -194 342c-64 -38 -94 -106 -94 -162c0 -96 70 -219 185 -219z" />
    <glyph glyph-name="quotesingle" unicode="'" horiz-adv-x="209" 
d="M51 511l-19 20c42 41 90 99 84 130c-5 34 -28 24 -44 33c-22 11 -34 30 -34 54c0 37 26 71 69 71c38 0 74 -32 74 -85c0 -80 -37 -140 -130 -223z" />
    <glyph glyph-name="parenleft" unicode="(" horiz-adv-x="290" 
d="M234 818l28 -18c-118 -164 -137 -290 -137 -487c0 -200 51 -353 135 -474l-26 -22c-133 152 -196 325 -196 492c0 179 58 339 196 509z" />
    <glyph glyph-name="parenright" unicode=")" horiz-adv-x="291" 
d="M66 818c138 -170 196 -330 196 -509c0 -167 -63 -340 -196 -492l-26 22c84 121 134 274 134 474c0 197 -19 323 -136 487z" />
    <glyph glyph-name="asterisk" unicode="*" horiz-adv-x="333" 
d="M158 708c20 13 -49 111 14 111c62 0 -4 -100 18 -109c25 -10 62 99 99 50c39 -52 -88 -54 -82 -79c7 -30 116 4 95 -56c-20 -55 -88 41 -110 26c-16 -11 41 -108 -18 -108c-64 0 12 102 -15 110s-66 -100 -103 -48c-31 45 89 49 88 74s-126 0 -104 56
c20 50 98 -41 118 -27z" />
    <glyph glyph-name="plus" unicode="+" horiz-adv-x="865" 
d="M404 801h67v-369h366v-64h-366v-368h-67v368h-366v64h366v369z" />
    <glyph glyph-name="comma" unicode="," horiz-adv-x="209" 
d="M51 -171l-19 20c42 40 90 98 84 130c-5 33 -28 23 -44 32c-22 11 -34 30 -34 55c0 37 26 70 69 70c38 0 74 -31 74 -85c0 -79 -37 -139 -130 -222z" />
    <glyph glyph-name="hyphen" unicode="-" horiz-adv-x="309" 
d="M38 342h243v-75h-243v75z" />
    <glyph glyph-name="period" unicode="." horiz-adv-x="201" 
d="M106 139c38 0 68 -33 68 -71s-31 -68 -69 -68s-69 32 -69 70c0 39 32 69 70 69z" />
    <glyph glyph-name="slash" unicode="/" horiz-adv-x="457" 
d="M393 814h42l-357 -814h-42z" />
    <glyph glyph-name="zero" unicode="0" 
d="M281 782c140 0 223 -178 223 -397s-85 -395 -224 -395c-135 0 -226 174 -226 397c0 216 91 395 227 395zM281 748c-101 0 -121 -162 -121 -363c0 -205 21 -362 121 -362c109 0 117 156 117 362c0 201 -7 363 -117 363z" />
    <glyph glyph-name="one" unicode="1" 
d="M321 772v-596c0 -120 18 -138 148 -138v-38h-383v38c130 0 148 18 148 138v359c0 104 -18 120 -159 120v34c97 0 148 -11 216 83h30z" />
    <glyph glyph-name="two" unicode="2" 
d="M119 86h191c66 0 145 -7 179 151h33l-26 -237h-458v37l22 42c52 98 87 140 172 225l34 34c71 68 150 154 150 243c0 85 -31 164 -132 164c-57 0 -135 -35 -159 -107c-6 -19 -3 -26 27 -26c45 0 68 -34 68 -66c0 -49 -37 -71 -70 -71c-36 0 -80 27 -82 90
c-5 175 159 218 221 218c166 0 223 -114 223 -201c0 -127 -113 -198 -170 -243l-46 -36c-64 -51 -145 -150 -177 -217z" />
    <glyph glyph-name="three" unicode="3" 
d="M339 407c72 -22 163 -75 163 -202c0 -113 -99 -216 -256 -216c-121 0 -192 69 -192 166c0 56 32 91 76 91c30 0 70 -22 70 -75c0 -40 -38 -67 -79 -67c-33 0 31 -79 125 -79c73 0 148 52 148 175c0 137 -53 184 -146 184c-21 0 -77 -18 -77 20c0 32 57 18 77 18
c64 0 133 35 133 159c0 104 -39 166 -125 166c-55 0 -111 -23 -128 -68c-7 -17 -6 -28 6 -26c23 5 73 -12 73 -64c0 -43 -37 -64 -63 -64c-41 0 -77 37 -77 85c0 127 112 173 206 173c45 0 209 -27 209 -182c0 -91 -56 -161 -143 -194z" />
    <glyph glyph-name="four" unicode="4" 
d="M343 792h36v-554h112v-47h-113v-59c0 -78 12 -94 107 -94v-38h-304v38c95 0 111 17 111 96v57h-272v51zM64 238h228v388z" />
    <glyph glyph-name="five" unicode="5" 
d="M469 795c-36 -62 -145 -127 -229 -127c-38 0 -64 2 -115 14l-8 -213c47 29 79 35 120 35c110 0 244 -62 244 -252c0 -175 -128 -263 -251 -263c-97 0 -189 52 -189 170c0 60 41 88 78 88c44 0 69 -38 69 -73c0 -43 -40 -73 -78 -73c-31 0 41 -76 111 -76
c94 0 162 69 162 220c0 146 -84 223 -147 223c-50 0 -100 -14 -122 -69c0 0 -11 -58 -38 -50c-38 11 -3 63 5 92c4 134 11 343 11 343c68 -22 121 -31 183 -31c90 0 115 14 181 49c15 8 19 4 13 -7z" />
    <glyph glyph-name="six" unicode="6" 
d="M145 369c37 59 91 90 154 90c75 0 192 -70 192 -221c0 -119 -78 -249 -210 -249c-156 0 -237 163 -237 408c0 128 48 232 96 291c56 69 125 95 178 95c46 0 145 -28 145 -123c0 -59 -39 -78 -69 -78c-29 0 -66 27 -66 67c0 38 29 59 42 64c27 8 9 47 -61 38
c-177 -23 -164 -257 -164 -382zM152 236c0 -115 43 -211 127 -211c91 0 109 86 109 208c0 127 -46 186 -113 186c-62 0 -123 -66 -123 -183z" />
    <glyph glyph-name="seven" unicode="7" 
d="M79 783h425v-46l-106 -222c-56 -117 -77 -228 -77 -348c0 -88 27 -178 -59 -178c-91 0 -74 174 -2 324l183 384h-158c-156 0 -179 -50 -206 -212h-35z" />
    <glyph glyph-name="eight" unicode="8" 
d="M346 418c70 -50 154 -98 154 -228c0 -95 -70 -201 -233 -201c-137 0 -226 78 -226 193c0 88 59 144 149 196c-41 36 -126 92 -126 219c0 90 79 186 216 186c107 0 199 -68 199 -168c0 -87 -57 -147 -133 -197zM408 619c0 73 -60 128 -129 128c-99 0 -145 -75 -145 -144
c0 -77 98 -133 176 -166c77 57 98 129 98 182zM116 188c0 -75 41 -163 152 -163c115 0 166 72 166 137c0 84 -104 151 -209 198c-58 -46 -109 -104 -109 -172z" />
    <glyph glyph-name="nine" unicode="9" 
d="M397 413c-37 -60 -91 -90 -153 -90c-75 0 -193 70 -193 221c0 119 79 249 211 249c157 0 237 -162 237 -408c0 -128 -47 -232 -95 -291c-56 -69 -127 -95 -179 -95c-53 0 -146 29 -146 124c0 59 40 77 70 77c29 0 66 -27 66 -67c0 -38 -29 -59 -43 -64
c-27 -9 -9 -47 62 -38c177 23 163 256 163 382zM390 546c0 115 -42 211 -126 211c-92 0 -110 -86 -110 -208c0 -127 46 -187 113 -187c63 0 123 66 123 184z" />
    <glyph glyph-name="colon" unicode=":" horiz-adv-x="205" 
d="M109 128c38 0 68 -33 68 -71s-32 -68 -70 -68s-69 32 -69 70s32 69 71 69zM109 538c38 0 68 -32 68 -70s-32 -69 -70 -69s-69 33 -69 71s32 68 71 68z" />
    <glyph glyph-name="semicolon" unicode=";" horiz-adv-x="209" 
d="M109 538c38 0 68 -32 68 -70s-32 -69 -70 -69s-69 33 -69 71s32 68 71 68zM51 -171l-19 20c42 40 90 98 84 130c-5 33 -28 23 -44 32c-22 11 -34 30 -34 55c0 37 26 70 69 70c38 0 74 -31 74 -85c0 -79 -37 -139 -130 -222z" />
    <glyph glyph-name="less" unicode="&#x3c;" horiz-adv-x="550" 
d="M522 479l-391 -161l391 -160v-80l-484 205v69l484 206v-79z" />
    <glyph glyph-name="equal" unicode="=" horiz-adv-x="867" 
d="M38 279h801v-68h-801v68zM38 412h801v-67h-801v67z" />
    <glyph glyph-name="greater" unicode="&#x3e;" horiz-adv-x="551" 
d="M523 283l-485 -206v80l388 161l-388 160v79l485 -205v-69z" />
    <glyph glyph-name="question" unicode="?" horiz-adv-x="422" 
d="M180 243c0 90 -4 136 46 226l14 25c40 70 62 117 62 168c0 64 -44 121 -104 121c-49 0 -98 -27 -98 -62c0 -13 5 -12 24 -13c16 -1 46 -18 46 -55c0 -52 -36 -68 -63 -68c-39 0 -69 37 -69 81c0 73 58 153 175 153c105 0 181 -70 181 -168c0 -65 -36 -103 -94 -168
l-16 -20c-66 -85 -65 -144 -65 -220h-39zM202 128c38 0 69 -33 69 -71s-32 -68 -70 -68s-69 32 -69 70s32 69 70 69z" />
    <glyph glyph-name="at" unicode="@" horiz-adv-x="878" 
d="M516 157c-38 -54 -99 -85 -160 -85c-54 0 -122 47 -122 143c0 182 123 279 227 279c47 0 87 -25 103 -92l21 78h76l-51 -194c-21 -77 -50 -156 37 -156c72 0 152 88 152 227c0 203 -197 287 -346 287c-178 0 -361 -133 -361 -389c0 -224 181 -346 340 -346
c106 0 203 19 331 97l22 -34c-117 -76 -238 -106 -354 -106c-206 0 -393 147 -393 390s175 427 432 427c171 0 380 -111 380 -322c0 -183 -103 -289 -227 -289c-38 0 -94 23 -107 85zM317 211c0 -52 26 -82 57 -88c51 -11 107 39 141 132c39 111 13 186 -52 186
c-78 0 -146 -113 -146 -230z" />
    <glyph glyph-name="A" unicode="A" horiz-adv-x="839" 
d="M173 172l230 651h28l245 -680c34 -97 49 -105 135 -105v-38h-346v38c108 0 128 48 86 159l-22 60h-283l-32 -93c-37 -104 33 -126 108 -126v-38h-284v38c93 0 107 55 135 134zM261 299h254l-129 355z" />
    <glyph glyph-name="B" unicode="B" horiz-adv-x="715" 
d="M414 810c87 0 243 -40 243 -201c0 -106 -111 -183 -174 -192c93 -11 205 -77 205 -218c0 -151 -151 -199 -282 -199h-368v38c93 0 116 20 116 110v512c0 89 -23 112 -116 112v38h376zM253 150c0 -90 15 -112 94 -112h39c133 0 187 58 187 169c0 152 -104 187 -204 187
h-116v-244zM253 432h111c107 0 181 41 181 170c0 141 -72 170 -165 170h-44c-85 0 -83 -21 -83 -112v-228z" />
    <glyph glyph-name="C" unicode="C" horiz-adv-x="676" 
d="M569 791h40l15 -275h-38c-7 99 -88 267 -230 267s-194 -130 -194 -381c0 -236 52 -377 195 -377c151 0 239 152 252 275h41c-12 -133 -101 -311 -292 -311c-201 0 -320 179 -320 413c0 240 120 417 318 417c58 0 106 -19 160 -54c29 -19 30 -10 53 26z" />
    <glyph glyph-name="D" unicode="D" horiz-adv-x="771" 
d="M38 0v38c93 0 116 22 116 112v510c0 89 -23 112 -116 112v38h320c187 0 386 -108 386 -395c0 -298 -157 -415 -356 -415h-350zM376 38c146 0 244 126 244 377c0 220 -86 357 -248 357c-99 0 -119 -5 -119 -101v-532c0 -85 30 -101 123 -101z" />
    <glyph glyph-name="E" unicode="E" horiz-adv-x="727" 
d="M154 150v510c0 91 -23 112 -116 112v38h619l21 -290h-43c-18 127 -66 252 -210 252h-63c-98 0 -109 -33 -109 -113v-208h40c97 0 133 14 133 172h43v-387h-43c0 161 -37 172 -137 172h-36v-257c0 -81 11 -113 109 -113h74c160 0 195 149 211 280h42l-21 -318h-630v38
c93 0 116 21 116 112z" />
    <glyph glyph-name="F" unicode="F" horiz-adv-x="699" 
d="M253 150c-1 -90 23 -112 116 -112v-38h-331v38c93 0 116 22 116 112v510c0 89 -23 112 -116 112v38h162h468l21 -290h-42c-18 127 -66 252 -211 252h-74c-98 0 -109 -33 -109 -113v-208h40c97 0 133 14 133 172h43v-387h-43c0 161 -37 172 -137 172h-36v-258z" />
    <glyph glyph-name="G" unicode="G" horiz-adv-x="748" 
d="M38 402c0 250 119 417 318 417c58 0 101 -14 160 -54c29 -20 44 -8 53 45h38l17 -294h-38c-8 100 -87 267 -229 267s-195 -101 -195 -381c0 -254 53 -377 195 -377c130 0 162 91 162 173v41c0 81 -32 91 -124 91v37h325v-39c-70 0 -103 -7 -103 -85v-243h-33
c-17 49 -29 65 -43 65c-22 0 -61 -76 -181 -76c-224 0 -322 172 -322 413z" />
    <glyph glyph-name="H" unicode="H" horiz-adv-x="830" 
d="M253 150c0 -90 23 -112 116 -112v-38h-331v38c93 0 116 22 116 112v510c0 89 -23 112 -116 112v38h331v-38c-93 0 -116 -21 -116 -112v-219h334v219c0 89 -23 112 -116 112v38h331v-38c-93 0 -116 -21 -116 -112v-510c0 -90 23 -112 116 -112v-38h-331v38
c93 0 116 22 116 112v255h-334v-255z" />
    <glyph glyph-name="I" unicode="I" horiz-adv-x="397" 
d="M154 150v510c0 89 -23 112 -116 112v38h331v-38c-93 0 -116 -21 -116 -112v-510c0 -90 23 -112 116 -112v-38h-331v38c93 0 116 22 116 112z" />
    <glyph glyph-name="J" unicode="J" 
d="M404 209c0 -102 -33 -220 -200 -220c-109 0 -175 68 -175 154c0 44 29 87 78 92c23 2 75 -12 75 -67c0 -36 -27 -65 -76 -65c-38 0 8 -78 98 -78c105 0 101 135 101 198v437c0 89 -23 112 -116 112v38h331v-38c-93 0 -116 -21 -116 -112v-451z" />
    <glyph glyph-name="K" unicode="K" horiz-adv-x="829" 
d="M253 359l272 329c44 60 -8 84 -63 84v38h302v-38c-103 0 -149 -30 -225 -123l-126 -153l232 -365c49 -76 73 -93 158 -93v-38h-343v38c142 0 52 114 33 143l-147 233l-93 -112v-152c0 -90 23 -112 116 -112v-38h-331v38c93 0 116 22 116 112v510c0 89 -23 112 -116 112
v38h331v-38c-93 0 -116 -21 -116 -112v-301z" />
    <glyph glyph-name="L" unicode="L" horiz-adv-x="705" 
d="M154 659c0 89 -23 112 -116 112v38h331v-38c-93 0 -116 -22 -116 -112v-509c0 -81 11 -113 109 -113h74c145 0 193 157 211 280h42l-21 -318h-630v38c93 0 116 21 116 112v510z" />
    <glyph glyph-name="M" unicode="M" horiz-adv-x="914" 
d="M672 698l-222 -709h-26l-228 708v-525c0 -85 13 -134 114 -134v-38h-272v38c98 0 116 49 116 134v480c0 64 -4 120 -116 120v38h226l202 -619l197 619h223v-38c-93 0 -116 -21 -116 -112v-510c0 -90 23 -112 116 -112v-38h-330v38c93 0 116 22 116 112v548z" />
    <glyph glyph-name="N" unicode="N" horiz-adv-x="832" 
d="M649 186v452c0 85 -18 134 -117 134v38h272v-38c-100 0 -114 -49 -114 -134v-664h-24l-470 654v-456c0 -85 13 -134 114 -134v-38h-272v38c98 0 116 49 116 134v517c-41 62 -49 83 -109 83v38h155z" />
    <glyph glyph-name="O" unicode="O" horiz-adv-x="704" 
d="M362 819c197 0 325 -199 325 -416c0 -207 -128 -414 -323 -414c-212 0 -326 209 -326 413c0 218 117 417 324 417zM362 783c-180 0 -200 -172 -200 -381c0 -194 19 -377 200 -377c172 0 201 181 201 380c0 205 -29 378 -201 378z" />
    <glyph glyph-name="P" unicode="P" horiz-adv-x="670" 
d="M334 394c112 0 193 28 193 180c0 156 -54 198 -190 198c-63 0 -84 -20 -84 -94v-284h81zM154 660c0 89 -23 112 -116 112v38h339c124 0 265 -59 265 -235c0 -179 -180 -218 -272 -218h-117v-207c0 -90 23 -112 116 -112v-38h-331v38c93 0 116 22 116 112v510z" />
    <glyph glyph-name="Q" unicode="Q" horiz-adv-x="716" 
d="M365 200c-60 0 -98 -47 -92 -106c4 -46 51 -69 92 -69c30 0 63 3 103 28c-15 72 -44 147 -103 147zM630 -66c33 0 58 68 62 113h41c0 -62 -13 -206 -128 -206c-87 0 -121 102 -131 172c-33 -15 -65 -24 -109 -24c-212 0 -326 209 -326 413c0 220 118 417 325 417
c196 0 324 -196 324 -416c0 -128 -57 -259 -140 -338c27 -90 41 -131 82 -131zM520 110c35 71 44 185 44 295c0 205 -36 378 -200 378c-177 0 -201 -172 -201 -381c0 -130 11 -262 72 -330c-10 99 49 161 130 161c77 0 109 -45 155 -123z" />
    <glyph glyph-name="R" unicode="R" horiz-adv-x="738" 
d="M545 604c0 97 -65 168 -173 168h-50c-66 0 -69 -44 -69 -83v-254h114c141 0 178 85 178 169zM154 660c0 89 -22 112 -115 112v38h330c106 0 285 -20 285 -198c0 -111 -92 -194 -202 -205c83 -45 112 -134 124 -191c13 -65 28 -141 74 -141c42 0 51 72 51 132h38
c3 -111 -25 -218 -127 -218c-94 0 -127 105 -131 206c-4 113 -32 200 -151 200h-77v-245c0 -90 23 -112 116 -112v-38h-331v38c93 0 116 22 116 112v510z" />
    <glyph glyph-name="S" unicode="S" horiz-adv-x="578" 
d="M492 810h33v-297h-37c0 106 -56 270 -218 270c-82 0 -158 -45 -158 -138c0 -86 78 -120 155 -148l72 -26c123 -45 214 -91 214 -245c0 -133 -90 -237 -242 -237c-121 0 -176 64 -207 64c-13 0 -20 -16 -35 -53h-31v333h40c7 -95 56 -308 235 -308c127 0 172 94 172 170
c0 100 -90 131 -162 155l-71 25c-110 38 -203 84 -203 223c0 126 81 221 224 221c104 0 157 -61 180 -61c12 0 21 21 39 52z" />
    <glyph glyph-name="T" unicode="T" horiz-adv-x="711" 
d="M56 810h607l24 -314h-43c-15 161 -82 276 -199 276c-24 0 -37 -17 -37 -40v-582c0 -90 46 -112 139 -112v-38h-365v38c93 0 128 22 128 112l1 582c0 24 -12 40 -37 40c-116 0 -183 -115 -199 -276h-43z" />
    <glyph glyph-name="U" unicode="U" horiz-adv-x="821" 
d="M631 660c0 89 -24 112 -116 112v38h279v-38c-93 0 -116 -21 -116 -112l1 -399c0 -136 -34 -272 -258 -272c-219 0 -267 141 -267 273v398c0 89 -23 112 -116 112v38h331v-38c-93 0 -116 -21 -116 -112v-399c0 -111 10 -236 184 -236c168 0 194 128 194 238v397z" />
    <glyph glyph-name="V" unicode="V" horiz-adv-x="823" 
d="M37 772v38h335v-38c-62 0 -137 -7 -107 -91l178 -514l174 492c43 121 -38 113 -116 113v38h294v-38c-79 0 -98 -23 -132 -118l-239 -665h-21l-239 682c-29 85 -42 101 -127 101z" />
    <glyph glyph-name="W" unicode="W" horiz-adv-x="1111" 
d="M39 810h320v-38c-56 0 -124 -5 -87 -132l128 -446l136 448l-28 72c-24 59 -48 58 -99 58v38h319v-38c-83 0 -124 -25 -93 -132l130 -446l118 390c31 103 50 188 -72 188v38h272v-38c-91 0 -106 -29 -134 -123l-197 -660h-37l-157 557l-168 -557h-37l-191 669
c-27 95 -48 114 -124 114z" />
    <glyph glyph-name="X" unicode="X" horiz-adv-x="820" 
d="M38 772v38h339v-38c-51 0 -129 -19 -86 -86l134 -212l121 190c46 75 -9 108 -92 108v38h291v-38c-71 0 -97 -24 -148 -103l-150 -234l191 -303c56 -89 75 -94 155 -94v-38h-338v38c113 0 81 74 34 148l-99 157l-128 -201c-53 -82 17 -104 90 -104v-38h-298v38
c88 0 108 31 174 134l138 213l-208 334c-32 51 -45 53 -120 53z" />
    <glyph glyph-name="Y" unicode="Y" horiz-adv-x="838" 
d="M383 318l-196 358c-52 92 -87 96 -149 96v38h340v-38c-50 0 -135 -2 -85 -95l162 -297l154 287c44 84 -18 105 -94 105v38h295v-38c-87 0 -103 -19 -155 -112l-174 -327v-183c0 -90 57 -112 150 -112v-38h-387v38c93 0 137 22 139 112v168z" />
    <glyph glyph-name="Z" unicode="Z" horiz-adv-x="629" 
d="M337 772c-221 0 -209 -122 -236 -254h-37l18 292h500v-31l-425 -741h135c240 0 258 168 273 277h37l-21 -315h-543v31l424 741h-125z" />
    <glyph glyph-name="bracketleft" unicode="[" horiz-adv-x="263" 
d="M38 819h197v-45h-129v-898h129v-46h-197v989z" />
    <glyph glyph-name="backslash" unicode="\" horiz-adv-x="460" 
d="M432 0h-43l-351 819h43z" />
    <glyph glyph-name="bracketright" unicode="]" horiz-adv-x="263" 
d="M235 819v-989h-197v46h129v898h-129v45h197z" />
    <glyph glyph-name="asciicircum" unicode="^" horiz-adv-x="426" 
d="M152 987h134l113 -146h-33l-147 93l-146 -93h-34z" />
    <glyph glyph-name="underscore" unicode="_" horiz-adv-x="573" 
d="M551 -110h-594v42h594v-42z" />
    <glyph glyph-name="grave" unicode="`" horiz-adv-x="366" 
d="M339 577l-7 -26l-175 37c-34 7 -141 16 -116 81c26 64 107 3 141 -14z" />
    <glyph glyph-name="a" unicode="a" horiz-adv-x="554" 
d="M496 152h31c0 -59 -6 -161 -97 -161c-46 0 -72 36 -82 92c-36 -58 -88 -92 -178 -92c-72 0 -134 50 -134 130c0 116 136 154 208 177l102 30v70c0 63 -33 110 -112 110c-57 0 -103 -18 -103 -40c0 -19 49 -18 49 -75c0 -29 -23 -54 -60 -54c-27 0 -64 18 -64 70
c0 64 49 129 177 129c180 0 192 -102 192 -176v-210c0 -50 -2 -103 29 -103c29 0 42 43 42 103zM120 119c0 -47 32 -87 82 -87c110 0 144 92 144 189v70l-100 -35c-102 -36 -127 -90 -126 -137z" />
    <glyph glyph-name="b" unicode="b" horiz-adv-x="575" 
d="M119 148v561c0 58 -23 67 -87 67v34l165 16v-383c47 84 105 95 146 95c123 0 204 -133 204 -274c0 -151 -82 -275 -199 -275c-72 0 -130 28 -162 100l-37 -89h-42c13 60 12 85 12 148zM453 263c0 117 -36 245 -113 245c-122 0 -145 -172 -145 -243
c0 -58 23 -240 146 -240c78 0 112 71 112 238z" />
    <glyph glyph-name="c" unicode="c" horiz-adv-x="492" 
d="M282 508c-85 0 -149 -76 -149 -244c0 -105 34 -232 151 -232c84 0 120 34 170 121l28 -11c-39 -102 -105 -153 -198 -153c-131 0 -246 93 -246 277c0 112 76 272 232 272c124 0 171 -75 171 -143c0 -39 -27 -73 -69 -73c-30 0 -68 28 -68 69c0 31 22 66 65 66
c11 0 9 8 2 17c-18 26 -51 34 -89 34z" />
    <glyph glyph-name="d" unicode="d" horiz-adv-x="574" 
d="M132 263c0 -167 34 -242 112 -242c123 0 146 178 146 244c0 76 -23 243 -145 243c-77 0 -113 -128 -113 -245zM466 114c0 -63 13 -78 80 -78v-36l-158 -9v110c-31 -70 -75 -110 -151 -110c-117 0 -199 122 -199 273c0 141 81 274 204 274c41 0 99 -11 146 -95v266
c0 58 -22 67 -86 67v34l164 16v-712z" />
    <glyph glyph-name="e" unicode="e" horiz-adv-x="502" 
d="M323 299c57 0 56 10 56 56c0 108 -59 153 -114 153c-99 0 -132 -105 -132 -209h190zM273 32c88 0 133 41 181 121l28 -11c-45 -98 -113 -151 -209 -151c-131 0 -235 101 -235 275c0 148 84 272 232 272c125 0 204 -123 204 -274h-341c0 -75 22 -232 140 -232z" />
    <glyph glyph-name="f" unicode="f" horiz-adv-x="398" 
d="M149 494h-118v36h118v102c0 96 53 190 165 190c58 0 109 -37 109 -93c0 -33 -23 -67 -61 -67c-35 0 -62 26 -62 61c0 34 32 45 33 54c3 17 -16 16 -28 16c-38 0 -76 -41 -76 -126v-137h141v-36h-143v-380c0 -75 47 -78 142 -78v-36h-330v36c89 0 110 10 110 78v380z" />
    <glyph glyph-name="g" unicode="g" horiz-adv-x="615" 
d="M415 468c45 50 87 75 131 67c23 -5 46 -24 49 -56c3 -38 -29 -56 -50 -56c-25 0 -51 15 -51 56c0 13 -3 20 -19 8c-7 -8 -21 -19 -42 -47c12 -19 23 -55 23 -87c0 -105 -80 -183 -204 -183c-25 0 -80 8 -80 8c-15 0 -31 -14 -32 -30c-1 -22 24 -31 51 -33l84 -8
c73 -6 233 -11 233 -132c0 -78 -57 -145 -257 -145c-77 0 -240 15 -240 116c0 61 85 85 125 98c-34 12 -74 34 -74 66c0 41 32 62 71 87c-64 42 -85 104 -85 164c0 94 80 177 201 177c60 0 113 -19 166 -70zM138 361c0 -72 22 -163 116 -163c88 0 113 88 113 161
c0 69 -29 149 -118 149c-88 0 -111 -81 -111 -147zM86 -56c0 -65 65 -80 167 -80c127 0 194 31 194 85c0 58 -88 78 -187 78c-122 0 -174 -28 -174 -83z" />
    <glyph glyph-name="h" unicode="h" horiz-adv-x="609" 
d="M197 424c28 47 88 114 161 114c95 0 142 -63 142 -190v-234c0 -63 13 -78 81 -78v-36h-240v36c70 0 81 15 81 78v228c0 47 2 145 -82 145c-116 0 -143 -148 -143 -227v-146c0 -63 13 -78 80 -78v-36h-239v36c69 0 81 15 81 78v595c0 58 -23 67 -87 67v34l165 16v-402z
" />
    <glyph glyph-name="i" unicode="i" horiz-adv-x="305" 
d="M119 114v316c0 58 -23 67 -87 67v33l165 9v-425c0 -63 13 -78 80 -78v-36h-239v36c69 0 81 15 81 78zM138 787c38 0 68 -30 68 -68s-29 -68 -67 -68s-70 30 -70 68s31 68 69 68z" />
    <glyph glyph-name="j" unicode="j" horiz-adv-x="305" 
d="M119 430c0 58 -23 67 -87 67v33l165 9v-523c0 -50 -11 -186 -154 -186c-59 0 -106 31 -106 91c0 31 19 61 57 61c26 0 54 -16 54 -59c0 -29 -20 -40 -29 -44c-15 -5 4 -20 28 -20c70 0 72 97 72 158v413zM138 787c38 0 68 -30 68 -68s-29 -68 -67 -68s-70 30 -70 68
s31 68 69 68z" />
    <glyph glyph-name="k" unicode="k" horiz-adv-x="614" 
d="M197 239l168 169c76 76 9 86 -52 86v36h255v-36c-78 0 -106 -41 -155 -91l-75 -77l124 -191c55 -84 58 -99 124 -99v-36h-236v36c40 0 77 4 34 71l-104 159l-83 -83v-69c0 -63 13 -78 80 -78v-36h-239v36c69 0 81 15 81 78v595c0 58 -23 67 -87 67v34l165 16v-587z" />
    <glyph glyph-name="l" unicode="l" horiz-adv-x="305" 
d="M119 114v595c0 58 -23 67 -87 67v34l165 16v-712c0 -63 13 -78 80 -78v-36h-239v36c69 0 81 15 81 78z" />
    <glyph glyph-name="m" unicode="m" horiz-adv-x="912" 
d="M725 331c0 58 -5 156 -90 156c-100 0 -135 -150 -135 -229v-144c0 -63 13 -78 81 -78v-36h-240v36c70 0 81 15 81 78v224c0 49 -3 149 -82 149c-112 0 -143 -151 -143 -227v-146c0 -63 13 -78 80 -78v-36h-239v36c69 0 81 15 81 78v316c0 58 -23 67 -87 67v33l165 9v-120
c33 60 86 119 152 119c97 0 128 -73 145 -122c29 54 79 122 163 122c109 0 146 -92 146 -185v-239c0 -63 14 -78 81 -78v-36h-240v36c70 0 81 15 81 78v217z" />
    <glyph glyph-name="n" unicode="n" horiz-adv-x="609" 
d="M500 359v-245c0 -63 13 -78 81 -78v-36h-240v36c70 0 81 15 81 78v224c0 52 -5 144 -82 144c-105 0 -143 -143 -143 -222v-146c0 -63 13 -78 80 -78v-36h-239v36c69 0 81 15 81 78v316c0 58 -23 67 -87 67v33l165 9v-120c39 70 101 115 156 115c93 0 147 -59 147 -175z
" />
    <glyph glyph-name="o" unicode="o" horiz-adv-x="521" 
d="M267 538c128 0 226 -132 226 -274c0 -151 -99 -273 -225 -273c-139 0 -230 121 -230 273c0 141 93 274 229 274zM267 508c-113 0 -135 -114 -135 -244c0 -120 22 -243 135 -243c105 0 132 126 132 243c0 126 -27 244 -132 244z" />
    <glyph glyph-name="p" unicode="p" horiz-adv-x="575" 
d="M453 266c0 167 -34 237 -112 237c-123 0 -146 -181 -146 -239c0 -70 23 -241 145 -241c77 0 113 126 113 243zM32 530l165 9v-111c33 69 84 110 151 110c117 0 199 -122 199 -273c0 -141 -81 -276 -204 -276c-41 0 -99 13 -146 97v-142c0 -63 17 -78 84 -78v-36h-243v36
c69 0 81 15 81 78v474c0 63 -19 79 -87 79v33z" />
    <glyph glyph-name="q" unicode="q" horiz-adv-x="575" 
d="M132 266c0 -117 36 -245 113 -245c122 0 145 173 145 243c0 58 -23 242 -146 242c-78 0 -112 -73 -112 -240zM388 86c-47 -84 -105 -97 -146 -97c-123 0 -204 135 -204 276c0 151 82 273 199 273c72 0 121 -35 166 -98l34 90h38c-7 -36 -9 -56 -9 -118v-468
c0 -63 14 -78 81 -78v-36h-245v36c69 0 86 15 86 78v142z" />
    <glyph glyph-name="r" unicode="r" horiz-adv-x="488" 
d="M352 538c56 0 108 -32 108 -89c0 -50 -39 -70 -62 -70c-30 0 -62 25 -62 65c0 47 48 55 24 67c-52 27 -163 -90 -163 -235v-162c0 -70 30 -78 103 -78v-36h-262v36c69 0 81 15 81 78v316c0 58 -23 67 -87 67v33l165 9v-133c38 78 98 132 155 132z" />
    <glyph glyph-name="s" unicode="s" horiz-adv-x="444" 
d="M346 530h30v-184c-5 0 -30 1 -37 -1c-8 71 -45 163 -143 163c-65 0 -105 -37 -105 -92c0 -70 91 -86 128 -97l27 -8c71 -20 170 -58 170 -161c0 -97 -63 -159 -171 -159c-96 0 -128 45 -145 45c-15 0 -18 -11 -32 -36h-30v208h35c8 -86 55 -187 172 -187
c63 0 117 35 117 100c0 48 -47 71 -129 98l-28 9c-80 26 -169 53 -169 156c0 99 70 154 159 154c85 0 101 -41 127 -41c12 0 16 11 24 33z" />
    <glyph glyph-name="t" unicode="t" horiz-adv-x="430" 
d="M162 738h35v-208h167v-36h-167v-334c0 -49 -2 -121 69 -121c72 0 104 108 104 159h32c0 -95 -36 -209 -159 -209s-124 115 -124 165v340h-107v36c94 0 150 65 150 208z" />
    <glyph glyph-name="u" unicode="u" horiz-adv-x="626" 
d="M512 103c0 -58 23 -67 86 -67v-34l-167 -12v125c-33 -76 -88 -126 -171 -126c-150 0 -141 149 -141 183v258c0 58 -23 67 -87 67v33l165 9v-376c0 -48 -3 -127 87 -127c111 0 150 143 150 255v139c0 58 -22 67 -86 67v33l164 9v-436z" />
    <glyph glyph-name="v" unicode="v" horiz-adv-x="606" 
d="M38 530h236v-36c-51 0 -82 -14 -54 -86l112 -288l108 279c28 74 -19 95 -78 95v36h216v-36c-61 0 -74 -28 -101 -99l-157 -404h-28l-158 408c-29 76 -30 95 -96 95v36z" />
    <glyph glyph-name="w" unicode="w" horiz-adv-x="848" 
d="M38 530h233v-36c-45 0 -82 -15 -57 -83l100 -286l101 261l-30 79c-9 25 -30 31 -63 29v36h228v-36c-50 0 -86 0 -59 -76l104 -293l99 278c25 74 -3 91 -68 91v36h205v-36c-65 0 -75 -31 -103 -108l-144 -395h-29l-122 340l-131 -340h-29l-147 414c-25 72 -30 89 -88 89
v36z" />
    <glyph glyph-name="x" unicode="x" horiz-adv-x="626" 
d="M45 530h238v-36c-49 0 -87 -10 -41 -70l77 -103l77 104c44 59 -2 69 -44 69v36h221v-36c-64 0 -85 -7 -129 -66l-103 -137l118 -155c62 -81 70 -100 139 -100v-36h-251v36c40 0 89 5 38 71l-92 119l-87 -117c-54 -73 20 -73 57 -73v-36h-225v36c59 0 87 27 120 70
l113 151l-103 137c-70 91 -68 100 -123 100v36z" />
    <glyph glyph-name="y" unicode="y" horiz-adv-x="604" 
d="M35 530h232v-36c-68 0 -84 -10 -53 -89l103 -275l116 277c35 82 -22 87 -84 87v36h224v-36c-64 0 -70 -29 -98 -94l-166 -394c-42 -99 -79 -176 -174 -176c-66 0 -103 42 -103 91c0 28 23 60 60 63c28 3 59 -16 59 -52c0 -39 -41 -52 -50 -52s-7 -19 35 -19
c45 0 77 33 104 94l30 61l-150 400c-24 64 -24 78 -85 78v36z" />
    <glyph glyph-name="z" unicode="z" horiz-adv-x="480" 
d="M38 0v32l315 462h-93c-73 0 -154 -19 -166 -179h-36l8 215h386v-32l-319 -462h113c73 0 161 38 173 198h36l-15 -234h-402z" />
    <glyph glyph-name="braceleft" unicode="{" horiz-adv-x="459" 
d="M275 538c0 -145 -94 -187 -209 -207c115 -20 209 -61 209 -207v-78c0 -127 31 -155 156 -175v-28c-150 4 -226 52 -226 215v78c0 106 -52 155 -167 172v47c115 16 167 66 167 171v78c0 163 76 211 226 215v-28c-125 -20 -156 -48 -156 -175v-78z" />
    <glyph glyph-name="bar" unicode="|" horiz-adv-x="107" 
d="M79 -132h-41v951h41v-951z" />
    <glyph glyph-name="braceright" unicode="}" horiz-adv-x="459" 
d="M194 538v78c0 127 -32 155 -156 175v28c150 -4 226 -52 226 -215v-78c0 -105 51 -155 167 -171v-47c-116 -17 -167 -66 -167 -172v-78c0 -163 -76 -211 -226 -215v28c124 20 156 48 156 175v78c0 146 93 187 209 207c-116 20 -209 62 -209 207z" />
    <glyph glyph-name="asciitilde" unicode="~" horiz-adv-x="423" 
d="M357 998h40c0 -66 -26 -133 -96 -133c-61 0 -137 65 -173 65c-21 0 -52 -24 -52 -66h-40c0 71 31 134 99 134c55 0 119 -68 174 -68c30 0 48 39 48 68z" />
    <glyph glyph-name="Adieresis" unicode="&#xc4;" horiz-adv-x="839" 
d="M173 172l230 651h28l245 -680c34 -97 49 -105 135 -105v-38h-346v38c108 0 128 48 86 159l-22 60h-283l-32 -93c-37 -104 33 -126 108 -126v-38h-284v38c93 0 107 55 135 134zM261 299h254l-129 355zM333 970c29 0 53 -26 53 -55s-25 -53 -54 -53s-53 26 -53 55
s25 53 54 53zM502 970c29 0 53 -26 53 -55s-25 -53 -54 -53s-54 26 -54 55s26 53 55 53z" />
    <glyph glyph-name="Aring" unicode="&#xc5;" horiz-adv-x="839" 
d="M173 172l230 651h28l245 -680c34 -97 49 -105 135 -105v-38h-346v38c108 0 128 48 86 159l-22 60h-283l-32 -93c-37 -104 33 -126 108 -126v-38h-284v38c93 0 107 55 135 134zM261 299h254l-129 355zM416 1045c50 0 92 -42 92 -92s-40 -91 -91 -91c-50 0 -93 41 -93 91
s42 92 92 92zM416 1010c-31 0 -57 -26 -57 -57s26 -56 57 -56s57 25 57 56s-26 57 -57 57z" />
    <glyph glyph-name="Ccedilla" unicode="&#xc7;" horiz-adv-x="676" 
d="M374 -11l-16 -45c63 0 107 -33 107 -77c0 -46 -33 -90 -120 -90c-58 0 -97 12 -126 24l13 32c87 -34 149 -32 149 26c0 37 -43 44 -78 44l30 87c-186 13 -295 188 -295 412c0 250 120 417 318 417c58 0 99 -19 160 -54c29 -17 32 -5 53 26h40l15 -275h-38
c-7 99 -88 267 -230 267s-194 -130 -194 -381c0 -236 52 -377 195 -377c151 0 239 152 252 275h41c-12 -130 -96 -301 -276 -311z" />
    <glyph glyph-name="Eacute" unicode="&#xc9;" horiz-adv-x="727" 
d="M226 889l157 79c34 16 115 77 140 13c26 -65 -81 -74 -115 -81l-175 -36zM154 150v510c0 91 -23 112 -116 112v38h619l21 -290h-43c-18 127 -66 252 -210 252h-63c-98 0 -109 -33 -109 -113v-208h40c97 0 133 14 133 172h43v-387h-43c0 161 -37 172 -137 172h-36v-257
c0 -81 11 -113 109 -113h74c160 0 195 149 211 280h42l-21 -318h-630v38c93 0 116 21 116 112z" />
    <glyph glyph-name="Ntilde" unicode="&#xd1;" horiz-adv-x="832" 
d="M649 186v452c0 85 -18 134 -117 134v38h272v-38c-100 0 -114 -49 -114 -134v-664h-24l-470 654v-456c0 -85 13 -134 114 -134v-38h-272v38c98 0 116 49 116 134v517c-42 60 -57 83 -109 83v38h155zM568 994h41c0 -66 -26 -133 -97 -133c-60 0 -136 65 -173 65
c-20 0 -52 -23 -52 -66h-40c0 72 32 134 100 134c55 0 118 -68 173 -68c30 0 48 39 48 68z" />
    <glyph glyph-name="Odieresis" unicode="&#xd6;" horiz-adv-x="704" 
d="M362 819c197 0 325 -199 325 -416c0 -207 -128 -414 -323 -414c-212 0 -326 209 -326 413c0 218 117 417 324 417zM362 783c-180 0 -200 -172 -200 -381c0 -194 19 -377 200 -377c172 0 201 181 201 380c0 205 -29 378 -201 378zM281 970c29 0 52 -26 52 -55
s-24 -53 -53 -53s-54 26 -54 55s26 53 55 53zM450 970c29 0 52 -26 52 -55s-24 -53 -53 -53c-30 0 -54 26 -54 55s26 53 55 53z" />
    <glyph glyph-name="Udieresis" unicode="&#xdc;" horiz-adv-x="822" 
d="M631 660c0 89 -24 112 -116 112v38h279v-38c-93 0 -116 -21 -116 -112l1 -399c0 -147 -31 -272 -258 -272c-236 0 -267 122 -267 273v398c0 89 -23 112 -116 112v38h331v-38c-93 0 -116 -21 -116 -112v-399c0 -117 10 -223 184 -223c169 0 194 102 194 225v397zM359 970
c29 0 53 -26 53 -55s-25 -53 -54 -53s-54 26 -54 55s26 53 55 53zM528 970c29 0 53 -26 53 -55s-25 -53 -54 -53s-54 26 -54 55s26 53 55 53z" />
    <glyph glyph-name="aacute" unicode="&#xe1;" horiz-adv-x="554" 
d="M497 152h30c0 -59 -16 -161 -97 -161c-46 0 -72 36 -82 92c-52 -66 -101 -92 -178 -92c-72 0 -134 50 -134 130c0 116 136 154 208 177l102 30v70c0 63 -33 110 -112 110c-57 0 -103 -18 -103 -40c0 -19 49 -18 49 -75c0 -29 -23 -54 -60 -54c-27 0 -64 18 -64 70
c0 64 49 129 177 129c180 0 192 -102 192 -176v-210c0 -50 -2 -103 29 -103c29 0 43 43 43 103zM120 119c0 -47 32 -87 82 -87c110 0 144 92 144 189v70l-100 -35c-102 -36 -127 -90 -126 -137zM139 601l156 78c35 17 116 77 141 13c26 -64 -81 -73 -115 -80l-176 -37z" />
    <glyph glyph-name="agrave" unicode="&#xe0;" horiz-adv-x="554" 
d="M497 152h30c0 -59 -16 -161 -97 -161c-46 0 -72 36 -82 92c-52 -66 -101 -92 -178 -92c-72 0 -134 50 -134 130c0 116 136 154 208 177l102 30v70c0 63 -33 110 -112 110c-57 0 -103 -18 -103 -40c0 -19 49 -18 49 -75c0 -29 -23 -54 -60 -54c-27 0 -64 18 -64 70
c0 64 49 129 177 129c180 0 192 -102 192 -176v-210c0 -50 -2 -103 29 -103c29 0 43 43 43 103zM120 119c0 -47 32 -87 82 -87c110 0 144 92 144 189v70l-100 -35c-102 -36 -127 -90 -126 -137zM339 600l-7 -26l-175 37c-34 6 -141 15 -116 80c26 64 107 4 141 -13z" />
    <glyph glyph-name="acircumflex" unicode="&#xe2;" horiz-adv-x="554" 
d="M497 152h30c0 -59 -16 -161 -97 -161c-46 0 -72 36 -82 92c-52 -66 -101 -92 -178 -92c-72 0 -134 50 -134 130c0 116 136 154 208 177l102 30v70c0 63 -33 110 -112 110c-57 0 -103 -18 -103 -40c0 -19 49 -18 49 -75c0 -29 -23 -54 -60 -54c-27 0 -64 18 -64 70
c0 64 49 129 177 129c180 0 192 -102 192 -176v-210c0 -50 -2 -103 29 -103c29 0 43 43 43 103zM120 119c0 -47 32 -87 82 -87c110 0 144 92 144 189v70l-100 -35c-102 -36 -127 -90 -126 -137zM171 720h134l113 -145h-33l-147 93l-146 -93h-34z" />
    <glyph glyph-name="adieresis" unicode="&#xe4;" horiz-adv-x="555" 
d="M150 682c29 0 52 -25 52 -54c0 -30 -24 -53 -53 -53s-54 26 -54 55s26 52 55 52zM319 682c29 0 52 -25 52 -54c0 -30 -24 -53 -53 -53s-54 26 -54 55s26 52 55 52zM497 152h30c0 -59 -16 -161 -97 -161c-46 0 -72 36 -82 92c-52 -66 -101 -92 -178 -92
c-72 0 -134 50 -134 130c0 116 136 154 208 177l102 30v70c0 63 -33 110 -112 110c-57 0 -103 -18 -103 -40c0 -19 49 -18 49 -75c0 -29 -23 -54 -60 -54c-27 0 -64 18 -64 70c0 64 49 129 177 129c180 0 192 -102 192 -176v-210c0 -50 -2 -103 29 -103c29 0 43 43 43 103z
M120 119c0 -47 32 -87 82 -87c110 0 144 92 144 189v70l-100 -35c-102 -36 -127 -90 -126 -137z" />
    <glyph glyph-name="atilde" unicode="&#xe3;" horiz-adv-x="554" 
d="M497 152h30c0 -59 -16 -161 -97 -161c-46 0 -72 36 -82 92c-52 -66 -101 -92 -178 -92c-72 0 -134 50 -134 130c0 116 136 154 208 177l102 30v70c0 63 -33 110 -112 110c-57 0 -103 -18 -103 -40c0 -19 49 -18 49 -75c0 -29 -23 -54 -60 -54c-27 0 -64 18 -64 70
c0 64 49 129 177 129c180 0 192 -102 192 -176v-210c0 -50 -2 -103 29 -103c29 0 43 43 43 103zM120 119c0 -47 32 -87 82 -87c110 0 144 92 144 189v70l-100 -35c-102 -36 -127 -90 -126 -137zM390 708h41c0 -66 -26 -133 -97 -133c-60 0 -136 65 -173 65
c-20 0 -51 -24 -51 -66h-41c0 71 32 134 100 134c55 0 118 -68 173 -68c30 0 48 39 48 68z" />
    <glyph glyph-name="aring" unicode="&#xe5;" horiz-adv-x="554" 
d="M497 152h30c0 -59 -16 -161 -97 -161c-46 0 -72 36 -82 92c-52 -66 -101 -92 -178 -92c-72 0 -134 50 -134 130c0 116 136 154 208 177l102 30v70c0 63 -33 110 -112 110c-57 0 -103 -18 -103 -40c0 -19 49 -18 49 -75c0 -29 -23 -54 -60 -54c-27 0 -64 18 -64 70
c0 64 49 129 177 129c180 0 192 -102 192 -176v-210c0 -50 -2 -103 29 -103c29 0 43 43 43 103zM120 119c0 -47 32 -87 82 -87c110 0 144 92 144 189v70l-100 -35c-102 -36 -127 -90 -126 -137zM230 757c51 0 92 -41 92 -91c0 -51 -40 -91 -90 -91c-51 0 -93 40 -93 91
c0 50 41 91 91 91zM230 723c-31 0 -57 -26 -57 -57c0 -32 26 -56 57 -56c32 0 57 24 57 56c0 31 -25 57 -57 57z" />
    <glyph glyph-name="ccedilla" unicode="&#xe7;" horiz-adv-x="492" 
d="M291 -11l-16 -45c63 0 108 -33 108 -77c0 -46 -34 -90 -121 -90c-57 0 -96 12 -126 24l13 32c87 -34 150 -32 150 26c0 37 -44 44 -79 44l31 88c-117 13 -213 101 -213 275c0 137 87 272 232 272c128 0 171 -73 171 -143c0 -40 -25 -73 -69 -73c-35 0 -66 28 -68 63
c-2 31 15 72 65 72c7 0 9 8 2 17c-18 26 -51 34 -89 34c-85 0 -149 -66 -149 -244c0 -105 34 -232 151 -232c87 0 116 35 170 121l28 -11c-42 -97 -101 -151 -191 -153z" />
    <glyph glyph-name="eacute" unicode="&#xe9;" horiz-adv-x="502" 
d="M323 299c57 0 56 11 56 56c0 108 -59 153 -114 153c-99 0 -132 -105 -132 -209h190zM273 32c84 0 131 40 181 121l28 -11c-44 -99 -116 -151 -209 -151c-131 0 -235 96 -235 275c0 148 84 272 232 272c125 0 204 -119 204 -274h-341c0 -81 22 -232 140 -232zM170 601
l157 78c34 17 115 77 141 13c25 -64 -82 -73 -116 -80l-175 -37z" />
    <glyph glyph-name="egrave" unicode="&#xe8;" horiz-adv-x="502" 
d="M323 299c57 0 56 11 56 56c0 108 -59 153 -114 153c-99 0 -132 -105 -132 -209h190zM273 32c84 0 131 40 181 121l28 -11c-44 -99 -116 -151 -209 -151c-131 0 -235 96 -235 275c0 148 84 272 232 272c125 0 204 -119 204 -274h-341c0 -81 22 -232 140 -232zM339 600
l-7 -26l-175 37c-34 6 -141 15 -116 80c26 64 107 4 141 -13z" />
    <glyph glyph-name="ecircumflex" unicode="&#xea;" horiz-adv-x="502" 
d="M323 299c57 0 56 11 56 56c0 108 -59 153 -114 153c-99 0 -132 -105 -132 -209h190zM273 32c84 0 131 40 181 121l28 -11c-44 -99 -116 -151 -209 -151c-131 0 -235 96 -235 275c0 148 84 272 232 272c125 0 204 -119 204 -274h-341c0 -81 22 -232 140 -232zM201 720h135
l113 -145h-34l-147 93l-146 -93h-34z" />
    <glyph glyph-name="edieresis" unicode="&#xeb;" horiz-adv-x="502" 
d="M323 299c57 0 56 11 56 56c0 108 -59 153 -114 153c-99 0 -132 -105 -132 -209h190zM273 32c84 0 131 40 181 121l28 -11c-44 -99 -116 -151 -209 -151c-131 0 -235 96 -235 275c0 148 84 272 232 272c125 0 204 -119 204 -274h-341c0 -81 22 -232 140 -232zM182 682
c29 0 53 -25 53 -54c0 -30 -25 -53 -54 -53s-53 26 -53 55s25 52 54 52zM351 682c29 0 53 -25 53 -54c0 -30 -25 -53 -54 -53s-54 26 -54 55s26 52 55 52z" />
    <glyph glyph-name="iacute" unicode="&#xed;" horiz-adv-x="305" 
d="M119 114v305c0 59 -23 68 -87 68v33l165 12v-418c0 -63 13 -78 80 -78v-36h-239v36c69 0 81 15 81 78zM25 601l156 78c35 17 115 77 141 13s-82 -73 -115 -80l-176 -37z" />
    <glyph glyph-name="igrave" unicode="&#xec;" horiz-adv-x="305" 
d="M119 114v305c0 59 -23 68 -87 68v33l165 12v-418c0 -63 13 -78 80 -78v-36h-239v36c69 0 81 15 81 78zM197 600l-7 -26l-175 37c-34 6 -141 15 -116 80c26 64 107 4 141 -13z" />
    <glyph glyph-name="icircumflex" unicode="&#xee;" horiz-adv-x="305" 
d="M119 114v305c0 59 -23 68 -87 68v33l165 12v-418c0 -63 13 -78 80 -78v-36h-239v36c69 0 81 15 81 78zM56 720h134l113 -145h-33l-147 93l-146 -93h-34z" />
    <glyph glyph-name="idieresis" unicode="&#xef;" horiz-adv-x="305" 
d="M119 114v305c0 59 -23 68 -87 68v33l165 12v-418c0 -63 13 -78 80 -78v-36h-239v36c69 0 81 15 81 78zM48 682c29 0 53 -25 53 -54c0 -30 -25 -53 -54 -53s-54 26 -54 55s26 52 55 52zM217 682c29 0 53 -25 53 -54c0 -30 -25 -53 -54 -53s-54 26 -54 55s26 52 55 52z" />
    <glyph glyph-name="ntilde" unicode="&#xf1;" horiz-adv-x="609" 
d="M500 337v-223c0 -63 13 -78 81 -78v-36h-240v36c70 0 81 15 81 78v224c0 41 -1 144 -82 144c-116 0 -143 -143 -143 -222v-146c0 -63 13 -78 80 -78v-36h-239v36c69 0 81 15 81 78v305c0 59 -23 68 -87 68v33l165 12v-113c29 50 93 115 156 115c98 0 147 -53 147 -197z
M446 708h41c0 -66 -26 -133 -97 -133c-60 0 -136 65 -173 65c-20 0 -51 -24 -51 -66h-41c0 71 32 134 100 134c55 0 118 -68 173 -68c30 0 48 39 48 68z" />
    <glyph glyph-name="oacute" unicode="&#xf3;" horiz-adv-x="521" 
d="M267 538c128 0 226 -132 226 -274c0 -151 -99 -273 -225 -273c-139 0 -230 121 -230 273c0 141 93 274 229 274zM267 508c-113 0 -135 -114 -135 -244c0 -120 22 -243 135 -243c105 0 132 126 132 243c0 126 -27 244 -132 244zM183 601l157 78c35 17 115 77 141 13
s-82 -73 -115 -80l-176 -37z" />
    <glyph glyph-name="ograve" unicode="&#xf2;" horiz-adv-x="521" 
d="M267 538c128 0 226 -132 226 -274c0 -151 -99 -273 -225 -273c-139 0 -230 121 -230 273c0 141 93 274 229 274zM267 508c-113 0 -135 -114 -135 -244c0 -120 22 -243 135 -243c105 0 132 126 132 243c0 126 -27 244 -132 244zM339 600l-7 -26l-175 37
c-34 6 -141 15 -116 80c26 64 107 4 141 -13z" />
    <glyph glyph-name="ocircumflex" unicode="&#xf4;" horiz-adv-x="521" 
d="M267 538c128 0 226 -132 226 -274c0 -151 -99 -273 -225 -273c-139 0 -230 121 -230 273c0 141 93 274 229 274zM267 508c-113 0 -135 -114 -135 -244c0 -120 22 -243 135 -243c105 0 132 126 132 243c0 126 -27 244 -132 244zM200 720h134l113 -145h-33l-147 93
l-146 -93h-34z" />
    <glyph glyph-name="odieresis" unicode="&#xf6;" horiz-adv-x="521" 
d="M267 538c128 0 226 -132 226 -274c0 -151 -99 -273 -225 -273c-139 0 -230 121 -230 273c0 141 93 274 229 274zM267 508c-113 0 -135 -114 -135 -244c0 -120 22 -243 135 -243c105 0 132 126 132 243c0 126 -27 244 -132 244zM181 682c29 0 53 -25 53 -54
c0 -30 -25 -53 -54 -53s-54 26 -54 55s26 52 55 52zM350 682c29 0 53 -25 53 -54c0 -30 -25 -53 -54 -53s-54 26 -54 55s26 52 55 52z" />
    <glyph glyph-name="otilde" unicode="&#xf5;" horiz-adv-x="521" 
d="M267 538c128 0 226 -132 226 -274c0 -151 -99 -273 -225 -273c-139 0 -230 121 -230 273c0 141 93 274 229 274zM267 508c-113 0 -135 -114 -135 -244c0 -120 22 -243 135 -243c105 0 132 126 132 243c0 126 -27 244 -132 244zM413 708h40c0 -66 -26 -133 -96 -133
c-61 0 -137 65 -174 65c-20 0 -51 -24 -51 -66h-40c0 71 31 134 99 134c55 0 119 -68 174 -68c30 0 48 39 48 68z" />
    <glyph glyph-name="uacute" unicode="&#xfa;" horiz-adv-x="626" 
d="M161 601l157 78c34 17 115 77 141 13c25 -64 -82 -73 -116 -80l-175 -37zM512 103c0 -58 23 -67 86 -67v-34l-167 -12v125c-33 -76 -88 -126 -171 -126c-150 0 -141 149 -141 183v258c0 58 -23 67 -87 67v33l165 9v-376c0 -48 -3 -127 87 -127c111 0 150 143 150 255v139
c0 58 -22 67 -86 67v33l164 9v-436z" />
    <glyph glyph-name="ugrave" unicode="&#xf9;" horiz-adv-x="626" 
d="M384 600l-7 -26l-176 37c-33 6 -141 15 -115 80c26 64 106 4 141 -13zM512 103c0 -58 23 -67 86 -67v-34l-167 -12v125c-33 -76 -88 -126 -171 -126c-150 0 -141 149 -141 183v258c0 58 -23 67 -87 67v33l165 9v-376c0 -48 -3 -127 87 -127c111 0 150 143 150 255v139
c0 58 -22 67 -86 67v33l164 9v-436z" />
    <glyph glyph-name="ucircumflex" unicode="&#xfb;" horiz-adv-x="626" 
d="M218 720h134l113 -145h-33l-147 93l-146 -93h-34zM512 103c0 -58 23 -67 86 -67v-34l-167 -12v125c-33 -76 -88 -126 -171 -126c-150 0 -141 149 -141 183v258c0 58 -23 67 -87 67v33l165 9v-376c0 -48 -3 -127 87 -127c111 0 150 143 150 255v139c0 58 -22 67 -86 67v33
l164 9v-436z" />
    <glyph glyph-name="udieresis" unicode="&#xfc;" horiz-adv-x="626" 
d="M216 682c29 0 52 -25 52 -54c0 -30 -24 -53 -53 -53s-54 26 -54 55s26 52 55 52zM385 682c29 0 52 -25 52 -54c0 -30 -24 -53 -53 -53s-54 26 -54 55s26 52 55 52zM512 103c0 -58 23 -67 86 -67v-34l-167 -12v125c-33 -76 -88 -126 -171 -126c-150 0 -141 149 -141 183
v258c0 58 -23 67 -87 67v33l165 9v-376c0 -48 -3 -127 87 -127c111 0 150 143 150 255v139c0 58 -22 67 -86 67v33l164 9v-436z" />
    <glyph glyph-name="dagger" unicode="&#x2020;" horiz-adv-x="658" 
d="M274 810h119l-21 -327l258 16v-103s-235 18 -256 19l16 -657h-119l23 657c-57 0 -256 -16 -256 -16v100l256 -16z" />
    <glyph glyph-name="sterling" unicode="&#xa3;" horiz-adv-x="642" 
d="M462 717c0 25 -58 55 -119 55c-70 0 -157 -45 -157 -152c0 -42 5 -72 65 -190h224v-37h-207c22 -43 45 -84 45 -135c0 -49 -32 -106 -73 -139c72 -36 116 -57 166 -57c59 0 114 7 187 81l23 -14c-62 -108 -135 -140 -212 -140c-140 0 -225 100 -335 34l-25 16
c81 70 109 74 137 80c36 39 48 76 48 114c0 48 -50 127 -70 160h-121v37h101c-23 54 -36 115 -36 163c0 149 126 217 230 217c86 0 214 -40 214 -159c0 -42 -32 -79 -76 -79c-22 0 -65 13 -65 66c0 60 56 66 56 79z" />
    <glyph glyph-name="section" unicode="&#xa7;" horiz-adv-x="487" 
d="M343 758c0 24 -29 34 -75 34c-45 0 -116 -30 -116 -85c0 -60 48 -97 114 -147l54 -41c104 -81 139 -125 139 -201c0 -63 -37 -100 -110 -163c69 -73 86 -102 86 -152c0 -107 -89 -170 -198 -170c-117 0 -165 71 -165 136c0 34 30 61 66 61c34 0 59 -26 59 -60
c0 -38 -39 -44 -39 -72c0 -23 51 -36 84 -36c48 0 111 33 118 90c9 64 -45 99 -112 153l-86 69c-84 69 -124 113 -124 195c0 76 57 119 109 160c-47 50 -66 84 -66 126c0 72 53 164 189 164c72 0 162 -38 162 -123c0 -35 -24 -71 -65 -71c-43 0 -64 34 -64 62
c0 34 40 55 40 71zM109 385c0 -80 69 -104 135 -153l73 -55c47 40 71 70 71 105c0 86 -114 158 -212 228c-34 -28 -67 -73 -67 -125z" />
    <glyph glyph-name="bullet" unicode="&#x2022;" horiz-adv-x="173" 
d="M92 454c29 0 53 -24 53 -54c0 -29 -23 -53 -52 -53s-55 24 -55 53c0 30 25 54 54 54z" />
    <glyph glyph-name="germandbls" unicode="&#xdf;" horiz-adv-x="566" 
d="M367 509c97 -27 172 -107 172 -262c0 -151 -83 -258 -188 -258c-56 0 -117 29 -117 95c0 29 21 59 67 59c22 0 55 -18 55 -54c0 -43 -37 -40 -37 -49c0 -11 17 -15 29 -15c84 0 108 97 108 219c0 117 -71 239 -182 239v36c56 0 122 26 122 134c0 74 -29 122 -95 122
c-74 0 -104 -104 -104 -202v-573h-159v38c65 0 81 16 81 58v448c0 116 16 265 186 265c101 0 174 -71 174 -156c0 -72 -43 -121 -112 -144z" />
    <glyph glyph-name="acute" unicode="&#xb4;" horiz-adv-x="368" 
d="M38 601l157 78c34 17 115 77 141 13c25 -64 -82 -73 -116 -80l-175 -37z" />
    <glyph glyph-name="dieresis" unicode="&#xa8;" horiz-adv-x="342" 
d="M93 682c29 0 52 -25 52 -54c0 -30 -24 -53 -53 -53s-54 26 -54 55s26 52 55 52zM262 682c29 0 52 -25 52 -54c0 -30 -24 -53 -53 -53s-54 26 -54 55s26 52 55 52z" />
    <glyph glyph-name="AE" unicode="&#xc6;" horiz-adv-x="1136" 
d="M547 736l-243 -443h252v443h-9zM654 408v-257c0 -81 12 -113 110 -113h74c160 0 194 149 210 280h43l-22 -319h-629v39c92 0 113 21 116 112v104h-274l-55 -101c-46 -88 -9 -115 82 -115v-38h-282v38c77 0 94 13 145 107l273 497c55 100 26 130 -71 130v38h684l21 -290
h-42c-18 127 -66 252 -210 252h-63c-98 0 -110 -33 -110 -113v-208h41c97 0 133 14 133 172h42v-387h-42c0 161 -37 172 -138 172h-36z" />
    <glyph glyph-name="Oslash" unicode="&#xd8;" horiz-adv-x="704" 
d="M30 21l86 105c-51 78 -78 177 -78 276c0 218 117 417 324 417c94 0 172 -45 227 -115l83 100l24 -17l-89 -108c56 -76 80 -173 80 -276c0 -207 -128 -414 -323 -414c-97 0 -173 42 -226 109l-81 -99zM547 603c0 1 -360 -443 -360 -443c26 -79 77 -135 175 -135
c172 0 201 181 201 380c0 72 -3 139 -16 198zM162 402c0 -72 4 -140 15 -202l361 440c-26 86 -78 143 -176 143c-180 0 -200 -172 -200 -381z" />
    <glyph glyph-name="infinity" unicode="&#x221e;" horiz-adv-x="604" 
d="M35 530h232v-36c-68 0 -84 -10 -53 -89l103 -275l116 277c35 82 -22 87 -84 87v36h224v-36c-64 0 -70 -29 -98 -94l-166 -394c-42 -99 -79 -176 -174 -176c-68 0 -103 42 -103 91c0 33 21 63 59 63c13 0 60 -3 60 -56c0 -37 -28 -50 -44 -50c-9 0 4 -17 29 -17
c45 0 77 33 104 94l30 61l-150 400c-24 64 -24 78 -85 78v36zM178 601l156 78c35 17 116 77 141 13c26 -64 -81 -73 -115 -80l-175 -37z" />
    <glyph glyph-name="ae" unicode="&#xe6;" horiz-adv-x="812" 
d="M122 119c0 -47 32 -87 83 -87c109 0 143 92 143 189v70l-100 -35c-101 -36 -127 -90 -126 -137zM633 299c57 0 56 11 56 56c0 108 -59 153 -114 153c-100 0 -132 -105 -132 -209h190zM172 -11c-71 0 -134 52 -134 132c0 116 136 154 208 177l102 30v70
c0 63 -33 110 -112 110c-57 0 -103 -18 -103 -40c0 -19 49 -18 49 -75c0 -29 -23 -54 -60 -54c-27 0 -65 18 -65 70c0 64 57 129 178 129c114 0 155 -50 178 -81c48 47 94 81 166 81c126 0 205 -119 205 -274h-341c0 -81 22 -232 140 -232c84 0 131 40 181 121l28 -11
c-44 -99 -116 -153 -209 -153c-85 0 -168 42 -209 121c-60 -106 -123 -121 -202 -121z" />
    <glyph glyph-name="oslash" unicode="&#xf8;" horiz-adv-x="521" 
d="M499 521l-63 -77c36 -50 57 -114 57 -180c0 -151 -99 -275 -225 -275c-60 0 -111 24 -151 62l-58 -70l-24 21l61 75c-37 48 -58 114 -58 187c0 141 92 274 228 274c57 0 110 -27 149 -68l59 73zM157 100c19 -47 53 -81 110 -81c105 0 132 128 132 245c0 42 -3 85 -11 121
zM267 508c-113 0 -135 -114 -135 -244c0 -44 3 -88 12 -128l233 287c-19 51 -54 85 -110 85z" />
    <glyph glyph-name="questiondown" unicode="&#xbf;" horiz-adv-x="422" 
d="M252 285c0 -90 4 -136 -46 -226l-15 -25c-39 -70 -61 -117 -61 -168c0 -64 43 -121 104 -121c49 0 98 27 98 61c0 14 -5 13 -24 14c-16 1 -46 18 -46 55c0 52 36 68 62 68c40 0 70 -37 70 -81c0 -73 -58 -153 -175 -153c-105 0 -181 70 -181 168c0 65 36 103 94 168
l16 20c66 85 65 144 65 220h39zM229 400c-38 0 -68 33 -68 71s31 68 69 68s70 -32 70 -70s-33 -69 -71 -69z" />
    <glyph glyph-name="exclamdown" unicode="&#xa1;" horiz-adv-x="200" 
d="M125 265l36 -387c9 -99 25 -173 -56 -173c-80 0 -60 75 -51 179l32 381h39zM107 400c-38 0 -69 32 -69 70s31 69 69 69s70 -31 70 -69s-32 -70 -70 -70z" />
    <glyph glyph-name="radical" unicode="&#x221a;" horiz-adv-x="432" 
d="M152 851l-113 146h34l146 -93l147 93h33l-113 -146h-134z" />
    <glyph glyph-name="guillemotleft" unicode="&#xab;" horiz-adv-x="416" 
d="M356 516h32l-62 -205l62 -200h-36l-139 202zM181 516h33l-63 -205l63 -200h-36l-140 202z" />
    <glyph glyph-name="guillemotright" unicode="&#xbb;" horiz-adv-x="416" 
d="M70 516l144 -203l-140 -202h-36l63 200l-63 205h32zM245 516l143 -203l-140 -202h-35l62 200l-62 205h32z" />
    <glyph glyph-name="Agrave" unicode="&#xc0;" horiz-adv-x="839" 
d="M173 172l230 651h28l245 -680c34 -97 49 -105 135 -105v-38h-346v38c108 0 128 48 86 159l-22 60h-283l-32 -93c-37 -104 33 -126 108 -126v-38h-284v38c93 0 107 55 135 134zM261 299h254l-129 355zM451 888l-7 -26l-176 37c-33 7 -140 16 -115 81c26 64 107 3 141 -14z
" />
    <glyph glyph-name="Atilde" unicode="&#xc3;" horiz-adv-x="839" 
d="M173 172l230 651h28l245 -680c34 -97 49 -105 135 -105v-38h-346v38c108 0 128 48 86 159l-22 60h-283l-32 -93c-37 -104 33 -126 108 -126v-38h-284v38c93 0 107 55 135 134zM261 299h254l-129 355zM569 997h41c0 -66 -26 -133 -97 -133c-60 0 -136 64 -173 64
c-20 0 -51 -23 -51 -66h-41c0 72 32 135 100 135c55 0 118 -69 173 -69c30 0 48 40 48 69z" />
    <glyph glyph-name="Otilde" unicode="&#xd5;" horiz-adv-x="704" 
d="M364 819c196 0 323 -199 323 -416c0 -207 -127 -414 -322 -414c-212 0 -327 209 -327 413c0 218 119 417 326 417zM364 783c-181 0 -202 -172 -202 -381c0 -194 20 -377 202 -377c171 0 199 181 199 380c0 205 -28 378 -199 378zM513 1001h41c0 -66 -26 -133 -97 -133
c-60 0 -136 65 -173 65c-20 0 -51 -24 -51 -66h-41c0 71 32 134 100 134c55 0 119 -68 173 -68c31 0 48 39 48 68z" />
    <glyph glyph-name="OE" unicode="&#x152;" horiz-adv-x="1122" 
d="M362 783c-168 0 -200 -172 -200 -381c0 -194 19 -377 200 -377c49 0 183 -2 183 173v414c0 104 -56 171 -183 171zM643 151c-4 -81 11 -113 110 -113h74c160 0 194 149 210 280h42l-21 -318h-617c-25 -7 -48 -11 -77 -11c-212 0 -326 209 -326 413c0 218 117 417 324 417
c25 0 49 -4 71 -9h614l21 -290h-42c-18 127 -66 252 -211 252h-62c-99 0 -110 -33 -110 -113v-208h42c97 0 133 14 133 172h42v-387h-42c0 161 -37 172 -138 172h-37v-257z" />
    <glyph glyph-name="oe" unicode="&#x153;" horiz-adv-x="870" 
d="M683 299c57 0 56 11 56 56c0 108 -59 153 -114 153c-99 0 -132 -104 -132 -209h190zM267 508c-113 0 -135 -114 -135 -244c0 -120 22 -245 135 -245c99 0 132 122 132 221c0 117 -19 268 -132 268zM633 30c84 0 131 42 181 123l28 -11c-43 -99 -116 -153 -209 -153
c-78 0 -148 37 -190 103c-40 -62 -103 -103 -175 -103c-139 0 -230 123 -230 275c0 141 93 274 229 274c72 0 133 -40 175 -103c40 63 102 103 187 103c125 0 205 -119 205 -274h-341c0 -83 23 -234 140 -234z" />
    <glyph glyph-name="endash" unicode="&#x2013;" horiz-adv-x="555" 
d="M38 339h489v-75h-489v75z" />
    <glyph glyph-name="emdash" unicode="&#x2014;" horiz-adv-x="874" 
d="M38 434l808 -1v-68h-808v69z" />
    <glyph glyph-name="quotedblleft" unicode="&#x201c;" horiz-adv-x="409" 
d="M362 819l19 -20c-41 -41 -89 -99 -83 -130c5 -34 28 -24 44 -33c22 -11 34 -30 34 -54c0 -37 -26 -71 -70 -71c-38 0 -73 32 -73 85c0 80 37 140 129 223zM168 819l19 -20c-42 -41 -90 -99 -84 -130c6 -34 28 -24 45 -33c21 -11 33 -30 33 -54c0 -37 -26 -71 -69 -71
c-38 0 -74 32 -74 85c0 80 37 140 130 223z" />
    <glyph glyph-name="quotedblright" unicode="&#x201d;" horiz-adv-x="404" 
d="M51 511l-19 20c42 41 90 99 84 130c-5 34 -28 24 -44 33c-22 11 -34 30 -34 54c0 37 26 71 69 71c38 0 74 -32 74 -85c0 -80 -37 -140 -130 -223zM246 511l-19 20c41 41 90 99 84 130c-6 34 -28 24 -45 33c-21 11 -33 30 -33 54c0 37 25 71 69 71c38 0 74 -32 74 -85
c0 -80 -37 -140 -130 -223z" />
    <glyph glyph-name="quoteleft" unicode="&#x2018;" horiz-adv-x="215" 
d="M168 819l19 -20c-42 -41 -90 -99 -84 -130c6 -34 28 -24 45 -33c21 -11 33 -30 33 -54c0 -37 -26 -71 -69 -71c-38 0 -74 32 -74 85c0 80 37 140 130 223z" />
    <glyph glyph-name="quoteright" unicode="&#x2019;" horiz-adv-x="210" 
d="M55 511l-19 20c41 41 89 99 84 130c-6 34 -28 24 -45 33c-21 11 -34 30 -34 54c0 37 26 71 70 71c38 0 74 -32 74 -85c0 -80 -37 -140 -130 -223z" />
    <glyph glyph-name="divide" unicode="&#xf7;" horiz-adv-x="593" 
d="M525 819h40l-487 -819h-40z" />
    <glyph glyph-name="ydieresis" unicode="&#xff;" horiz-adv-x="604" 
d="M38 530h233v-36c-69 0 -84 -10 -54 -89l103 -275l116 277c35 82 -22 87 -84 87v36h224v-36c-64 0 -69 -29 -97 -94l-167 -394c-41 -99 -78 -176 -173 -176c-69 0 -103 42 -103 91c0 33 20 63 58 63c13 0 60 -3 60 -56c0 -37 -28 -50 -43 -50c-9 0 3 -17 29 -17
c45 0 76 33 104 94l29 61l-150 400c-23 64 -23 78 -85 78v36zM229 682c29 0 53 -25 53 -54c0 -30 -25 -53 -54 -53s-54 26 -54 55s26 52 55 52zM398 682c29 0 53 -25 53 -54c0 -30 -25 -53 -54 -53s-54 26 -54 55s26 52 55 52z" />
    <glyph glyph-name="Ydieresis" unicode="&#x178;" horiz-adv-x="838" 
d="M383 318l-196 358c-52 92 -87 96 -149 96v38h340v-38c-50 0 -135 -2 -85 -95l162 -297l154 287c44 84 -18 105 -94 105v38h295v-38c-87 0 -103 -19 -155 -112l-174 -327v-183c0 -90 57 -112 150 -112v-38h-387v38c93 0 137 22 139 112v168zM275 889l157 79
c34 16 115 77 141 13c25 -65 -82 -74 -116 -81l-175 -36z" />
    <glyph glyph-name="fraction" unicode="&#x2044;" horiz-adv-x="838" 
d="M383 318l-196 358c-52 92 -87 96 -149 96v38h340v-38c-50 0 -135 -2 -85 -95l162 -297l154 287c44 84 -18 105 -94 105v38h295v-38c-87 0 -103 -19 -155 -112l-174 -327v-183c0 -90 57 -112 150 -112v-38h-387v38c93 0 137 22 139 112v168zM362 970c29 0 53 -26 53 -55
s-25 -53 -54 -53s-53 26 -53 55s25 53 54 53zM531 970c29 0 53 -26 53 -55s-25 -53 -54 -53s-53 26 -53 55s25 53 54 53z" />
    <glyph glyph-name="periodcentered" unicode="&#xb7;" horiz-adv-x="311" 
d="M159 9h40l-22 -65c62 0 107 -33 107 -77c0 -46 -33 -90 -121 -90c-57 0 -96 12 -125 24l12 32c88 -34 150 -32 150 26c0 37 -43 44 -78 44z" />
    <glyph glyph-name="Acircumflex" unicode="&#xc2;" horiz-adv-x="839" 
d="M173 172l230 651h28l245 -680c34 -97 49 -105 135 -105v-38h-346v38c108 0 128 48 86 159l-22 60h-283l-32 -93c-37 -104 33 -126 108 -126v-38h-284v38c93 0 107 55 135 134zM261 299h254l-129 355zM347 1009h134l113 -145h-34l-146 92l-147 -92h-33z" />
    <glyph glyph-name="Ecircumflex" unicode="&#xca;" horiz-adv-x="727" 
d="M287 1009h135l113 -145h-34l-146 92l-147 -92h-34zM154 150v510c0 91 -23 112 -116 112v38h619l21 -290h-43c-18 127 -66 252 -210 252h-63c-98 0 -109 -33 -109 -113v-208h40c97 0 133 14 133 172h43v-387h-43c0 161 -37 172 -137 172h-36v-257c0 -81 11 -113 109 -113
h74c160 0 195 149 211 280h42l-21 -318h-630v38c93 0 116 21 116 112z" />
    <glyph glyph-name="Aacute" unicode="&#xc1;" horiz-adv-x="839" 
d="M173 172l230 651h28l245 -680c34 -97 49 -105 135 -105v-38h-346v38c108 0 128 48 86 159l-22 60h-283l-32 -93c-37 -104 33 -126 108 -126v-38h-284v38c93 0 107 55 135 134zM261 299h254l-129 355zM374 889l156 79c35 16 115 77 141 13c26 -65 -82 -74 -115 -81
l-176 -36z" />
    <glyph glyph-name="Edieresis" unicode="&#xcb;" horiz-adv-x="727" 
d="M303 970c29 0 53 -26 53 -55s-25 -53 -54 -53s-54 26 -54 55s26 53 55 53zM472 970c29 0 53 -26 53 -55s-25 -53 -54 -53s-54 26 -54 55s26 53 55 53zM154 150v510c0 91 -23 112 -116 112v38h619l21 -290h-43c-18 127 -66 252 -210 252h-63c-98 0 -109 -33 -109 -113
v-208h40c97 0 133 14 133 172h43v-387h-43c0 161 -37 172 -137 172h-36v-257c0 -81 11 -113 109 -113h74c160 0 195 149 211 280h42l-21 -318h-630v38c93 0 116 21 116 112z" />
    <glyph glyph-name="Egrave" unicode="&#xc8;" horiz-adv-x="727" 
d="M504 888l-6 -26l-176 37c-33 7 -141 16 -115 81c26 64 106 3 141 -14zM154 150v510c0 91 -23 112 -116 112v38h619l21 -290h-43c-18 127 -66 252 -210 252h-63c-98 0 -109 -33 -109 -113v-208h40c97 0 133 14 133 172h43v-387h-43c0 161 -37 172 -137 172h-36v-257
c0 -81 11 -113 109 -113h74c160 0 195 149 211 280h42l-21 -318h-630v38c93 0 116 21 116 112z" />
    <glyph glyph-name="Iacute" unicode="&#xcd;" horiz-adv-x="397" 
d="M154 150v510c0 89 -23 112 -116 112v38h331v-38c-93 0 -116 -21 -116 -112v-510c0 -90 23 -112 116 -112v-38h-331v38c93 0 116 22 116 112zM68 889l157 79c35 16 115 77 141 13c25 -65 -82 -74 -115 -81l-176 -36z" />
    <glyph glyph-name="Icircumflex" unicode="&#xce;" horiz-adv-x="397" 
d="M154 150v510c0 89 -23 112 -116 112v38h331v-38c-93 0 -116 -21 -116 -112v-510c0 -90 23 -112 116 -112v-38h-331v38c93 0 116 22 116 112zM138 1008h134l113 -146h-34l-146 93l-147 -93h-33z" />
    <glyph glyph-name="Idieresis" unicode="&#xcf;" horiz-adv-x="397" 
d="M154 150v510c0 89 -23 112 -116 112v38h331v-38c-93 0 -116 -21 -116 -112v-510c0 -90 23 -112 116 -112v-38h-331v38c93 0 116 22 116 112zM121 970c29 0 52 -26 52 -55s-24 -53 -53 -53s-54 26 -54 55s26 53 55 53zM290 970c29 0 52 -26 52 -55s-24 -53 -53 -53
s-54 26 -54 55s26 53 55 53z" />
    <glyph glyph-name="Igrave" unicode="&#xcc;" horiz-adv-x="397" 
d="M154 150v510c0 89 -23 112 -116 112v38h331v-38c-93 0 -116 -21 -116 -112v-510c0 -90 23 -112 116 -112v-38h-331v38c93 0 116 22 116 112zM368 888l-7 -26l-175 37c-34 7 -141 16 -116 81c26 64 107 3 141 -14z" />
    <glyph glyph-name="Oacute" unicode="&#xd3;" horiz-adv-x="704" 
d="M362 819c197 0 325 -199 325 -416c0 -207 -128 -414 -323 -414c-212 0 -326 209 -326 413c0 218 117 417 324 417zM362 783c-180 0 -200 -172 -200 -381c0 -194 19 -377 200 -377c172 0 201 181 201 380c0 205 -29 378 -201 378zM247 889l157 79c34 16 115 77 141 13
c25 -65 -82 -74 -115 -81l-176 -36z" />
    <glyph glyph-name="Ocircumflex" unicode="&#xd4;" horiz-adv-x="704" 
d="M362 819c197 0 325 -199 325 -416c0 -207 -128 -414 -323 -414c-212 0 -326 209 -326 413c0 218 117 417 324 417zM362 783c-180 0 -200 -172 -200 -381c0 -194 19 -377 200 -377c172 0 201 181 201 380c0 205 -29 378 -201 378zM296 1008h135l113 -146h-34l-146 93
l-147 -93h-34z" />
    <glyph glyph-name="Ograve" unicode="&#xd2;" horiz-adv-x="704" 
d="M362 819c197 0 325 -199 325 -416c0 -207 -128 -414 -323 -414c-212 0 -326 209 -326 413c0 218 117 417 324 417zM362 783c-180 0 -200 -172 -200 -381c0 -194 19 -377 200 -377c172 0 201 181 201 380c0 205 -29 378 -201 378zM490 888l-7 -26l-175 37
c-34 7 -141 16 -116 81c26 64 107 3 141 -14z" />
    <glyph glyph-name="Uacute" unicode="&#xda;" horiz-adv-x="822" 
d="M631 660c0 89 -24 112 -116 112v38h279v-38c-93 0 -116 -21 -116 -112l1 -399c0 -147 -31 -272 -258 -272c-236 0 -267 122 -267 273v398c0 89 -23 112 -116 112v38h331v-38c-93 0 -116 -21 -116 -112v-399c0 -117 10 -223 184 -223c169 0 194 102 194 225v397zM280 889
l156 79c35 16 115 77 141 13c26 -65 -81 -74 -115 -81l-176 -36z" />
    <glyph glyph-name="Ucircumflex" unicode="&#xdb;" horiz-adv-x="822" 
d="M631 660c0 89 -24 112 -116 112v38h279v-38c-93 0 -116 -21 -116 -112l1 -399c0 -147 -31 -272 -258 -272c-236 0 -267 122 -267 273v398c0 89 -23 112 -116 112v38h331v-38c-93 0 -116 -21 -116 -112v-399c0 -117 10 -223 184 -223c169 0 194 102 194 225v397zM367 1008
h134l113 -146h-33l-147 93l-147 -93h-33z" />
    <glyph glyph-name="Ugrave" unicode="&#xd9;" horiz-adv-x="822" 
d="M631 660c0 89 -24 112 -116 112v38h279v-38c-93 0 -116 -21 -116 -112l1 -399c0 -147 -31 -272 -258 -272c-236 0 -267 122 -267 273v398c0 89 -23 112 -116 112v38h331v-38c-93 0 -116 -21 -116 -112v-399c0 -117 10 -223 184 -223c169 0 194 102 194 225v397zM543 888
l-7 -26l-176 37c-33 7 -141 16 -115 81c26 64 106 3 141 -14z" />
    <glyph glyph-name="dotlessi" unicode="&#x131;" horiz-adv-x="305" 
d="M119 114v305c0 59 -23 68 -87 68v33l165 12v-418c0 -63 13 -78 80 -78v-36h-239v36c69 0 81 15 81 78z" />
    <glyph glyph-name="circumflex" unicode="&#x2c6;" horiz-adv-x="426" 
d="M152 720h134l113 -145h-33l-147 93l-146 -93h-34z" />
    <glyph glyph-name="tilde" unicode="&#x2dc;" horiz-adv-x="423" 
d="M357 714h40c0 -66 -26 -133 -96 -133c-61 0 -137 64 -173 64c-21 0 -52 -23 -52 -66h-40c0 72 31 135 99 135c55 0 119 -69 174 -69c30 0 48 40 48 69z" />
    <glyph glyph-name="ring" unicode="&#x2da;" horiz-adv-x="249" 
d="M130 757c50 0 91 -41 91 -91c0 -51 -40 -91 -90 -91s-93 40 -93 91c0 50 41 91 92 91zM130 723c-32 0 -57 -26 -57 -57c0 -32 25 -56 57 -56c31 0 57 24 57 56c0 31 -26 57 -57 57z" />
    </font>
</defs>
</svg>
