<?xml version="1.0" encoding="utf-8"?>
<!-- Generator: Adobe Illustrator 16.0.2, SVG Export Plug-In . SVG Version: 6.00 Build 0)  -->
<!DOCTYPE svg PUBLIC "-//W3C//DTD SVG 1.1//EN" "http://www.w3.org/Graphics/SVG/1.1/DTD/svg11.dtd">
<svg version="1.1" id="Layer_1" xmlns="http://www.w3.org/2000/svg" xmlns:xlink="http://www.w3.org/1999/xlink" x="0px" y="0px"
	 width="960px" height="560px" viewBox="0 0 960 560" enable-background="new 0 0 960 560" xml:space="preserve">
<g>
	<g>
		<polyline fill="none" stroke="#201440" stroke-miterlimit="10" points="226.5,99 226.5,380.5 595,380.5 		"/>
		<g>
			<path fill="#201440" d="M226.5,93c-1.054,2.84-2.852,6.363-4.756,8.547l4.756-1.72l4.755,1.72
				C229.351,99.363,227.553,95.84,226.5,93z"/>
		</g>
		<g>
			<path fill="#201440" d="M601,380.5c-2.84,1.054-6.363,2.852-8.547,4.756l1.72-4.756l-1.72-4.755
				C594.637,377.649,598.16,379.447,601,380.5z"/>
		</g>
	</g>
</g>
<line fill="none" stroke="#201440" stroke-miterlimit="10" x1="316.947" y1="121.5" x2="532.737" y2="323.474"/>
<line fill="none" stroke="#201440" stroke-miterlimit="10" x1="291.947" y1="302.421" x2="534" y2="122.333"/>
<line fill="none" stroke="#201440" stroke-miterlimit="10" x1="330.947" y1="330.421" x2="573" y2="150.333"/>
<g>
	<g>
		<polyline fill="none" stroke="#201440" stroke-miterlimit="10" points="411,212.5 414,212.5 411,212.5 		"/>
		<line fill="none" stroke="#201440" stroke-miterlimit="10" stroke-dasharray="5,5" x1="407" y1="212.5" x2="231" y2="212.5"/>
		<polyline fill="none" stroke="#201440" stroke-miterlimit="10" points="228,212.5 226,212.5 228,212.5 		"/>
		<line fill="none" stroke="#201440" stroke-miterlimit="10" stroke-dasharray="5,5" x1="233" y1="212.5" x2="409" y2="212.5"/>
	</g>
</g>
<line fill="none" stroke="#201440" stroke-miterlimit="10" stroke-dasharray="5" x1="418.333" y1="380.5" x2="414" y2="212.5"/>
<polyline fill="none" stroke="#201440" stroke-miterlimit="10" stroke-dasharray="5" points="226,243.5 447.5,243.5 447.5,381 "/>
<path fill="none" stroke="#201440" stroke-miterlimit="10" stroke-dasharray="5" d="M226,280.5"/>
<g>
	<g>
		<g>
			<g>
				<g>
					<path fill="#3C3258" d="M226,282.835c-0.088,0.086-0.038,0.281,0.204,0.242l0.172-0.331L226,282.835z"/>
					<path fill="#3C3258" d="M227.63,283.447c0.285-0.16,0.613-0.442,0.429-0.746c-0.282,0.318-0.351,0.186-0.654,0.564
						c-0.242,0.038-0.423-0.106-0.382-0.229c-0.085,0.085-0.376-0.072-0.507,0.135c0.315,0.257,0.715,0.267,1.132,0.056
						C227.737,283.3,227.65,283.387,227.63,283.447z"/>
					<path fill="#3C3258" d="M251.313,283.964l-0.152-0.039C251.202,283.946,251.254,283.958,251.313,283.964z"/>
					<path fill="#3C3258" d="M265.986,284.146c-0.112,0.008-0.159,0.041-0.165,0.07
						C265.926,284.194,266.011,284.174,265.986,284.146z"/>
					<path fill="#3C3258" d="M268.491,284.51c-0.054-0.008-0.099-0.015-0.147-0.022C268.4,284.519,268.457,284.535,268.491,284.51z"
						/>
					<path fill="#3C3258" d="M251.313,283.964l0.392,0.104C251.732,283.96,251.503,283.987,251.313,283.964z"/>
					<path fill="#3C3258" d="M230.896,282.649c-0.082,0.016-0.15,0.047-0.213,0.087l0.2-0.035L230.896,282.649z"/>
					<path fill="#3C3258" d="M244.844,284.232h-0.12c-0.035,0.038-0.068,0.083-0.099,0.135L244.844,284.232z"/>
					<path fill="#3C3258" d="M239.88,284.283c0.112,0.012,0.151-0.27,0.194-0.392c-0.063,0.115-0.146,0.171-0.245,0.192
						C239.828,284.138,239.842,284.201,239.88,284.283z"/>
					<path fill="#3C3258" d="M232.008,283.788l-0.14,0.039C231.905,283.817,231.965,283.801,232.008,283.788z"/>
					<path fill="#3C3258" d="M248.397,284.293c0.009,0.042,0.026,0.078,0.045,0.101
						C248.442,284.358,248.425,284.324,248.397,284.293z"/>
					<path fill="#3C3258" d="M387.246,282.181c-0.004,0.02,0.001,0.032,0,0.05C387.275,282.202,387.284,282.183,387.246,282.181z"/>
					<path fill="#3C3258" d="M393,283.572l-0.08,0.016c-0.008,0.053-0.017,0.105-0.017,0.157L393,283.572z"/>
					<path fill="#3C3258" d="M273.076,284.87c-0.009-0.002-0.012-0.003-0.021-0.005C272.936,284.896,273.003,284.892,273.076,284.87
						z"/>
					<path fill="#3C3258" d="M315.167,284.663c-0.477-0.251,0.776-0.322,0.058-0.602C315.292,284.171,314.573,284.5,315.167,284.663
						z"/>
					<path fill="#3C3258" d="M231.024,282.687c0.067-0.004,0.135-0.006,0.204-0.003
						C231.135,282.674,231.072,282.675,231.024,282.687z"/>
					<path fill="#3C3258" d="M315.225,284.062v-0.003l-0.074-0.026C315.182,284.044,315.199,284.051,315.225,284.062z"/>
					<path fill="#3C3258" d="M283.641,284.701c-0.021-0.05-0.064-0.087-0.107-0.123
						C283.537,284.607,283.561,284.643,283.641,284.701z"/>
					<path fill="#3C3258" d="M275.771,284.302l0.194,0.037C275.888,284.313,275.825,284.305,275.771,284.302z"/>
					<path fill="#3C3258" d="M287.727,284.305c0.106,0.021,0.142,0.061,0.286,0.022c-0.013-0.015-0.026-0.024-0.044-0.034
						C287.917,284.331,287.848,284.35,287.727,284.305z"/>
					<path fill="#3C3258" d="M291.98,284.303c-0.022-0.021-0.052-0.037-0.078-0.057c-0.042,0.005-0.091,0.011-0.135,0.016
						L291.98,284.303z"/>
					<path fill="#3C3258" d="M374.32,282.315c0.093,0.079,0.151,0.167,0.196,0.253C374.451,282.368,375.075,282.297,374.32,282.315z
						"/>
					<path fill="#3C3258" d="M230.897,282.808c0.025-0.071,0.062-0.106,0.126-0.121l-0.141,0.015
						C230.87,282.743,230.868,282.782,230.897,282.808z"/>
					<path fill="#3C3258" d="M287.9,282.087l0.676,0.042C288.387,282.102,288.141,282.087,287.9,282.087z"/>
					<path fill="#3C3258" d="M343.807,282.355l0.155-0.033C343.902,282.315,343.847,282.324,343.807,282.355z"/>
					<path fill="#3C3258" d="M290.581,282.087c0.121,0.1,0.249,0.157,0.38,0.194c0.028-0.022,0.06-0.04,0.079-0.072L290.581,282.087
						z"/>
					<path fill="#3C3258" d="M374.518,282.571l-0.001-0.003L374.518,282.571z"/>
					<path fill="#3C3258" d="M378.969,281.903c-0.644-0.008-0.303,0.362-0.439,0.574c-0.769,0.104-0.355-0.272-0.617-0.461
						c-0.479,0.098-0.848,0.437-1.206,0.422c-0.027-0.061-0.096-0.083-0.015-0.159c-0.507,0.294-1.506,0.015-2.097,0.384
						c-0.044-0.033-0.066-0.063-0.077-0.092c0.096,0.185,0.11,0.373,0.091,0.507c-0.289,0.007-0.536,0.233-0.645-0.008
						c0.177,0.007,0.192-0.091,0.274-0.166l-0.302,0.104c-0.272-0.347,0.413-0.119,0.413-0.376c-0.59,0.112-1.277,0.399-1.729,0.302
						c-0.094-0.34,1.057-0.114,0.454-0.416l0.7,0.13c-0.535-0.536,0.425,0.037-0.066-0.536c-0.92-0.099-1.029,0.173-1.947,0.074
						c-0.207,0.188,0.068,0.278-0.138,0.468c-1.305,0.339-1.027-0.854-1.986-0.401c-0.249,0.226-0.345,0.655-1.027,0.429
						l0.232-0.385c-0.891-0.038-0.508,0.553-1.441,0.294c0.166-0.15,0.7-0.127,0.565-0.173c-0.604-0.303-0.428,0.218-0.893,0.218
						l-0.096-0.34c-0.948,0.054-1.993,0.299-3.044,0.361c0.058-0.102,0.238-0.208-0.007-0.312c-1.325,0.17-2.829-0.042-4.106-0.243
						l-0.488,0.293c-0.114-0.003-0.211-0.133-0.088-0.189c-0.498-0.111-0.026,0.187-0.265,0.302
						c-0.284,0.021-0.375-0.169-0.195-0.257c-0.879,0.249-2.504,0.536-3.43,0.222l0.18-0.087c-0.721-0.119-0.813,0.602-1.482,0.327
						l0.128-0.052c-1.565-0.127-3.295,0.142-4.489-0.302c-0.227,0.423-1.549-0.188-1.65,0.401c-0.894-0.292-0.638-0.397-1.896-0.594
						c-0.336-0.027-0.501,0.368-0.917,0.43l-0.01-0.309l-0.564,0.323l-0.3-0.368l-0.39,0.079c0.155,0.019,0.33,0.139,0.306,0.227
						c-0.609,0.14-1.484-0.214-1.499-0.372l-1.44,0.261c0.032-0.124,0.273-0.167,0.464-0.246c-0.769,0.314-0.14-0.324-0.845-0.036
						c0.095,0.07-0.051,0.184-0.067,0.246c-0.351-0.187-1.151-0.188-1.742-0.109l0.113-0.213c-1.068-0.054-2.252,0.103-3.451,0.099
						c0.43,0.099,0.331,0.467-0.021,0.502l-0.141-0.325c-0.227,0.201,0.367,0.123-0.099,0.369c-0.448-0.037-0.301-0.37-0.044-0.477
						l-0.544,0.113c-0.032-0.098,0.096-0.148,0.129-0.272c-0.223,0.202-0.94-0.327-1.262,0.024l-0.031-0.097
						c-1.199-0.003-1.742,0.109-2.719,0.125c-0.019,0.281-0.401,0.219-0.692,0.446c-0.718-0.09-1.514-0.311-2.379-0.287
						c-0.607,0.141-0.177,0.238-0.451,0.405c-0.045-0.256-0.908-0.231-0.46-0.416c-1.038,0.042-1.326,0.052-2.638,0.26
						c0.143,0.104,0.303,0.15,0.22,0.237c-0.238,0.042-0.542-0.107-0.508-0.23l0.063-0.026c-1.473,0.384-3.4-0.747-4.573-0.213
						l0.066-0.026l-1.217,0.278c-0.56-0.044,0.336-0.192-0.078-0.352c-1.313,0.428-2.073-0.062-3.154,0.224
						c-0.836-0.756-2.968,0.053-4.097-0.43l0.065,0.178c-0.292,0.175-0.353-0.102-0.568-0.143c0.031,0.139,0.317,0.16,0.135,0.257
						c-2.472,0.215-5.102-0.26-7.636-0.421c-0.927-0.047-0.526,0.921-1.695,0.496l0.332-0.33c-1.871,0.396-3.825-0.014-5.656,0.322
						c0.109-0.076,0.112-0.175,0.291-0.174c-0.387-0.24-1.43-0.012-1.437,0.184c-0.285-0.021-0.066-0.177-0.242-0.276
						c-0.388-0.142-0.974,0.307-1.18,0.067c-0.035-0.038,0.109-0.077,0.18-0.096c-0.253,0.116-1.178-0.03-0.936,0.247
						c-0.688-0.132-1.315,0.123-1.863-0.041c-0.357,0.31-1.176-0.148-1.29,0.289c0.049-0.452-1.205-0.365-1.64-0.152
						c0.146-0.137-0.377-0.142-0.208-0.331c-0.496,0.007-0.95,0.091-0.864,0.323c-0.914-0.542-1.836,0.436-2.351-0.259
						c-1.473,0.243-2.836,0.408-4.162,0.514c0.048-0.451,1.465-0.045,1.408-0.519c-1.257,0.187-1.982,0.573-3.229,0.465
						c-0.323-0.063,0.183-0.196,0.292-0.273c-1.256,0.187-2.428-0.041-3.546,0.205c0.003-0.042,0.124-0.088,0.238-0.122
						c-0.221,0.015-0.512-0.066-0.487,0.139l0.214-0.056c0.352,0.298-0.875,0.621-0.914,0.778c0.374-0.587-1.104-0.147-0.51-0.89
						c-0.145,0.038-0.327,0.136-0.293,0.272c-0.215-0.04-0.284-0.12-0.065-0.275c-0.789,0.111-0.509,0.329-1.224,0.324
						c0.003-0.099,0.147-0.138,0.221-0.254c-0.362,0.193-0.726,0.387-1.33,0.303c0.036-0.06-0.034-0.138,0.146-0.136
						c-1.037,0.03-1.768,0.516-2.906,0.328c0.335-0.431-0.387-0.142-0.448-0.515l-0.612,0.111l0.246,0.181
						c-0.536-0.006-1.01,0.266-1.47,0.144l0.398-0.154l-1.004,0.071l0.568,0.142c-0.542,0.192,0.058,0.473-0.655,0.368
						c0.145-0.038-0.536-0.005-0.815-0.225l0.001-0.001c-0.265,0.119-0.538,0.244-0.934,0.151c-0.103-0.119,0.083-0.413,0.016-0.492
						c-0.261,0.313-1.255,0.087-1.586,0.419c0.11-0.078,0.116-0.273,0.08-0.314l-0.219,0.254c-0.249-0.081-0.285-0.12-0.245-0.276
						c-0.747-0.047,0.237,0.474-0.649,0.27c0.069-0.021,0.036-0.059,0.181-0.097c-0.891-0.106-1.72,0.16-2.539,0.036
						c-0.241-0.376,0.715-0.093,0.439-0.409c-1.18,0.068-2.443,0.45-3.584,0.361l0.213,0.042c-0.158,0.53-0.85-0.263-1.427-0.013
						c0.141-0.039,0.185-0.294,0.147-0.234c-0.782-0.086-1.598,0.13-2.783,0.297l0.147-0.137c-0.461-0.121-1.213-0.069-1.711-0.132
						c-0.148,0.136-0.433,0.114-0.26,0.313c-1.534-0.776-2.927,0.416-4.288-0.23c0.163-0.002,0.388-0.119,0.258-0.12l-1.16,0.126
						c0.092,0.23,0.152,0.14,0.396,0.319c-0.146,0.137-0.474,0.243-0.761,0.243c0.521-0.153-0.004-0.371-0.23-0.5
						c0.038,0.071-0.039,0.149-0.02,0.221c-0.606-0.411-0.102,0.465-0.929,0.188l0.044-0.121c-0.31,0.062-0.595,0.222-0.929,0.188
						c-0.138-0.268,0.33-0.125,0.351-0.345c-0.469,0.016-0.925,0.506-1.349,0.24c0.199-0.075,0.485-0.076,0.685-0.15
						c-0.462-0.313-0.516-0.233-0.859-0.283l0.034,0.007l-0.794-0.143l0.202,0.086c-0.586,0.696-1.195,0.127-1.985,0.583
						c0.768-0.432,0.127-0.25,0.186-0.553c-0.202-0.084-0.508-0.178-0.421-0.264c-0.374,0.245-0.624-0.192-1.151,0.165
						c-0.023-0.098-0.4-0.01-0.315-0.254c-0.486,0.076,0.115,0.169,0.074,0.292c-0.749,0.333-1.76-0.404-2.836,0.053
						c-0.929,0.188-1.101,0.517-1.962,0.681c-0.291-0.156,0.238-0.355,0.238-0.355c-0.469-0.144-0.822-0.117-1.264-0.005
						c0.089-0.085-0.002-0.157-0.138-0.267c-0.354,0.025-0.237,0.354-0.705,0.211c0.081-0.108,0.183-0.282,0.354-0.392
						c-0.418,0.09-0.831,0.271-1.264,0.359c-0.115-0.17,0.261-0.258,0.414-0.368c-0.486,0.076-1.26,0.154-1.411,0.423l0.312,0.096
						c-0.177,0.013-0.091-0.23,0.04-0.28c0.417-0.211,0.602,0.094,0.625,0.191l-0.308,0.063c0.316,0.572,1.238-0.092,1.858-0.059
						l-0.259,0.416l0.637-0.345c0.135,0.108,0.228,0.34-0.079,0.402c0.445,0.206,0.394-0.147,0.776,0.081
						c0.042,0.036,0.023,0.056-0.016,0.072l0.435-0.124c-0.085,0.088,0.072,0.294-0.195,0.234c0.78,0.239,1.258-0.313,1.552,0.003
						l-0.065,0.025c1.083-0.141,0.105-0.306,0.917-0.664l0.546,0.754l0.106-0.306c0.112,0.011,0.333,0.034,0.292,0.156
						c0.416-0.209-0.071-0.133,0.17-0.33c0.538,0.278,1.482-0.13,1.603,0.356c0.193-0.232-0.514-0.18,0.06-0.341
						c0.164,0.523,0.664-0.09,1.154,0.15c-0.151,0.271-0.616,0.127-0.125,0.368c0.296-0.456,0.956,0.1,1.37,0.013
						c0.02-0.363,0.901-0.151,1.596-0.272c-0.044,0.122,1.308,0.199,1.955,0.331l-0.019,0.061c0.125-0.367,0.792-0.298,1.277-0.374
						c-0.019,0.22-0.106,0.307-0.369,0.405l0.456-0.002c0.108-0.117,0.25-0.18,0.546-0.222l-0.115,0.274
						c0.607-0.015,1.224-0.323,2.005-0.14c0.044-0.256-0.622-0.713,0.205-0.884c0.03,0.138,0.061,0.375-0.155,0.432
						c0.071-0.019,0.252-0.115,0.396-0.056l-0.331,0.232c0.356,0.103,0.187-0.194,0.471-0.173c-0.006,0.197,0.21,0.141,0.17,0.298
						c-0.073,0.019-0.249-0.082-0.357-0.004c0.321,0.035,0.709,0.152,0.837,0.302c-0.028-0.112,0-0.266,0.235-0.292
						c0.607-0.014,0.208,0.238,0.562,0.34c0.147-0.138,0.535,0.005,0.545-0.291c0.178,0.002,0.211,0.14,0.28,0.22
						c0.314-0.131,1.469-0.037,1.114-0.352l-0.081-0.021c0.016-0.004,0.032-0.008,0.051-0.013c-0.002,0,0,0-0.002,0h0.002
						c1.031-0.294,2.141,0.167,3.164,0.04l-0.001,0.1c0.61-0.113,1.359-0.067,1.794-0.279c0.181,0,0.426,0.18,0.349,0.298
						c0.467-0.074,0.519-0.186,1.193-0.022c-0.469,0.173,0.162,0.152-0.48,0.126c0.606,0.086,0.744,0.244,1.395-0.026
						c-0.222,0.253,0.457,0.318,0.745,0.243l-0.425-0.181c0.324-0.037,0.607-0.015,0.896,0.007l-0.156,0.333
						c1.241,0.404,2.238-0.689,3.182-0.012c0.329-0.232-0.674-0.164-0.38-0.436c0.571,0.045,1.166,0.522,1.344,0.523
						c0.782,0.184,0.729-0.486,1.548-0.36c-0.105-0.118-0.204-0.436,0.408-0.547c0.571,0.044,0.702,0.497,0.342,0.593
						c-0.137,0.01-0.203-0.028-0.198-0.068c-0.184,0.043-0.426,0.095-0.2,0.223l0.074-0.118c0.283,0.121,1.069,0.108,0.885,0.303
						c0.431-0.113,0.184-0.194-0.135-0.256c0.732,0.172,1.145,0.005,1.898,0.12c-0.12-0.065-0.23-0.204-0.111-0.203
						c1.106,0.146,0.487-0.226,1.236-0.277c0.426,0.181-0.153,0.432,0.602,0.28c0.461,0.123,0.098,0.315-0.085,0.412
						c0.688-0.229,1.284,0.15,1.677,0.192l-0.362,0.096c0.216-0.058,0.394-0.056,0.574-0.055l-0.207-0.237
						c0.212,0.041,0.393,0.042,0.388,0.141c0.219-0.155-0.167-0.395,0.267-0.607c0.283,0.121,0.863-0.129,0.961,0.186
						c-0.891-0.106,0.099,0.316-0.656,0.367c0.146-0.037,0.323-0.036,0.536,0.006c0.032,0.035-0.03,0.065-0.088,0.083
						c0.853,0.281,0.392-0.356,1.276-0.349c-0.112,0.178,0.205,0.337,0.349,0.299c-0.356-0.004-0.17-0.296,0.157-0.433
						c0.566,0.139,0.616-0.103,0.913-0.086l-0.339-0.065c0.115-0.178,0.398-0.154,0.793-0.21c0.034,0.138-0.359,0.095-0.218,0.156
						c0.438-0.313,0.991,0.322,1.603,0.112c0.284,0.12,0.027,0.334,0.276,0.415c0.686-0.23,0.742,0.243,1.463,0.053
						c-0.208-0.238-0.244-0.18,0.264-0.412l-1.185,0.168l0.76-0.348c-0.357-0.003-0.754,0.15-0.969,0.109
						c0.362-0.194,0.325-0.135,0.154-0.333c0.489,0.358,0.97-0.208,1.535,0.033l-0.017,0.591c0.85,0.264,1.51-0.303,2.614-0.154
						l-0.355-0.103c0.148-0.235,0.682-0.033,1.039-0.128c-0.033,0.197,0.19,0.269,0.343,0.392c-0.019-0.146,0.808,0.014,0.908-0.381
						l0.493,0.26c0.891,0.106,1.017-0.563,1.874-0.495c-0.258,0.215,0.131,0.354-0.443,0.508c0.286,0.002,0.543,0.038,0.548-0.099
						c0.167,0.124,0.793-0.266,1.056-0.078c0.121-0.087,0.16-0.294,0.481-0.277c0.035,0.04-0.001,0.098-0.001,0.098
						c0.001-0.098,0.503-0.133,0.222-0.352c0.881,0.616,2.463-0.045,3.23,0.484c0.625-0.066,1.376-0.13,1.943-0.144
						c-0.037,0.059-0.002,0.098-0.109,0.077c0.782,0.184,0.481-0.566,1.371-0.361c0.454,0.319-0.473,0.173-0.189,0.293
						c0.123,0.65,1.074-0.088,1.672,0.291l-0.145,0.038c0.458,0.221,1.117-0.246,1.864-0.199c0,0-0.037,0.057-0.004,0.098
						c0.511-0.331,1.479-0.44,2.199-0.533c-0.224,0.255-0.327,0.135-0.19,0.394c0.322-0.037-0.094-0.415,0.549-0.487
						c0.209,0.139,0.673,0.261,0.735,0.536l-0.607,0.015c0.311,0.357,0.786-0.012,1.105,0.05l-0.041,0.156
						c0.93-0.051,0.943-0.443,1.943-0.415l-0.103-0.118c0.546-0.39,0.458,0.219,1.003-0.07l0.165,0.395
						c0.361-0.096,1.263-0.382,1.91-0.456c-0.366,0.293-1.123,0.442-1.591,0.616c0.357,0.003,1.215-0.029,1.401-0.224
						c-0.144,0.038-0.325,0.135-0.468,0.074c0.438-0.311,1.016-0.463,1.728-0.456c-0.126,0.765,1.856,0.192,2.373,0.787
						c1.26-0.283,2.499,0.12,3.967,0.075c-0.521-0.596,0.428-0.017,0.338-0.628c0.342-0.04,0.472-0.029,0.503,0.01l1.036,0.365
						c0.246,0.179-0.325,0.135-0.293,0.272c0.749,0.047,0.314,0.259,0.809,0.422c-0.102-0.219,0.261-0.313,0.687-0.23l-0.601-0.281
						c1.046-0.326,0.904,0.513,1.958,0.19l-0.333,0.192c0.541-0.113,1.996,0.004,2.527-0.487c0.096,0.07,0.222,0.238-0.016,0.282
						c1.293,0.073,2.878-0.522,3.883-0.221l-0.098,0.149c0.242-0.043,0.42-0.28,0.722-0.13c-0.016,0.062-0.097,0.149,0.015,0.158
						c0.128-0.052,0.641-0.263,0.96-0.175l-0.273,0.168c1.261,0.195,1.936-0.41,2.993-0.513c-0.002,0.44,0.99,0.584,1.485,0.655
						l-0.017,0.062c1.469,0.055,2.495-0.364,3.855-0.537c0.844,0.478,2.86,0.2,4.217,0.468c-0.208-0.08,0.034-0.343,0.275-0.387
						c0.318,0.089,0.88-0.306,0.83,0.098l-0.114-0.008c0.24,0.396,0.895,0.291,1.405,0.302l0.084-0.528
						c1.336,0.769,3.502-0.282,4.231,0.406c0.322-0.132,0.722-0.131,1.042-0.263l-0.018,0.283c0.894,0.072,1.34,0.107,2.444,0.04
						l-0.225,0.203c0.623,0.018,0.787-0.816,1.361-0.833l0.173,0.422c1.087-0.006,2.188,0.365,3.262-0.019
						c-0.018,0.063-0.05,0.185-0.226,0.201c0.512,0.011,1.979,0.286,1.793-0.294c0.013,0.378,1.122,0.037,1.709-0.13l-0.092,0.279
						c0.496-0.356,0.512-0.454,1.203-0.553c0.165,0.037,0.144,0.224-0.074,0.152c0.546,0.146,0.426-0.264,1.088-0.115l-0.247,0.178
						c0.562,0.021,0.518-0.074,0.827-0.281c0.353-0.112,1.066,0.07,1.149,0.322c0.076-0.154,0.383-0.359,0.715-0.287
						c0.045,0.096-0.076,0.154-0.137,0.184c0.94,0.189,1.398-0.324,2.044-0.051c0.013,0.093,0.055,0.139,0.109,0.167
						c-0.747-0.007-1.348-0.022-1.292-0.043c0,0.257,0.603,0.303,0.123,0.657c0.484-0.193,1.313-0.614,1.9-0.494
						c0.028,0.025,0.056,0.05,0.078,0.089l-0.061,0.029c0.135,0.025,0.257,0.002,0.372-0.042c0.188,0.043,0.307,0.074,0.487,0.078
						c0.069,0.212,0.692,0.114,0.992,0.124c-0.024-0.28,0.369-0.235,0-0.468c0.048,0.021-0.057,0.034-0.256,0.046
						c-0.045,0.008-0.099,0.012-0.128,0.028l0.021-0.024c-0.197,0.005-0.455,0.012-0.748,0.019c0.237-0.143,0.486-0.263,0.818-0.106
						c0.154-0.181,0.324-0.366,0.42-0.454c0.412,0.393,1.205,0.604,1.315,0.846c0.918-0.157,2.164-0.104,2.741-0.632
						c0.261-0.067,0.3,0.151,0.398,0.234c-0.151,0.053-0.33,0.045-0.412,0.121c0.522-0.136,1.547-0.053,1.671-0.422
						c0.658,0.167-0.37,0.34,0.534,0.279l-0.122,0.113c1.779,0.589,2.892-0.942,4.864-0.186c-0.137-0.046-0.205-0.067-0.233-0.129
						c2.249,0.333,4.633-0.313,6.852,0.216c0.631,0.106,0.699-0.129,1.084-0.309l0.137,0.303l0.658-0.349
						c0.933-0.255,1.616,0.741,2.797,0.259l-0.153-0.204c0.424,0.039,1.344-0.119,1.273,0.114c0.043-0.037,0.139-0.212,0.305-0.105
						l0.013,0.158l1.042-0.271c0.808,0.114-0.126,0.627,1.053,0.657c0.438-0.061,1.248-0.46,1.083-0.565
						c-0.177-0.008-0.452-0.099-0.465-0.257l0.4-0.082c0.073-0.466,0.381-0.942-0.603-1.268l-0.686,0.284l-0.221-0.226l0.577-0.014
						c-0.327-0.213-0.535-0.024-0.767,0.104c-0.055-0.12-0.151-0.204-0.287-0.249l-0.673,0.444c-0.082-0.182,0.302-0.361-0.15-0.462
						c-0.315,0.207,0.302,0.408-0.219,0.544c-0.329-0.211-0.232-0.384-0.618-0.203c-0.054-0.12,0.028-0.196,0.18-0.249
						c-0.343,0.144-0.907,0.061-1.084,0.309c-0.342-0.262-1.157,0.067-1.123-0.373c-0.108,0.105-0.604,0.346-0.918,0.364
						c0.575-0.527-1.178-0.031-1.026-0.597c-0.426,0.475-1.538,0.211-2.292,0.474c0.042-0.037,0.125-0.113,0.192-0.09
						c-0.424-0.039-0.548-0.182-0.821-0.271c-0.054,0.392-0.715,0.481-1.071,0.723c-0.52-0.378,0.316-0.46,0.153-0.823
						c0.026,0.318-0.904,0.317-0.727,0.582c-0.398-0.234-0.343-0.113-0.548-0.438c-0.069,0.49-0.37,0.083-0.7,0.384
						c-0.576-0.241-0.148-0.459-0.78-0.31C378.406,282.077,378.969,281.903,378.969,281.903z M363.93,282.751v-0.006
						c0.129-0.007,0.24-0.012,0.31-0.016C364.175,282.733,364.086,282.74,363.93,282.751z M362.666,282.755
						c0.154,0.012,0.346,0.014,0.548,0.012c0.044,0.097-0.004,0.196-0.131,0.191C363.152,282.894,362.854,282.837,362.666,282.755z
						 M365.339,284.703c-0.2,0.04-0.267-0.016-0.294-0.073c0.094-0.005,0.205-0.014,0.35-0.033l0.023-0.034
						C365.399,284.616,365.377,284.666,365.339,284.703z"/>
					<path fill="#3C3258" d="M365.699,284.335c0.029-0.007,0.044-0.019,0.083-0.021c-0.041-0.025-0.08-0.046-0.12-0.063
						l-0.071,0.088C365.627,284.338,365.665,284.336,365.699,284.335z"/>
					<path fill="#3C3258" d="M251.133,283.918l0.027,0.007c-0.022-0.012-0.043-0.022-0.056-0.04
						C251.122,283.898,251.122,283.907,251.133,283.918z"/>
					<polygon fill="#3C3258" points="345.214,282.217 345.216,282.288 345.326,282.227 					"/>
					<path fill="#3C3258" d="M244.172,282.953c-0.013-0.024-0.039-0.05-0.091-0.071
						C244.085,282.899,244.125,282.925,244.172,282.953z"/>
					<path fill="#3C3258" d="M241.166,282.891l-0.425-0.101C240.925,282.847,241.059,282.874,241.166,282.891z"/>
					<path fill="#3C3258" d="M238.854,282.751c-0.029,0.049-0.038,0.086-0.045,0.12l0.005,0.002L238.854,282.751z"/>
					<path fill="#3C3258" d="M275.611,282.421c0.031-0.002,0.062-0.006,0.089-0.013C275.91,282.354,275.767,282.375,275.611,282.421
						z"/>
					<path fill="#3C3258" d="M264.672,283.077c0.116-0.051,0.231-0.101,0.352-0.133C264.83,282.923,264.678,282.917,264.672,283.077
						z"/>
					<polygon fill="#3C3258" points="287.826,282.082 287.824,282.087 287.9,282.087 					"/>
					<path fill="#3C3258" d="M265.533,282.949c-0.194-0.056-0.357-0.044-0.508-0.005
						C265.184,282.963,265.372,282.992,265.533,282.949z"/>
					<path fill="#3C3258" d="M228.834,282.623l-0.111-0.012c0.001,0.019-0.005,0.034-0.014,0.046L228.834,282.623z"/>
					<path fill="#3C3258" d="M228.709,282.657l-0.124,0.033C228.643,282.69,228.692,282.688,228.709,282.657z"/>
					<path fill="#3C3258" d="M228.326,282.761l0.26-0.07C228.496,282.689,228.385,282.681,228.326,282.761z"/>
					<path fill="#3C3258" d="M231.895,282.753l0.035-0.102C231.911,282.672,231.898,282.705,231.895,282.753z"/>
					<path fill="#3C3258" d="M232.825,282.724c-0.222-0.023-0.557-0.218-0.866-0.153l-0.029,0.081
						C232.075,282.5,232.614,282.896,232.825,282.724z"/>
					<path fill="#3C3258" d="M236.706,283.983l-0.779-0.081c0.136,0.108,0.315,0.255-0.039,0.28
						C236.871,284.507,235.686,283.94,236.706,283.983z"/>
					<path fill="#3C3258" d="M239.123,284.142c-0.418,0.05,0.005,0.157-0.017,0.219
						C239.371,284.262,239.436,284.236,239.123,284.142z"/>
					<path fill="#3C3258" d="M256.585,284.143l-0.042,0.256C256.866,284.361,256.546,284.299,256.585,284.143z"/>
					<polygon fill="#3C3258" points="259.923,282.82 259.609,282.661 259.46,282.896 					"/>
					<polygon fill="#3C3258" points="261.896,284.643 261.754,284.679 262.293,284.586 					"/>
					<path fill="#3C3258" d="M291.224,284.552l-0.098-0.315C290.908,284.293,290.862,284.646,291.224,284.552z"/>
					<path fill="#3C3258" d="M303.885,284.23c0.138,0.157,0.494,0.259,0.713,0.104C304.313,284.313,304.03,284.19,303.885,284.23z"
						/>
					<polygon fill="#3C3258" points="341.856,284.744 341.602,284.85 342.082,284.762 					"/>
				</g>
			</g>
		</g>
	</g>
</g>
<path fill="none" stroke="#201440" stroke-miterlimit="10" stroke-dasharray="2" d="M393,283.5h97H393z"/>
<polyline fill="none" stroke="#201440" stroke-miterlimit="10" stroke-dasharray="2" points="392.25,381.25 392.5,381 392.5,284 
	489.5,283.5 489.5,381 "/>
</svg>
