<?xml version="1.0" encoding="utf-8"?>
<!-- Generator: Adobe Illustrator 16.0.2, SVG Export Plug-In . SVG Version: 6.00 Build 0)  -->
<!DOCTYPE svg PUBLIC "-//W3C//DTD SVG 1.1//EN" "http://www.w3.org/Graphics/SVG/1.1/DTD/svg11.dtd">
<svg version="1.1" id="Layer_1" xmlns="http://www.w3.org/2000/svg" xmlns:xlink="http://www.w3.org/1999/xlink" x="0px" y="0px"
	 width="960px" height="560px" viewBox="0 0 960 560" enable-background="new 0 0 960 560" xml:space="preserve">
<g>
	<g>
		<polyline fill="none" stroke="#000000" stroke-width="2" stroke-miterlimit="10" points="194.5,19 194.5,532.5 777,532.5 		"/>
		<g>
			<path d="M194.538,13.265c-1.054,2.84-2.852,6.363-4.756,8.547l4.756-1.72l4.755,1.72
				C197.388,19.628,195.59,16.104,194.538,13.265z"/>
		</g>
		<g>
			<path d="M783.112,532.315c-2.841,1.054-6.363,2.852-8.548,4.756l1.721-4.756l-1.721-4.757
				C776.749,529.465,780.271,531.263,783.112,532.315z"/>
		</g>
	</g>
</g>
<line fill="none" stroke="#000000" stroke-width="2" stroke-miterlimit="10" x1="194.538" y1="262.133" x2="634.831" y2="72.184"/>
<text transform="matrix(1 0 0 1 174.5225 267.4434)" font-family="'Georgia'" font-size="16.0401">R</text>
<text transform="matrix(1 0 0 1 185.7773 272.7852)" font-family="'Georgia'" font-size="9.3514">f</text>
<g>
	<path d="M625.806,96.984c0.234,0.261,0.408,0.547,0.521,0.857c0.113,0.31,0.169,0.672,0.169,1.085c0,0.981-0.363,1.791-1.089,2.428
		c-0.728,0.637-1.627,0.956-2.702,0.956c-0.496,0-0.992-0.077-1.488-0.231c-0.496-0.154-0.924-0.341-1.284-0.56l-0.337,0.572h-0.627
		l-0.107-3.807h0.635c0.13,0.47,0.283,0.895,0.458,1.273s0.406,0.732,0.693,1.061c0.271,0.308,0.588,0.554,0.949,0.736
		c0.363,0.182,0.784,0.274,1.267,0.274c0.358,0,0.675-0.047,0.942-0.141c0.271-0.094,0.486-0.228,0.653-0.4
		c0.167-0.173,0.291-0.375,0.372-0.607c0.081-0.233,0.122-0.501,0.122-0.804c0-0.444-0.126-0.859-0.376-1.243
		c-0.251-0.384-0.624-0.676-1.12-0.874c-0.34-0.135-0.729-0.285-1.167-0.448c-0.438-0.164-0.817-0.319-1.136-0.465
		c-0.627-0.281-1.113-0.651-1.461-1.107c-0.349-0.457-0.521-1.054-0.521-1.789c0-0.423,0.086-0.817,0.258-1.183
		c0.175-0.366,0.419-0.691,0.736-0.979c0.303-0.271,0.661-0.484,1.073-0.638c0.413-0.154,0.844-0.231,1.292-0.231
		c0.512,0,0.971,0.078,1.375,0.235c0.404,0.157,0.773,0.339,1.107,0.548l0.32-0.533h0.626l0.063,3.689h-0.636
		c-0.113-0.423-0.242-0.828-0.388-1.214c-0.144-0.387-0.33-0.736-0.561-1.05c-0.227-0.303-0.498-0.544-0.822-0.725
		c-0.323-0.18-0.721-0.27-1.19-0.27c-0.495,0-0.919,0.159-1.269,0.478c-0.35,0.318-0.524,0.708-0.524,1.167
		c0,0.48,0.111,0.878,0.336,1.194c0.227,0.316,0.553,0.576,0.979,0.779c0.381,0.183,0.756,0.34,1.124,0.474
		c0.368,0.134,0.725,0.275,1.069,0.427c0.313,0.136,0.612,0.29,0.902,0.462S625.592,96.754,625.806,96.984z"/>
	<path d="M631.304,102.083h-3.768v-0.517c0.12-0.01,0.248-0.022,0.384-0.035c0.136-0.013,0.248-0.033,0.337-0.059
		c0.146-0.047,0.256-0.129,0.329-0.247c0.073-0.117,0.109-0.271,0.109-0.458v-8.951c0-0.188-0.04-0.364-0.121-0.529
		s-0.188-0.294-0.317-0.388c-0.094-0.063-0.267-0.12-0.517-0.172c-0.251-0.052-0.452-0.083-0.604-0.094v-0.501l2.906-0.172
		l0.109,0.117v10.597c0,0.183,0.032,0.333,0.102,0.45c0.068,0.118,0.178,0.208,0.329,0.27c0.115,0.052,0.229,0.091,0.341,0.118
		c0.112,0.026,0.238,0.044,0.38,0.055L631.304,102.083L631.304,102.083z"/>
	<path d="M639.81,98.144c0,0.543-0.087,1.077-0.259,1.602s-0.419,0.97-0.735,1.335c-0.36,0.417-0.778,0.728-1.257,0.932
		c-0.475,0.204-1.009,0.306-1.599,0.306c-0.492,0-0.96-0.093-1.403-0.278c-0.443-0.186-0.84-0.456-1.184-0.811
		c-0.34-0.35-0.611-0.776-0.813-1.28c-0.2-0.504-0.302-1.069-0.302-1.696c0-1.206,0.354-2.193,1.055-2.96
		c0.702-0.768,1.625-1.151,2.766-1.151c1.082,0,1.976,0.364,2.678,1.093C639.458,95.962,639.81,96.932,639.81,98.144z
		 M638.188,98.159c0-0.392-0.037-0.806-0.115-1.242s-0.195-0.805-0.354-1.108c-0.167-0.324-0.387-0.583-0.659-0.779
		c-0.271-0.196-0.604-0.294-0.994-0.294c-0.403,0-0.747,0.099-1.031,0.298c-0.286,0.198-0.519,0.47-0.694,0.814
		c-0.168,0.318-0.286,0.681-0.354,1.088c-0.068,0.408-0.104,0.802-0.104,1.183c0,0.501,0.041,0.964,0.122,1.39
		c0.081,0.425,0.21,0.805,0.389,1.139c0.18,0.334,0.4,0.597,0.673,0.787c0.269,0.191,0.602,0.286,1,0.286
		c0.652,0,1.172-0.316,1.554-0.948C637.998,100.141,638.188,99.271,638.188,98.159z"/>
	<path d="M647.979,95.277c0.31,0.366,0.549,0.79,0.718,1.272c0.17,0.483,0.255,1.035,0.255,1.657c0,0.611-0.104,1.168-0.308,1.672
		c-0.201,0.503-0.473,0.933-0.807,1.288c-0.35,0.36-0.738,0.637-1.167,0.83c-0.428,0.193-0.882,0.29-1.362,0.29
		c-0.465,0-0.846-0.052-1.144-0.157s-0.541-0.227-0.729-0.368h-0.063v2.324c0,0.188,0.036,0.346,0.109,0.471
		c0.071,0.125,0.186,0.217,0.337,0.275c0.125,0.047,0.304,0.092,0.534,0.138c0.232,0.044,0.427,0.069,0.576,0.074v0.517h-4.313
		v-0.517c0.161-0.01,0.316-0.023,0.47-0.039c0.152-0.016,0.287-0.042,0.407-0.079c0.155-0.052,0.267-0.144,0.329-0.274
		c0.062-0.13,0.094-0.285,0.094-0.462v-8.216c0-0.157-0.039-0.308-0.117-0.455c-0.078-0.146-0.181-0.264-0.306-0.353
		c-0.096-0.063-0.227-0.111-0.394-0.145s-0.329-0.056-0.483-0.067v-0.517l2.631-0.172l0.108,0.094v0.87l0.063,0.016
		c0.271-0.313,0.606-0.574,1.01-0.783s0.802-0.313,1.199-0.313c0.479,0,0.92,0.102,1.318,0.306
		C647.346,94.658,647.691,94.932,647.979,95.277z M646.701,100.83c0.209-0.324,0.363-0.7,0.462-1.127
		c0.1-0.428,0.147-0.906,0.147-1.434c0-0.386-0.042-0.78-0.125-1.183c-0.084-0.402-0.215-0.752-0.393-1.049
		c-0.177-0.303-0.409-0.548-0.696-0.736c-0.287-0.188-0.632-0.282-1.032-0.282c-0.389,0-0.717,0.084-0.986,0.254
		c-0.271,0.169-0.507,0.372-0.705,0.607v4.566c0.047,0.141,0.124,0.288,0.229,0.439c0.107,0.151,0.229,0.282,0.356,0.392
		c0.162,0.13,0.337,0.236,0.525,0.317c0.188,0.081,0.417,0.122,0.688,0.122c0.293,0,0.574-0.077,0.846-0.231
		C646.292,101.33,646.519,101.112,646.701,100.83z"/>
	<path d="M656.945,100.266c-0.323,0.616-0.758,1.107-1.302,1.473c-0.543,0.366-1.166,0.548-1.87,0.548
		c-0.621,0-1.165-0.11-1.635-0.329c-0.467-0.219-0.853-0.517-1.153-0.893c-0.304-0.376-0.528-0.815-0.679-1.316
		c-0.147-0.501-0.224-1.031-0.224-1.59c0-0.501,0.079-0.994,0.239-1.477c0.159-0.483,0.393-0.917,0.7-1.304
		c0.298-0.371,0.667-0.669,1.106-0.896c0.441-0.227,0.938-0.341,1.484-0.341c0.563,0,1.047,0.089,1.449,0.267
		c0.399,0.177,0.729,0.42,0.979,0.728c0.24,0.292,0.419,0.637,0.537,1.034c0.117,0.396,0.176,0.827,0.176,1.292v0.517h-5.114
		c0,0.508,0.049,0.968,0.146,1.382c0.097,0.413,0.25,0.777,0.458,1.091c0.204,0.304,0.471,0.543,0.799,0.718
		c0.329,0.175,0.721,0.263,1.176,0.263c0.465,0,0.865-0.109,1.202-0.327c0.336-0.217,0.661-0.61,0.977-1.177L656.945,100.266z
		 M655.215,97.321c0-0.292-0.022-0.604-0.074-0.937c-0.05-0.333-0.129-0.611-0.237-0.835c-0.12-0.239-0.284-0.435-0.493-0.585
		c-0.209-0.15-0.479-0.227-0.808-0.227c-0.55,0-1.005,0.228-1.366,0.684c-0.362,0.456-0.562,1.089-0.591,1.901h3.569V97.321
		L655.215,97.321z"/>
	<path d="M670.253,96.733h-7.903v-0.979h7.903V96.733z M670.253,99.647h-7.903v-0.979h7.903V99.647z"/>
	<path d="M680.818,104.652c-1.428-0.178-2.545-0.896-3.356-2.154c-0.811-1.258-1.218-2.953-1.218-5.083
		c0-2.167,0.406-3.883,1.218-5.149c0.813-1.267,1.931-1.994,3.356-2.182v0.65c-1.003,0.183-1.768,0.822-2.287,1.919
		c-0.522,1.096-0.783,2.689-0.783,4.777c0,1.989,0.256,3.536,0.768,4.641c0.514,1.104,1.279,1.75,2.305,1.938L680.818,104.652
		L680.818,104.652z"/>
	<path d="M692.935,102.083h-2.991c-0.662-1.039-1.264-1.937-1.795-2.694c-0.535-0.757-1.115-1.538-1.741-2.342h-1.141v3.524
		c0,0.183,0.028,0.343,0.087,0.482c0.059,0.138,0.182,0.244,0.367,0.317c0.096,0.037,0.26,0.071,0.493,0.102
		c0.235,0.031,0.435,0.049,0.596,0.055v0.556h-4.697v-0.556c0.125-0.01,0.307-0.029,0.544-0.055c0.236-0.026,0.401-0.06,0.498-0.102
		c0.154-0.068,0.27-0.167,0.34-0.297c0.07-0.131,0.104-0.298,0.104-0.501v-8.036c0-0.183-0.024-0.345-0.078-0.486
		c-0.053-0.141-0.176-0.248-0.366-0.321c-0.131-0.047-0.303-0.09-0.512-0.129s-0.386-0.064-0.53-0.074V90.97h5.13
		c0.47,0,0.911,0.048,1.322,0.146c0.413,0.096,0.785,0.252,1.119,0.466c0.324,0.209,0.582,0.482,0.775,0.818
		c0.193,0.337,0.29,0.743,0.29,1.218c0,0.428-0.065,0.807-0.196,1.136c-0.13,0.329-0.322,0.614-0.578,0.854
		c-0.234,0.224-0.518,0.419-0.847,0.583s-0.69,0.304-1.089,0.419c0.548,0.726,1.004,1.336,1.367,1.833
		c0.361,0.496,0.808,1.099,1.335,1.809c0.229,0.313,0.438,0.544,0.623,0.693c0.185,0.149,0.369,0.27,0.552,0.364
		c0.136,0.068,0.307,0.12,0.509,0.157c0.204,0.036,0.374,0.057,0.511,0.063L692.935,102.083L692.935,102.083z M688.814,93.801
		c0-0.673-0.193-1.206-0.579-1.6c-0.389-0.393-0.935-0.59-1.64-0.59h-1.331v4.762h1.026c0.72,0,1.32-0.23,1.801-0.692
		C688.574,95.219,688.814,94.593,688.814,93.801z"/>
	<path d="M700.477,101.942c-0.243,0.089-0.461,0.161-0.646,0.215c-0.185,0.054-0.396,0.083-0.63,0.083
		c-0.407,0-0.732-0.096-0.978-0.286c-0.24-0.19-0.396-0.469-0.466-0.834h-0.047c-0.34,0.376-0.704,0.663-1.093,0.861
		c-0.39,0.199-0.857,0.298-1.406,0.298c-0.579,0-1.056-0.178-1.429-0.533c-0.374-0.355-0.563-0.82-0.563-1.394
		c0-0.298,0.042-0.564,0.126-0.799c0.083-0.235,0.209-0.446,0.376-0.634c0.13-0.157,0.305-0.296,0.519-0.419s0.415-0.22,0.604-0.293
		c0.234-0.089,0.711-0.253,1.431-0.494c0.718-0.24,1.2-0.428,1.451-0.563v-0.775c0-0.068-0.015-0.199-0.043-0.392
		c-0.027-0.193-0.091-0.376-0.185-0.548c-0.104-0.193-0.252-0.362-0.442-0.505c-0.188-0.143-0.461-0.215-0.811-0.215
		c-0.24,0-0.463,0.041-0.67,0.122c-0.206,0.081-0.353,0.166-0.437,0.254c0,0.104,0.025,0.258,0.074,0.462
		c0.05,0.204,0.075,0.392,0.075,0.564c0,0.183-0.083,0.35-0.247,0.501c-0.164,0.151-0.394,0.227-0.687,0.227
		c-0.262,0-0.452-0.093-0.574-0.278c-0.123-0.186-0.187-0.393-0.187-0.623c0-0.24,0.085-0.47,0.255-0.689
		c0.172-0.219,0.393-0.415,0.662-0.587c0.234-0.146,0.521-0.271,0.854-0.372c0.334-0.102,0.66-0.153,0.979-0.153
		c0.438,0,0.821,0.03,1.147,0.09s0.623,0.189,0.89,0.388c0.268,0.193,0.468,0.456,0.606,0.787c0.138,0.331,0.208,0.758,0.208,1.28
		c0,0.747-0.009,1.409-0.023,1.985c-0.017,0.577-0.022,1.208-0.022,1.892c0,0.204,0.034,0.366,0.104,0.486
		c0.07,0.12,0.18,0.222,0.325,0.305c0.078,0.047,0.202,0.073,0.372,0.078c0.169,0.005,0.343,0.008,0.521,0.008L700.477,101.942
		L700.477,101.942z M697.743,97.807c-0.444,0.13-0.833,0.259-1.167,0.384c-0.334,0.126-0.646,0.283-0.934,0.471
		c-0.262,0.178-0.468,0.389-0.617,0.632c-0.151,0.244-0.229,0.533-0.229,0.868c0,0.434,0.114,0.753,0.341,0.958
		c0.229,0.204,0.518,0.306,0.865,0.306c0.371,0,0.697-0.09,0.979-0.271c0.28-0.181,0.52-0.396,0.713-0.64L697.743,97.807z"/>
	<path d="M709.883,98.449h-4.668v-1.237h4.668V98.449z"/>
	<path d="M726.009,102.083h-2.993c-0.659-1.039-1.261-1.937-1.795-2.694c-0.535-0.757-1.112-1.538-1.739-2.342h-1.14v3.524
		c0,0.183,0.028,0.343,0.086,0.482c0.06,0.138,0.182,0.244,0.368,0.317c0.094,0.037,0.258,0.071,0.493,0.102
		c0.234,0.031,0.434,0.049,0.596,0.055v0.556h-4.699v-0.556c0.125-0.01,0.309-0.029,0.546-0.055c0.235-0.026,0.401-0.06,0.495-0.102
		c0.157-0.068,0.271-0.167,0.343-0.297c0.068-0.131,0.104-0.298,0.104-0.501v-8.036c0-0.183-0.023-0.345-0.078-0.486
		c-0.052-0.141-0.175-0.248-0.368-0.321c-0.13-0.047-0.3-0.09-0.509-0.129s-0.387-0.064-0.532-0.074V90.97h5.132
		c0.47,0,0.909,0.048,1.321,0.146c0.412,0.096,0.786,0.252,1.12,0.466c0.323,0.209,0.582,0.482,0.775,0.818
		c0.192,0.337,0.29,0.743,0.29,1.218c0,0.428-0.065,0.807-0.196,1.136c-0.13,0.329-0.323,0.614-0.579,0.854
		c-0.233,0.224-0.518,0.419-0.846,0.583c-0.329,0.164-0.692,0.304-1.089,0.419c0.548,0.726,1.004,1.336,1.366,1.833
		c0.361,0.496,0.809,1.099,1.336,1.809c0.229,0.313,0.437,0.544,0.622,0.693c0.185,0.149,0.37,0.27,0.553,0.364
		c0.136,0.068,0.305,0.12,0.509,0.157c0.203,0.036,0.373,0.057,0.509,0.063V102.083L726.009,102.083z M721.89,93.801
		c0-0.673-0.191-1.206-0.58-1.6c-0.386-0.393-0.932-0.59-1.637-0.59h-1.331v4.762h1.025c0.721,0,1.32-0.23,1.802-0.692
		C721.65,95.219,721.89,94.593,721.89,93.801z"/>
	<path d="M731.984,90.899c0,0.235-0.063,0.433-0.188,0.595s-0.313,0.243-0.571,0.243c-0.16,0-0.305-0.034-0.427-0.102
		c-0.123-0.068-0.234-0.159-0.341-0.274c-0.105-0.115-0.201-0.246-0.29-0.392c-0.089-0.146-0.165-0.264-0.228-0.353
		c-0.352,0.016-0.62,0.259-0.813,0.731c-0.189,0.471-0.286,1.223-0.286,2.254v0.79h1.99v0.752h-1.99v5.545
		c0,0.183,0.036,0.332,0.106,0.446c0.068,0.114,0.182,0.201,0.333,0.258c0.125,0.047,0.292,0.085,0.501,0.114
		c0.209,0.029,0.389,0.048,0.54,0.059v0.517h-4.072v-0.517c0.12-0.01,0.244-0.021,0.372-0.031c0.128-0.01,0.238-0.031,0.333-0.063
		c0.146-0.047,0.254-0.129,0.324-0.247c0.069-0.117,0.104-0.27,0.104-0.458v-5.624h-1.525V94.39h1.525v-0.493
		c0-1.172,0.305-2.123,0.912-2.85c0.608-0.727,1.369-1.09,2.283-1.09c0.465,0,0.813,0.091,1.05,0.274
		C731.867,90.416,731.984,90.638,731.984,90.899z"/>
	<path d="M739.856,97.415c0,2.13-0.406,3.825-1.22,5.083c-0.813,1.258-1.931,1.976-3.354,2.154v-0.642
		c1.021-0.188,1.791-0.834,2.303-1.938c0.512-1.104,0.769-2.651,0.769-4.641c0-2.088-0.262-3.681-0.782-4.777
		c-0.522-1.097-1.284-1.736-2.287-1.919v-0.65c1.426,0.188,2.544,0.915,3.354,2.182C739.45,93.532,739.856,95.248,739.856,97.415z"
		/>
	<path d="M750.124,96.091h-3.509c0.788,0.438,1.387,0.924,1.794,1.457c0.407,0.532,0.61,1.148,0.61,1.848
		c0,0.804-0.323,1.493-0.973,2.068c-0.646,0.574-1.515,0.861-2.601,0.861c-1.146,0-2.106-0.389-2.892-1.167
		c-0.782-0.778-1.175-1.718-1.175-2.819c0-0.663,0.164-1.264,0.493-1.802s0.745-0.943,1.249-1.218
		c0.504-0.274,1.275-0.411,2.314-0.411h4.684v1.183H750.124z M746.027,96.091c-0.221-0.005-0.388-0.008-0.501-0.008
		c-0.937,0-1.628,0.209-2.079,0.626c-0.452,0.418-0.678,1.008-0.678,1.77c0,0.998,0.27,1.799,0.807,2.405
		c0.538,0.605,1.175,0.908,1.911,0.908c0.616,0,1.123-0.22,1.52-0.662c0.397-0.442,0.595-1.077,0.595-1.907
		C747.602,98.023,747.077,96.979,746.027,96.091z"/>
	<path d="M754.889,103.456c0.181,0.213,0.318,0.461,0.418,0.742c0.1,0.282,0.147,0.604,0.147,0.966c0,0.356-0.062,0.682-0.178,0.975
		c-0.119,0.294-0.275,0.544-0.472,0.75c-0.205,0.21-0.432,0.372-0.682,0.484c-0.249,0.113-0.515,0.169-0.794,0.169
		c-0.271,0-0.493-0.03-0.667-0.091s-0.314-0.132-0.424-0.214h-0.037v1.354c0,0.11,0.021,0.201,0.063,0.275
		c0.042,0.073,0.106,0.126,0.195,0.16c0.073,0.027,0.178,0.054,0.313,0.08c0.136,0.026,0.247,0.041,0.337,0.043v0.302h-2.519v-0.302
		c0.095-0.006,0.188-0.013,0.273-0.022c0.089-0.009,0.169-0.025,0.236-0.046c0.093-0.031,0.154-0.084,0.191-0.16
		c0.036-0.077,0.055-0.167,0.055-0.27v-4.79c0-0.091-0.021-0.18-0.065-0.265c-0.046-0.085-0.106-0.153-0.181-0.205
		c-0.056-0.037-0.131-0.065-0.229-0.085c-0.097-0.02-0.192-0.033-0.283-0.039v-0.302l1.534-0.101l0.063,0.055v0.506l0.035,0.009
		c0.158-0.182,0.354-0.335,0.59-0.457c0.234-0.122,0.469-0.183,0.697-0.183c0.281,0,0.537,0.06,0.771,0.178
		C754.521,103.096,754.72,103.256,754.889,103.456z M754.144,106.694c0.122-0.188,0.212-0.408,0.271-0.658
		c0.058-0.25,0.087-0.528,0.087-0.835c0-0.225-0.024-0.455-0.073-0.689c-0.049-0.235-0.124-0.439-0.229-0.612
		c-0.104-0.176-0.239-0.32-0.406-0.43c-0.167-0.109-0.368-0.164-0.604-0.164c-0.225,0-0.416,0.049-0.573,0.148
		c-0.159,0.099-0.296,0.217-0.411,0.354v2.662c0.025,0.082,0.072,0.167,0.135,0.256c0.063,0.088,0.132,0.164,0.207,0.228
		c0.095,0.077,0.196,0.138,0.306,0.186c0.11,0.047,0.244,0.07,0.402,0.07c0.171,0,0.335-0.045,0.493-0.134
		C753.904,106.985,754.037,106.858,754.144,106.694z"/>
	<path d="M767.113,90.155l-5.408,15.249h-1.022l5.394-15.249H767.113z"/>
	<path d="M781.038,96.091h-3.509c0.789,0.438,1.387,0.924,1.794,1.457c0.407,0.532,0.609,1.148,0.609,1.848
		c0,0.804-0.322,1.493-0.972,2.068c-0.646,0.574-1.514,0.861-2.601,0.861c-1.146,0-2.106-0.389-2.892-1.167
		c-0.783-0.778-1.175-1.718-1.175-2.819c0-0.663,0.164-1.264,0.493-1.802s0.746-0.943,1.25-1.218
		c0.503-0.274,1.273-0.411,2.313-0.411h4.686v1.183H781.038z M776.942,96.091c-0.222-0.005-0.389-0.008-0.501-0.008
		c-0.937,0-1.628,0.209-2.08,0.626c-0.451,0.418-0.679,1.008-0.679,1.77c0,0.998,0.271,1.799,0.809,2.405
		c0.537,0.605,1.175,0.908,1.911,0.908c0.613,0,1.122-0.22,1.519-0.662c0.397-0.441,0.596-1.077,0.596-1.907
		C778.517,98.023,777.992,96.979,776.942,96.091z"/>
	<path d="M785.953,107.342c-0.146,0.051-0.271,0.093-0.377,0.125c-0.107,0.032-0.23,0.048-0.367,0.048
		c-0.237,0-0.427-0.055-0.569-0.167c-0.141-0.111-0.23-0.273-0.271-0.487h-0.027c-0.197,0.219-0.409,0.387-0.637,0.503
		c-0.229,0.115-0.5,0.173-0.82,0.173c-0.338,0-0.612-0.104-0.832-0.311c-0.219-0.207-0.327-0.478-0.327-0.813
		c0-0.174,0.024-0.329,0.073-0.466c0.049-0.137,0.122-0.26,0.22-0.369c0.075-0.091,0.178-0.173,0.304-0.245
		c0.124-0.071,0.24-0.128,0.351-0.171c0.138-0.051,0.415-0.147,0.833-0.288c0.419-0.14,0.701-0.25,0.85-0.329v-0.452
		c0-0.04-0.011-0.115-0.025-0.229c-0.019-0.112-0.052-0.219-0.106-0.32c-0.062-0.112-0.146-0.21-0.259-0.294
		c-0.111-0.083-0.269-0.125-0.473-0.125c-0.142,0-0.271,0.023-0.393,0.07c-0.12,0.048-0.204,0.097-0.253,0.149
		c0,0.061,0.017,0.15,0.043,0.269c0.029,0.119,0.043,0.228,0.043,0.329c0,0.106-0.047,0.205-0.144,0.292
		c-0.095,0.088-0.229,0.133-0.399,0.133c-0.15,0-0.264-0.054-0.335-0.163c-0.07-0.108-0.105-0.229-0.105-0.363
		c0-0.14,0.05-0.274,0.146-0.402c0.102-0.127,0.229-0.241,0.389-0.342c0.137-0.085,0.303-0.158,0.497-0.217s0.385-0.089,0.569-0.089
		c0.255,0,0.479,0.018,0.669,0.053c0.19,0.035,0.362,0.11,0.521,0.226c0.155,0.112,0.271,0.266,0.354,0.458
		c0.081,0.193,0.121,0.442,0.121,0.747c0,0.436-0.005,0.821-0.015,1.157c-0.009,0.337-0.015,0.705-0.015,1.103
		c0,0.119,0.021,0.213,0.063,0.283c0.042,0.07,0.104,0.129,0.189,0.178c0.045,0.027,0.116,0.043,0.217,0.046
		c0.099,0.003,0.198,0.004,0.304,0.004v0.296H785.953z M784.359,104.931c-0.261,0.076-0.485,0.151-0.682,0.225
		c-0.193,0.073-0.377,0.165-0.544,0.274c-0.15,0.104-0.271,0.227-0.359,0.369c-0.087,0.142-0.134,0.31-0.134,0.506
		c0,0.253,0.066,0.439,0.198,0.558c0.134,0.119,0.301,0.178,0.506,0.178c0.215,0,0.405-0.052,0.57-0.158
		c0.164-0.105,0.303-0.229,0.415-0.373L784.359,104.931z"/>
</g>
<text transform="matrix(1 0 0 1 164.0166 34.6494)" font-family="'Georgia'" font-size="28.0702">R</text>
<path fill="none" stroke="#1E2F37" stroke-width="2" stroke-miterlimit="10" d="M301.5,253.5c0,0,68-117,261-103"/>
<text transform="matrix(1 0 0 1 385.5 163.5)" font-family="'Georgia'" font-size="18">B</text>
<circle fill="#1E2F37" cx="399.667" cy="174" r="4.5"/>
<g>
	<path d="M780.743,541.99h-4.594c1.031,0.574,1.814,1.209,2.349,1.906c0.534,0.696,0.799,1.505,0.799,2.42
		c0,1.054-0.424,1.955-1.271,2.707c-0.849,0.753-1.982,1.129-3.404,1.129c-1.496,0-2.758-0.511-3.783-1.528
		c-1.024-1.019-1.538-2.249-1.538-3.691c0-0.867,0.216-1.653,0.646-2.357c0.432-0.704,0.977-1.235,1.636-1.595
		c0.66-0.358,1.67-0.538,3.03-0.538h6.132v1.548H780.743z M775.381,541.99c-0.287-0.007-0.507-0.012-0.656-0.012
		c-1.225,0-2.132,0.273-2.723,0.82c-0.592,0.547-0.887,1.319-0.887,2.317c0,1.306,0.352,2.354,1.056,3.147s1.538,1.189,2.502,1.189
		c0.808,0,1.47-0.289,1.989-0.867c0.52-0.577,0.779-1.41,0.779-2.496C777.441,544.52,776.754,543.152,775.381,541.99z"/>
</g>
<g>
	<g>
		<line fill="none" stroke="#000000" stroke-width="2" stroke-miterlimit="10" x1="404.167" y1="174" x2="401.667" y2="174"/>
		
			<line fill="none" stroke="#000000" stroke-width="2" stroke-miterlimit="10" stroke-dasharray="4.9909,4.9909" x1="396.676" y1="174" x2="199.534" y2="174"/>
		<polyline fill="none" stroke="#000000" stroke-width="2" stroke-miterlimit="10" points="197.038,174 194.538,174 197.038,174 		
			"/>
		
			<line fill="none" stroke="#000000" stroke-width="2" stroke-miterlimit="10" stroke-dasharray="4.8812,4.8812" x1="201.919" y1="174" x2="394.727" y2="174"/>
		<polyline fill="none" stroke="#000000" stroke-width="2" stroke-miterlimit="10" points="397.167,174 399.667,174 399.667,176.5 
					"/>
		
			<line fill="none" stroke="#000000" stroke-width="2" stroke-miterlimit="10" stroke-dasharray="4.9789,4.9789" x1="399.667" y1="181.479" x2="399.667" y2="527.511"/>
		<line fill="none" stroke="#000000" stroke-width="2" stroke-miterlimit="10" x1="399.667" y1="530" x2="399.667" y2="532.5"/>
	</g>
</g>
<text transform="matrix(1 0 0 1 167.5 178.5)" font-family="'Georgia'" font-size="18">Rb</text>
<text transform="matrix(1 0 0 1 392.5 551.5)" font-family="'Georgia'" font-size="18">Sb</text>
<text transform="matrix(1 0 0 1 647.5 70.5)" font-family="'Georgia'" font-size="18">CML line</text>
<circle cx="403.167" cy="83" r="3.5"/>
<circle cx="400.167" cy="270.943" r="3.5"/>
<text transform="matrix(1 0 0 1 414.5 85.5)" font-family="'Georgia'" font-size="18">A</text>
<text transform="matrix(1 0 0 1 415.5 276.5)" font-family="'Georgia'" font-size="18">C</text>
</svg>
