<?xml version="1.0" encoding="utf-8"?>
<!-- Generator: Adobe Illustrator 16.0.2, SVG Export Plug-In . SVG Version: 6.00 Build 0)  -->
<!DOCTYPE svg PUBLIC "-//W3C//DTD SVG 1.1//EN" "http://www.w3.org/Graphics/SVG/1.1/DTD/svg11.dtd">
<svg version="1.1" id="Layer_1" xmlns="http://www.w3.org/2000/svg" xmlns:xlink="http://www.w3.org/1999/xlink" 
	viewBox="50 230 1000 440" >
<g>
	<line fill="none" x1="289.352" y1="288.104" x2="289.352" y2="601.448"/>
	<g>
	
			<line fill="none" stroke="#000000" stroke-width="2" stroke-miterlimit="10" x1="289.352" y1="302.792" x2="289.352" y2="601.448"/>
		<g>
			<path d="M289.352,288.104c-2.579,6.952-6.98,15.578-11.643,20.924l11.643-4.21l11.64,4.21
				C296.33,303.682,291.929,295.056,289.352,288.104z"/>
		</g>
	</g>
</g>
<g>
	<line fill="none" x1="288.128" y1="601.448" x2="710.408" y2="601.448"/>
	<g>
		
			<line fill="none" stroke="#000000" stroke-width="2" stroke-miterlimit="10" x1="288.128" y1="601.448" x2="710.408" y2="601.448"/>
		<g>
			<path d="M725.182,601.448c-6.952,2.579-15.578,6.98-20.924,11.643l4.21-11.643l-4.21-11.641
				C709.605,594.47,718.23,598.871,725.182,601.448z"/>
		</g>
	</g>
</g>
<path stroke="#000000" stroke-width="2" stroke-miterlimit="10" d="M289.352,370.269"/>
<path stroke="#000000" stroke-width="2" stroke-miterlimit="10" d="M289.352,378.901"/>
<path stroke="#000000" stroke-width="2" stroke-miterlimit="10" d="M530.92,601.448"/>
<path fill="none" stroke="#000000" stroke-miterlimit="10" d="M524.642,601.448c0,0,23.728-264.921-235.29-236.675"/>
<g>
	<g>
		<path fill="none" stroke="#000000" stroke-miterlimit="10" d="M483.058,601.448c0,0-0.223-2.172-0.782-6.065"/>
		<path fill="none" stroke="#000000" stroke-miterlimit="10" stroke-dasharray="10.1079,5.054" d="M481.33,589.274
			c-7.576-45.907-43.98-205.189-182.838-190.397"/>
		<path fill="none" stroke="#000000" stroke-miterlimit="10" d="M295.413,399.23c-2,0.248-4.02,0.53-6.061,0.85"/>
	</g>
</g>
<line fill="none" stroke="#000000" stroke-miterlimit="10" x1="289.352" y1="516.202" x2="561.515" y2="303.573"/>
<line fill="none" stroke="#000000" stroke-miterlimit="10" stroke-dasharray="10,5" x1="289.352" y1="516.202" x2="603.885" y2="414.203"/>
<line fill="none" stroke="#000000" stroke-miterlimit="10" x1="289.352" y1="516.202" x2="623.499" y2="458.927"/>
<text transform="matrix(1 0 0 1 539.5449 570.3408)" font-family="'Georgia'" font-size="14.688">Growth of</text>
<text transform="matrix(1 0 0 1 539.5449 587.9668)" font-family="'Georgia'" font-size="14.688">Demand</text>
<text transform="matrix(1 0 0 1 520.9658 616.0381)" font-family="'Georgia'" font-size="14.688">C</text>
<g>
	<g>
		<path d="M506.306,482.108c4.736,0,4.736-7.345,0-7.345C501.57,474.764,501.57,482.108,506.306,482.108L506.306,482.108z"/>
	</g>
</g>
<g>
	<g>
		<path d="M492.23,453.65c4.735,0,4.735-7.345,0-7.345C487.494,446.306,487.494,453.65,492.23,453.65L492.23,453.65z"/>
	</g>
</g>
<g>
	<g>
		<path d="M443.576,398.876c4.735,0,4.735-7.344,0-7.344S438.841,398.876,443.576,398.876L443.576,398.876z"/>
	</g>
</g>
<text transform="matrix(1 0 0 1 506.3057 471.7041)" font-family="'Georgia'" font-size="14.688">X</text>
<text transform="matrix(1 0 0 1 492.2305 442.9404)" font-family="'Georgia'" font-size="14.688">Y</text>
<text transform="matrix(1 0 0 1 442.3516 388.4717)" font-family="'Georgia'" font-size="17.136">z</text>
<text transform="matrix(1 0 0 1 274.9727 519.1338)" font-family="'Georgia'" font-size="14.688">A</text>
<text transform="matrix(1 0 0 1 621.4648 401.5283)" font-family="'Georgia'" font-size="14.688">Growth of</text>
<text transform="matrix(1 0 0 1 621.4648 419.1543)" font-family="'Georgia'" font-size="14.688">Supply</text>
<text transform="matrix(1 0 0 1 638.6006 629.1924)" font-family="'Georgia'" font-size="17.136">Growth Rate </text>
<text transform="matrix(1 0 0 1 638.6006 649.7559)" font-family="'Georgia'" font-size="17.136">of firm</text>
<text transform="matrix(1 0 0 1 221.624 276.6807)" font-family="'Georgia'" font-size="17.136">Profit of</text>
<text transform="matrix(1 0 0 1 221.624 297.2441)" font-family="'Georgia'" font-size="17.136">Firm</text>
<g>
	<path d="M565.99,482.133h0.973l-0.762,2.666c-0.051,0.168-0.131,0.432-0.24,0.791c0.148,0.602,0.26,0.961,0.334,1.078
		c0.141,0.215,0.318,0.322,0.533,0.322c0.156,0,0.301-0.064,0.434-0.193s0.221-0.33,0.264-0.604h0.234
		c-0.055,0.563-0.173,0.951-0.354,1.166s-0.392,0.322-0.63,0.322c-0.223,0-0.425-0.094-0.606-0.281s-0.345-0.59-0.489-1.207
		c-0.172,0.34-0.34,0.598-0.504,0.773c-0.23,0.242-0.48,0.423-0.75,0.542s-0.576,0.179-0.92,0.179c-0.863,0-1.498-0.287-1.904-0.861
		s-0.609-1.229-0.609-1.963c0-0.859,0.238-1.556,0.715-2.089s1.035-0.8,1.676-0.8c0.445,0,0.838,0.136,1.178,0.407
		s0.648,0.776,0.926,1.515L565.99,482.133z M565.281,484.553c-0.211-0.805-0.482-1.366-0.814-1.685s-0.67-0.478-1.014-0.478
		c-0.383,0-0.701,0.21-0.955,0.63s-0.381,1.089-0.381,2.007c0,0.543,0.055,0.97,0.164,1.28s0.274,0.551,0.495,0.721
		s0.454,0.255,0.7,0.255c0.301,0,0.576-0.139,0.826-0.416C564.643,486.492,564.969,485.721,565.281,484.553z"/>
	<path d="M571.287,483.053h6.152v0.568h-6.152V483.053z M571.287,485.238h6.152v0.58h-6.152V485.238z"/>
	<path d="M586.146,482.133h0.973l-0.762,2.666c-0.051,0.168-0.131,0.432-0.24,0.791c0.148,0.602,0.26,0.961,0.334,1.078
		c0.141,0.215,0.318,0.322,0.533,0.322c0.156,0,0.301-0.064,0.434-0.193s0.221-0.33,0.264-0.604h0.234
		c-0.055,0.563-0.173,0.951-0.354,1.166s-0.392,0.322-0.63,0.322c-0.223,0-0.425-0.094-0.606-0.281s-0.345-0.59-0.489-1.207
		c-0.172,0.34-0.34,0.598-0.504,0.773c-0.23,0.242-0.48,0.423-0.75,0.542s-0.576,0.179-0.92,0.179c-0.863,0-1.498-0.287-1.904-0.861
		s-0.609-1.229-0.609-1.963c0-0.859,0.238-1.556,0.715-2.089s1.035-0.8,1.676-0.8c0.445,0,0.838,0.136,1.178,0.407
		s0.648,0.776,0.926,1.515L586.146,482.133z M585.438,484.553c-0.211-0.805-0.482-1.366-0.814-1.685s-0.67-0.478-1.014-0.478
		c-0.383,0-0.701,0.21-0.955,0.63s-0.381,1.089-0.381,2.007c0,0.543,0.055,0.97,0.164,1.28s0.274,0.551,0.495,0.721
		s0.454,0.255,0.7,0.255c0.301,0,0.576-0.139,0.826-0.416C584.799,486.492,585.125,485.721,585.438,484.553z"/>
	<path d="M591.121,483.311c-0.016-0.27-0.07-0.537-0.164-0.803c-0.137-0.387-0.205-0.65-0.205-0.791
		c0-0.203,0.049-0.357,0.146-0.463s0.217-0.158,0.357-0.158c0.121,0,0.227,0.053,0.316,0.158s0.135,0.258,0.135,0.457
		c0,0.172-0.052,0.415-0.155,0.729s-0.167,0.604-0.19,0.87c0.215-0.137,0.408-0.303,0.58-0.498c0.266-0.309,0.463-0.5,0.592-0.574
		s0.26-0.111,0.393-0.111c0.125,0,0.232,0.044,0.322,0.132s0.135,0.192,0.135,0.313c0,0.145-0.064,0.273-0.193,0.387
		s-0.451,0.227-0.967,0.34c-0.301,0.066-0.551,0.143-0.75,0.229c0.203,0.105,0.451,0.186,0.744,0.24
		c0.473,0.086,0.782,0.193,0.929,0.322s0.22,0.27,0.22,0.422c0,0.117-0.044,0.219-0.132,0.305s-0.19,0.129-0.308,0.129
		s-0.247-0.041-0.39-0.123s-0.335-0.266-0.577-0.551c-0.16-0.191-0.359-0.371-0.598-0.539c0.008,0.223,0.053,0.465,0.135,0.727
		c0.141,0.461,0.211,0.773,0.211,0.938c0,0.16-0.047,0.294-0.141,0.401s-0.193,0.161-0.299,0.161c-0.145,0-0.275-0.057-0.393-0.17
		c-0.082-0.082-0.123-0.213-0.123-0.393c0-0.188,0.045-0.413,0.135-0.677s0.146-0.445,0.17-0.545s0.045-0.247,0.064-0.442
		c-0.23,0.152-0.432,0.322-0.604,0.51c-0.285,0.32-0.5,0.523-0.645,0.609c-0.102,0.063-0.207,0.094-0.316,0.094
		c-0.133,0-0.246-0.045-0.34-0.135s-0.141-0.189-0.141-0.299c0-0.098,0.04-0.2,0.12-0.308s0.2-0.196,0.36-0.267
		c0.105-0.047,0.346-0.109,0.721-0.188c0.242-0.051,0.479-0.125,0.709-0.223c-0.211-0.105-0.463-0.188-0.756-0.246
		c-0.48-0.102-0.777-0.193-0.891-0.275c-0.176-0.129-0.264-0.285-0.264-0.469c0-0.105,0.044-0.202,0.132-0.29
		s0.19-0.132,0.308-0.132c0.129,0,0.266,0.041,0.41,0.123s0.324,0.247,0.539,0.495S590.898,483.174,591.121,483.311z"/>
</g>
<g>
	<path d="M526.991,341.975h0.973l-0.762,2.666c-0.051,0.168-0.131,0.432-0.24,0.791c0.148,0.602,0.26,0.961,0.334,1.078
		c0.141,0.215,0.318,0.322,0.533,0.322c0.156,0,0.301-0.064,0.434-0.193s0.221-0.33,0.264-0.604h0.234
		c-0.055,0.563-0.173,0.951-0.354,1.166s-0.392,0.322-0.63,0.322c-0.223,0-0.425-0.094-0.606-0.281s-0.345-0.59-0.489-1.207
		c-0.172,0.34-0.34,0.598-0.504,0.773c-0.23,0.242-0.48,0.423-0.75,0.542s-0.576,0.179-0.92,0.179c-0.863,0-1.498-0.287-1.904-0.861
		s-0.609-1.229-0.609-1.963c0-0.859,0.238-1.556,0.715-2.089s1.035-0.8,1.676-0.8c0.445,0,0.838,0.136,1.178,0.407
		s0.648,0.776,0.926,1.515L526.991,341.975z M526.282,344.395c-0.211-0.805-0.482-1.366-0.814-1.685s-0.67-0.478-1.014-0.478
		c-0.383,0-0.701,0.21-0.955,0.63s-0.381,1.089-0.381,2.007c0,0.543,0.055,0.97,0.164,1.28s0.274,0.551,0.495,0.721
		s0.454,0.255,0.7,0.255c0.301,0,0.576-0.139,0.826-0.416C525.644,346.334,525.97,345.563,526.282,344.395z"/>
	<path d="M532.288,342.895h6.152v0.568h-6.152V342.895z M532.288,345.081h6.152v0.58h-6.152V345.081z"/>
	<path d="M547.147,341.975h0.973l-0.762,2.666c-0.051,0.168-0.131,0.432-0.24,0.791c0.148,0.602,0.26,0.961,0.334,1.078
		c0.141,0.215,0.318,0.322,0.533,0.322c0.156,0,0.301-0.064,0.434-0.193s0.221-0.33,0.264-0.604h0.234
		c-0.055,0.563-0.173,0.951-0.354,1.166s-0.392,0.322-0.63,0.322c-0.223,0-0.425-0.094-0.606-0.281s-0.345-0.59-0.489-1.207
		c-0.172,0.34-0.34,0.598-0.504,0.773c-0.23,0.242-0.48,0.423-0.75,0.542s-0.576,0.179-0.92,0.179c-0.863,0-1.498-0.287-1.904-0.861
		s-0.609-1.229-0.609-1.963c0-0.859,0.238-1.556,0.715-2.089s1.035-0.8,1.676-0.8c0.445,0,0.838,0.136,1.178,0.407
		s0.648,0.776,0.926,1.515L547.147,341.975z M546.438,344.395c-0.211-0.805-0.482-1.366-0.814-1.685s-0.67-0.478-1.014-0.478
		c-0.383,0-0.701,0.21-0.955,0.63s-0.381,1.089-0.381,2.007c0,0.543,0.055,0.97,0.164,1.28s0.274,0.551,0.495,0.721
		s0.454,0.255,0.7,0.255c0.301,0,0.576-0.139,0.826-0.416C545.8,346.334,546.126,345.563,546.438,344.395z"/>
	<path d="M551.179,339.034c0,0.156-0.051,0.457-0.152,0.902s-0.215,1.023-0.34,1.734h-0.357c-0.105-0.664-0.21-1.231-0.313-1.702
		s-0.155-0.782-0.155-0.935c0-0.18,0.055-0.334,0.164-0.463s0.275-0.193,0.498-0.193c0.211,0,0.373,0.064,0.486,0.193
		S551.179,338.854,551.179,339.034z"/>
</g>
</svg>
