<?xml version="1.0" encoding="utf-8"?>
<!-- Generator: Adobe Illustrator 16.0.2, SVG Export Plug-In . SVG Version: 6.00 Build 0)  -->
<!DOCTYPE svg PUBLIC "-//W3C//DTD SVG 1.1//EN" "http://www.w3.org/Graphics/SVG/1.1/DTD/svg11.dtd">
<svg version="1.1" id="Layer_1" xmlns="http://www.w3.org/2000/svg" xmlns:xlink="http://www.w3.org/1999/xlink" x="0px" y="0px"
	 width="600px" height="300px" viewBox="150 0 300 300">
<g>
	<line fill="none" x1="161.46" y1="76.513" x2="161.46" y2="268.28"/>
	<g>
		<line fill="none" stroke="#000000" stroke-width="2" stroke-miterlimit="10" x1="161.46" y1="85.501" x2="161.46" y2="268.28"/>
		<g>
			<path d="M161.46,76.513c-1.578,4.254-4.272,9.533-7.125,12.806l7.125-2.577l7.124,2.577
				C165.73,86.046,163.037,80.767,161.46,76.513z"/>
		</g>
	</g>
</g>
<g>
	<line fill="none" x1="160.711" y1="268.28" x2="419.146" y2="268.28"/>
	<g>
		<line fill="none" stroke="#000000" stroke-width="2" stroke-miterlimit="10" x1="160.711" y1="268.28" x2="419.146" y2="268.28"/>
		<g>
			<path d="M428.188,268.28c-4.254,1.578-9.533,4.271-12.805,7.125l2.576-7.125l-2.576-7.125
				C418.655,264.009,423.934,266.703,428.188,268.28z"/>
		</g>
	</g>
</g>
<path stroke="#000000" stroke-width="2" stroke-miterlimit="10" d="M161.46,126.798"/>
<path stroke="#000000" stroke-width="2" stroke-miterlimit="10" d="M161.46,132.081"/>
<path stroke="#000000" stroke-width="2" stroke-miterlimit="10" d="M309.3,268.28"/>
<path display="none" fill="none" stroke="#000000" stroke-miterlimit="10" d="M305.457,268.28c0,0,14.522-162.132-143.997-144.846"
	/>
<g display="none">
	<g display="inline">
		<path fill="none" stroke="#000000" stroke-miterlimit="10" d="M315.031,718.687c0,0-0.137-1.33-0.479-3.712"/>
		<path fill="none" stroke="#000000" stroke-miterlimit="10" stroke-dasharray="10.1079,5.054" d="M313.974,711.235
			c-4.636-28.095-26.916-125.575-111.896-116.522"/>
		<path fill="none" stroke="#000000" stroke-miterlimit="10" d="M200.193,594.929c-1.224,0.151-2.46,0.324-3.709,0.521"/>
	</g>
</g>
<line fill="none" stroke="#000000" stroke-miterlimit="10" stroke-dasharray="10,5" x1="161.46" y1="216.109" x2="353.954" y2="153.685"/>
<polyline fill="none" stroke="#000000" stroke-miterlimit="10" points="203.845,111.738 161.46,216.109 365.958,181.056 "/>
<text transform="matrix(1 0 0 1 314.5781 249.2417)" font-family="'Georgia'" font-size="8.9891">Growth of</text>
<text transform="matrix(1 0 0 1 314.5781 260.0288)" font-family="'Georgia'" font-size="8.9891">Demand</text>
<text transform="matrix(1 0 0 1 303.207 277.2085)" font-family="'Georgia'" font-size="8.9891">C</text>
<g>
	<g>
		<path d="M283.236,197.244c2.897,0,2.897-4.495,0-4.495C280.338,192.749,280.338,197.244,283.236,197.244L283.236,197.244z"/>
	</g>
</g>
<g>
	<g>
		<path d="M275.621,180.827c2.898,0,2.898-4.495,0-4.495C272.723,176.333,272.723,180.827,275.621,180.827L275.621,180.827z"/>
	</g>
</g>
<g>
	<g>
		<path d="M203.845,114.305c2.897,0,2.897-4.494,0-4.494C200.947,109.811,200.947,114.305,203.845,114.305L203.845,114.305z"/>
	</g>
</g>
<text transform="matrix(1 0 0 1 283.2363 190.8755)" font-family="'Georgia'" font-size="8.9891">X</text>
<text transform="matrix(1 0 0 1 275.6211 174.2729)" font-family="'Georgia'" font-size="8.9891">Y</text>
<text transform="matrix(1 0 0 1 203.0957 107.938)" font-family="'Georgia'" font-size="10.4872">z</text>
<text transform="matrix(1 0 0 1 152.6597 217.9038)" font-family="'Georgia'" font-size="8.9891">A</text>
<text transform="matrix(1 0 0 1 364.7129 145.9282)" font-family="'Georgia'" font-size="8.9891">Growth of</text>
<text transform="matrix(1 0 0 1 364.7129 156.7153)" font-family="'Georgia'" font-size="8.9891">Supply</text>
<text transform="matrix(1 0 0 1 375.2002 285.2583)" font-family="'Georgia'" font-size="10.4872">Growth Rate</text>
<text transform="matrix(1 0 0 1 375.2002 297.8433)" font-family="'Georgia'" font-size="10.4872">of firm</text>
<text transform="matrix(1 0 0 1 120.0098 69.522)" font-family="'Georgia'" font-size="10.4872">Profit of</text>
<text transform="matrix(1 0 0 1 120.0098 82.1069)" font-family="'Georgia'" font-size="10.4872">Firm</text>
<g>
	<path d="M330.763,195.258h0.595l-0.466,1.632c-0.031,0.103-0.08,0.265-0.146,0.484c0.09,0.368,0.159,0.588,0.204,0.659
		c0.086,0.132,0.194,0.197,0.326,0.197c0.096,0,0.185-0.039,0.266-0.118s0.135-0.202,0.161-0.369h0.144
		c-0.033,0.344-0.105,0.582-0.217,0.713c-0.11,0.132-0.24,0.197-0.386,0.197c-0.136,0-0.26-0.058-0.37-0.172
		c-0.111-0.114-0.212-0.361-0.3-0.738c-0.105,0.208-0.208,0.365-0.309,0.473c-0.141,0.148-0.294,0.259-0.459,0.332
		c-0.165,0.072-0.353,0.109-0.563,0.109c-0.528,0-0.917-0.176-1.166-0.527c-0.248-0.351-0.372-0.752-0.372-1.201
		c0-0.525,0.146-0.952,0.438-1.278s0.633-0.489,1.025-0.489c0.272,0,0.513,0.083,0.721,0.249c0.209,0.166,0.397,0.475,0.567,0.927
		L330.763,195.258z M330.328,196.74c-0.129-0.493-0.295-0.836-0.498-1.031s-0.41-0.293-0.62-0.293c-0.234,0-0.429,0.129-0.585,0.386
		c-0.155,0.257-0.232,0.667-0.232,1.229c0,0.332,0.033,0.594,0.1,0.783c0.067,0.189,0.168,0.337,0.304,0.441
		c0.135,0.104,0.277,0.156,0.428,0.156c0.185,0,0.353-0.085,0.506-0.255C329.938,197.926,330.138,197.455,330.328,196.74z"/>
	<path d="M334.004,195.822h3.766v0.348h-3.766V195.822z M334.004,197.159h3.766v0.355h-3.766V197.159z"/>
	<path d="M343.098,195.258h0.596l-0.467,1.632c-0.031,0.103-0.08,0.265-0.146,0.484c0.091,0.368,0.159,0.588,0.204,0.659
		c0.087,0.132,0.195,0.197,0.326,0.197c0.096,0,0.185-0.039,0.266-0.118c0.082-0.079,0.136-0.202,0.162-0.369h0.144
		c-0.034,0.344-0.106,0.582-0.217,0.713c-0.111,0.132-0.24,0.197-0.386,0.197c-0.137,0-0.261-0.058-0.371-0.172
		s-0.211-0.361-0.299-0.738c-0.105,0.208-0.208,0.365-0.309,0.473c-0.141,0.148-0.294,0.259-0.459,0.332
		c-0.165,0.072-0.353,0.109-0.563,0.109c-0.528,0-0.917-0.176-1.165-0.527c-0.248-0.351-0.373-0.752-0.373-1.201
		c0-0.525,0.146-0.952,0.438-1.278s0.634-0.489,1.026-0.489c0.272,0,0.513,0.083,0.721,0.249s0.396,0.475,0.566,0.927
		L343.098,195.258z M342.665,196.74c-0.13-0.493-0.296-0.836-0.499-1.031s-0.409-0.293-0.62-0.293c-0.234,0-0.429,0.129-0.585,0.386
		c-0.155,0.257-0.232,0.667-0.232,1.229c0,0.332,0.033,0.594,0.1,0.783c0.067,0.189,0.168,0.337,0.304,0.441
		c0.135,0.104,0.277,0.156,0.428,0.156c0.185,0,0.353-0.085,0.506-0.255C342.273,197.926,342.473,197.455,342.665,196.74z"/>
	<path d="M346.143,195.98c-0.01-0.166-0.043-0.329-0.101-0.492c-0.084-0.236-0.125-0.397-0.125-0.483
		c0-0.125,0.029-0.219,0.089-0.284c0.06-0.064,0.133-0.097,0.219-0.097c0.074,0,0.139,0.033,0.193,0.097
		c0.055,0.064,0.083,0.158,0.083,0.28c0,0.105-0.032,0.254-0.096,0.446c-0.063,0.191-0.102,0.369-0.116,0.532
		c0.132-0.084,0.25-0.186,0.355-0.305c0.163-0.189,0.283-0.306,0.362-0.352c0.079-0.045,0.159-0.067,0.24-0.067
		c0.076,0,0.143,0.026,0.197,0.08s0.083,0.118,0.083,0.191c0,0.089-0.04,0.168-0.118,0.237c-0.079,0.069-0.276,0.139-0.592,0.208
		c-0.185,0.04-0.338,0.088-0.459,0.141c0.124,0.063,0.275,0.113,0.455,0.146c0.289,0.053,0.479,0.118,0.568,0.197
		s0.135,0.165,0.135,0.258c0,0.072-0.027,0.134-0.081,0.187s-0.116,0.079-0.188,0.079s-0.151-0.025-0.238-0.075
		c-0.088-0.05-0.205-0.163-0.354-0.337c-0.098-0.117-0.22-0.228-0.366-0.33c0.005,0.137,0.033,0.284,0.083,0.445
		c0.086,0.282,0.129,0.473,0.129,0.573c0,0.099-0.028,0.181-0.086,0.246s-0.118,0.099-0.184,0.099c-0.088,0-0.168-0.035-0.24-0.104
		c-0.05-0.05-0.075-0.13-0.075-0.24c0-0.115,0.027-0.253,0.083-0.414c0.055-0.162,0.089-0.272,0.104-0.334s0.027-0.151,0.039-0.271
		c-0.141,0.093-0.264,0.197-0.369,0.313c-0.175,0.195-0.306,0.319-0.395,0.372c-0.063,0.039-0.127,0.058-0.193,0.058
		c-0.082,0-0.151-0.027-0.208-0.082c-0.058-0.056-0.087-0.116-0.087-0.184c0-0.06,0.024-0.122,0.073-0.188s0.123-0.12,0.221-0.163
		c0.064-0.029,0.212-0.066,0.441-0.115c0.147-0.031,0.293-0.076,0.434-0.137c-0.129-0.064-0.283-0.115-0.463-0.15
		c-0.293-0.063-0.476-0.118-0.545-0.168c-0.107-0.079-0.161-0.175-0.161-0.287c0-0.064,0.026-0.124,0.08-0.178
		s0.116-0.081,0.188-0.081c0.079,0,0.163,0.025,0.251,0.075c0.088,0.051,0.198,0.151,0.33,0.304
		C345.871,195.777,346.006,195.896,346.143,195.98z"/>
</g>
<g>
	<path d="M204.729,126.2h0.595l-0.466,1.632c-0.031,0.103-0.08,0.264-0.147,0.483c0.091,0.369,0.159,0.589,0.205,0.66
		c0.086,0.132,0.194,0.197,0.326,0.197c0.096,0,0.184-0.039,0.266-0.118c0.081-0.079,0.135-0.202,0.161-0.37h0.144
		c-0.034,0.345-0.106,0.582-0.217,0.714c-0.111,0.132-0.24,0.197-0.386,0.197c-0.137,0-0.26-0.058-0.371-0.172
		c-0.11-0.114-0.211-0.361-0.299-0.739c-0.105,0.208-0.208,0.366-0.309,0.474c-0.141,0.147-0.294,0.259-0.459,0.331
		c-0.165,0.073-0.353,0.11-0.563,0.11c-0.527,0-0.916-0.176-1.165-0.527c-0.248-0.352-0.372-0.752-0.372-1.201
		c0-0.526,0.146-0.952,0.438-1.278s0.633-0.49,1.025-0.49c0.272,0,0.513,0.084,0.721,0.249c0.208,0.166,0.396,0.476,0.567,0.928
		L204.729,126.2z M204.295,127.681c-0.129-0.493-0.295-0.836-0.498-1.031s-0.41-0.293-0.62-0.293c-0.234,0-0.43,0.129-0.585,0.386
		s-0.233,0.666-0.233,1.229c0,0.332,0.034,0.594,0.101,0.783s0.168,0.337,0.303,0.441c0.136,0.104,0.278,0.155,0.429,0.155
		c0.185,0,0.353-0.085,0.506-0.254C203.904,128.868,204.104,128.396,204.295,127.681z"/>
	<path d="M207.971,126.763h3.765v0.347h-3.765V126.763z M207.971,128.1h3.765v0.355h-3.765V128.1z"/>
	<path d="M217.064,126.2h0.596l-0.467,1.632c-0.031,0.103-0.08,0.264-0.146,0.483c0.091,0.369,0.159,0.589,0.204,0.66
		c0.087,0.132,0.194,0.197,0.326,0.197c0.096,0,0.185-0.039,0.266-0.118c0.082-0.079,0.136-0.202,0.162-0.37h0.143
		c-0.033,0.345-0.105,0.582-0.217,0.714c-0.11,0.132-0.239,0.197-0.385,0.197c-0.137,0-0.261-0.058-0.371-0.172
		c-0.111-0.114-0.211-0.361-0.3-0.739c-0.104,0.208-0.208,0.366-0.309,0.474c-0.141,0.147-0.293,0.259-0.459,0.331
		c-0.165,0.073-0.352,0.11-0.563,0.11c-0.528,0-0.917-0.176-1.165-0.527c-0.249-0.352-0.373-0.752-0.373-1.201
		c0-0.526,0.146-0.952,0.438-1.278s0.634-0.49,1.026-0.49c0.271,0,0.513,0.084,0.721,0.249c0.208,0.166,0.396,0.476,0.566,0.928
		L217.064,126.2z M216.631,127.681c-0.129-0.493-0.295-0.836-0.498-1.031s-0.41-0.293-0.621-0.293c-0.234,0-0.429,0.129-0.584,0.386
		c-0.156,0.257-0.233,0.666-0.233,1.229c0,0.332,0.033,0.594,0.101,0.783c0.066,0.189,0.167,0.337,0.303,0.441
		c0.135,0.104,0.277,0.155,0.429,0.155c0.184,0,0.353-0.085,0.505-0.254C216.24,128.868,216.439,128.396,216.631,127.681z"/>
	<path d="M219.532,124.4c0,0.096-0.031,0.279-0.093,0.552c-0.063,0.272-0.132,0.626-0.208,1.062h-0.219
		c-0.064-0.406-0.129-0.754-0.191-1.042c-0.063-0.288-0.095-0.479-0.095-0.572c0-0.109,0.033-0.204,0.1-0.283
		c0.067-0.079,0.169-0.118,0.305-0.118c0.13,0,0.229,0.039,0.298,0.118S219.532,124.29,219.532,124.4z"/>
</g>
<path fill="#FFFFFF" stroke="#000000" stroke-miterlimit="10" d="M161.46,107.28"/>
<path fill="none" stroke="#000000" stroke-miterlimit="10" d="M161.459,122.502c0,0,97.05-67.777,142.379,145.778"/>
<g>
	<g>
		<line fill="none" stroke="#000000" stroke-miterlimit="10" x1="181.836" y1="111.738" x2="184.336" y2="111.738"/>
		
			<line fill="none" stroke="#000000" stroke-miterlimit="10" stroke-dasharray="5.3867,5.3867" x1="189.723" y1="111.738" x2="230.123" y2="111.738"/>
		<line fill="none" stroke="#000000" stroke-miterlimit="10" x1="232.816" y1="111.738" x2="235.316" y2="111.738"/>
	</g>
</g>
<text transform="matrix(1 0 0 1 232.5024 108.3052)"><tspan x="0" y="0" font-family="'Georgia'" font-size="9">f </tspan><tspan x="5.098" y="0" font-family="'MyanmarText'" font-size="9">’</tspan><tspan x="7.159" y="0" font-family="'Georgia'" font-size="9">(g) = 0</tspan></text>
<text transform="matrix(1 0 0 1 152.1694 124.1646)" font-family="'Georgia'" font-size="9">B</text>
</svg>
