<?xml version="1.0" encoding="utf-8"?>
<!-- Generator: Adobe Illustrator 16.0.2, SVG Export Plug-In . SVG Version: 6.00 Build 0)  -->
<!DOCTYPE svg PUBLIC "-//W3C//DTD SVG 1.1//EN" "http://www.w3.org/Graphics/SVG/1.1/DTD/svg11.dtd">
<svg version="1.1" id="Layer_1" xmlns="http://www.w3.org/2000/svg" xmlns:xlink="http://www.w3.org/1999/xlink" x="0px" y="0px"
	 width="360.841px" height="328.426px" viewBox="0 0 360.841 328.426" enable-background="new 0 0 360.841 328.426"
	 xml:space="preserve">
<rect x="63.841" y="1" fill="#FFFFFF" stroke="#4D4D4D" stroke-width="2" stroke-miterlimit="10" width="296" height="297"/>
<text transform="matrix(1 0 0 1 66.4731 316.4736)" stroke="#4D4D4D" font-family="'Georgia'" font-size="18">O</text>
<text transform="matrix(0.583 0 0 0.583 79.8677 322.4678)" stroke="#4D4D4D" font-family="'Georgia'" font-size="18">1</text>
<text transform="matrix(1 0 0 1 148.71 316.1318)" stroke="#4D4D4D" font-family="'Georgia'" font-size="18">L</text>
<g>
	<g>
		<line fill="none" stroke="#4D4D4D" stroke-miterlimit="10" x1="164.841" y1="310.5" x2="219.841" y2="310.5"/>
		<g>
			<path fill="#4D4D4D" d="M225.841,310.5c-2.84,1.054-6.363,2.852-8.547,4.756l1.72-4.756l-1.72-4.755
				C219.478,307.649,223.001,309.447,225.841,310.5z"/>
		</g>
	</g>
</g>
<path fill="none" stroke="#4D4D4D" stroke-miterlimit="10" d="M92.131,30.553c0,0,31.737,181.579,218.579,229.605"/>
<path fill="none" stroke="#4D4D4D" stroke-miterlimit="10" d="M92.131,279.895c0,0,161.842-52.63,209.868-246.052"/>
<path fill="none" stroke="#4D4D4D" stroke-miterlimit="10" d="M125.131,12.553c0,0,31.737,181.579,218.579,229.605"/>
<g>
	<g>
		<line fill="none" stroke="#4D4D4D" stroke-miterlimit="10" x1="153.973" y1="140.42" x2="160.981" y2="131.995"/>
		<g>
			<path fill="#4D4D4D" d="M164.841,127.355c-1.006,2.857-1.877,6.716-1.81,9.612l-2.556-4.364l-4.756-1.718
				C158.58,130.425,162.215,128.866,164.841,127.355z"/>
		</g>
	</g>
</g>
<g>
	<g>
		<line fill="none" stroke="#4D4D4D" stroke-miterlimit="10" x1="255.974" y1="232.42" x2="262.981" y2="223.995"/>
		<g>
			<path fill="#4D4D4D" d="M266.841,219.355c-1.006,2.857-1.877,6.716-1.81,9.612l-2.556-4.363l-4.756-1.719
				C260.58,222.425,264.215,220.865,266.841,219.355z"/>
		</g>
	</g>
</g>
<text transform="matrix(1 0 0 1 1.3418 149.6313)" stroke="#4D4D4D" font-family="'Georgia'" font-size="18">VMP</text>
<text transform="matrix(0.583 0 0 0.583 41.0068 155.6255)" stroke="#4D4D4D" font-family="'Georgia'" font-size="18">L</text>
</svg>
