<?xml version="1.0" encoding="utf-8"?>
<!-- Generator: Adobe Illustrator 16.0.2, SVG Export Plug-In . SVG Version: 6.00 Build 0)  -->
<!DOCTYPE svg PUBLIC "-//W3C//DTD SVG 1.1//EN" "http://www.w3.org/Graphics/SVG/1.1/DTD/svg11.dtd">
<svg version="1.1" id="Layer_1" xmlns="http://www.w3.org/2000/svg" xmlns:xlink="http://www.w3.org/1999/xlink" x="0px" y="0px"
	 width="960px" height="560px" viewBox="0 0 960 560" enable-background="new 0 0 960 560" xml:space="preserve">
<g>
	<polyline fill="#FFFFFF" points="254,131 254,411 621,411 	"/>
	<g>
		<polyline fill="none" stroke="#000000" stroke-miterlimit="10" points="254.5,137 254.5,410.5 614,410.5 		"/>
		<g>
			<path d="M254.5,131c-1.054,2.84-2.852,6.363-4.756,8.547l4.756-1.72l4.755,1.72C257.351,137.363,255.553,133.84,254.5,131z"/>
		</g>
		<g>
			<polygon points="621,410.5 611.051,414.565 613.412,410.5 611.051,406.436 			"/>
		</g>
	</g>
</g>
<line fill="#FFFFFF" stroke="#C1272D" stroke-miterlimit="10" x1="254.5" y1="286.632" x2="600.5" y2="172.158"/>
<line fill="#FFFFFF" stroke="#1B1464" stroke-miterlimit="10" x1="254.5" y1="365.579" x2="517.605" y2="93.869"/>
<line fill="#FFFFFF" stroke="#1B1464" stroke-miterlimit="10" stroke-dasharray="5" x1="254.5" y1="401.158" x2="544.935" y2="110.724"/>
<line fill="#FFFFFF" stroke="#C1272D" stroke-miterlimit="10" stroke-dasharray="5" x1="254.5" y1="254.632" x2="600.5" y2="140.158"/>
<path fill="#FFFFFF" stroke="#1B1464" stroke-miterlimit="10" stroke-dasharray="15" d="M359.5,411"/>
<line fill="#FFFFFF" stroke="#808080" stroke-miterlimit="10" stroke-dasharray="15" x1="366.5" y1="249" x2="366.5" y2="411"/>
<line fill="#FFFFFF" stroke="#999999" stroke-miterlimit="10" stroke-dasharray="15" x1="467.5" y1="184" x2="467.5" y2="411"/>
<text transform="matrix(1 0 0 1 250.5 424.7891)" font-family="'MyriadPro-Regular'" font-size="12">0</text>
<text transform="matrix(1 0 0 1 362.2896 424.7891)" font-family="'MyriadPro-Regular'" font-size="12">z*</text>
<text transform="matrix(1 0 0 1 463.2896 424.7891)" font-family="'MyriadPro-Regular'" font-size="12">(z*)’</text>
<text transform="matrix(1 0 0 1 227.9473 288.6055)" font-family="'MyriadPro-Regular'" font-size="12">C</text>
<text transform="matrix(1 0 0 1 608.6055 175.4473)" font-family="'MyriadPro-Regular'" font-size="12">C</text>
<text transform="matrix(1 0 0 1 227.9473 369.2891)" font-family="'MyriadPro-Regular'" font-size="12">C*</text>
<text transform="matrix(1 0 0 1 523.0264 89.6572)" font-family="'MyriadPro-Regular'" font-size="12">C*</text>
<text transform="matrix(1 0 0 1 227.9473 404.1309)" font-family="'MyriadPro-Regular'" font-size="12">(C*)’</text>
<text transform="matrix(1 0 0 1 549.9473 106.7236)" font-family="'MyriadPro-Regular'" font-size="12">(C*)’</text>
<text transform="matrix(1 0 0 1 227.9473 259.7109)" font-family="'MyriadPro-Regular'" font-size="12">C’</text>
<text transform="matrix(1 0 0 1 608.6055 140.1577)" font-family="'MyriadPro-Regular'" font-size="12">C’</text>
<g>
	<path fill="#FFFFFF" d="M621.089,176.514c0,0,25.61-29.039,5.281-40.902"/>
	<g>
		<path fill="none" stroke="#808080" stroke-miterlimit="10" d="M621.089,176.514c0,0,20.929-23.73,9.93-37.051"/>
		<g>
			<path fill="#808080" d="M626.37,135.611c2.837,1.062,6.678,2.007,9.575,1.996l-4.412,2.471l-1.811,4.722
				C629.317,141.931,627.829,138.266,626.37,135.611z"/>
		</g>
	</g>
</g>
<g>
	<path fill="#FFFFFF" d="M531.411,70.262c0,0,38.682-1.673,35.135,21.595"/>
	<g>
		<path fill="none" stroke="#808080" stroke-miterlimit="10" d="M531.411,70.262c0,0,31.61-1.367,35.06,15.559"/>
		<g>
			<path fill="#808080" d="M566.546,91.857c-1.149-2.803-3.064-6.264-5.042-8.382l4.812,1.559l4.694-1.88
				C569.18,85.401,567.502,88.983,566.546,91.857z"/>
		</g>
	</g>
</g>
<text transform="matrix(1 0 0 1 612.2373 425.8154)" font-family="'MyriadPro-Regular'" font-size="12">1</text>
<g opacity="0.5">
	<g>
		<g>
			<g>
				<g>
					<path fill="#FCF03D" d="M610.605,411.312c0.073-0.258,0.031-0.844-0.17-0.728l-0.143,0.993L610.605,411.312z"/>
					<path fill="#FCF03D" d="M609.249,409.473c-0.236,0.481-0.51,1.327-0.356,2.239c0.234-0.954,0.292-0.557,0.544-1.692
						c0.202-0.115,0.353,0.318,0.318,0.685c0.071-0.255,0.313,0.218,0.422-0.405c-0.263-0.77-0.595-0.8-0.942-0.165
						C609.16,409.915,609.232,409.655,609.249,409.473z"/>
					<path fill="#FCF03D" d="M589.545,407.924l0.127,0.118C589.637,407.977,589.594,407.941,589.545,407.924z"/>
					<path fill="#FCF03D" d="M577.336,407.379c0.093-0.023,0.132-0.122,0.137-0.212
						C577.387,407.232,577.315,407.293,577.336,407.379z"/>
					<path fill="#FCF03D" d="M575.252,406.285c0.045,0.031,0.082,0.045,0.123,0.067C575.328,406.261,575.28,406.21,575.252,406.285z
						"/>
					<path fill="#FCF03D" d="M589.545,407.924l-0.326-0.312C589.196,407.936,589.386,407.853,589.545,407.924z"/>
					<path fill="#FCF03D" d="M606.532,411.867c0.068-0.047,0.125-0.141,0.177-0.261c-0.056,0.043-0.109,0.079-0.166,0.105
						C606.539,411.765,606.536,411.811,606.532,411.867z"/>
					<path fill="#FCF03D" d="M594.927,407.119l0.1-0.001c0.029-0.113,0.056-0.25,0.082-0.404L594.927,407.119z"/>
					<path fill="#FCF03D" d="M599.058,406.967c-0.094-0.036-0.126,0.807-0.162,1.175c0.053-0.347,0.122-0.513,0.204-0.578
						C599.101,407.403,599.089,407.212,599.058,406.967z"/>
					<path fill="#FCF03D" d="M605.606,408.45l0.116-0.116C605.692,408.37,605.642,408.404,605.606,408.45z"/>
					<path fill="#FCF03D" d="M591.971,406.937c-0.007-0.125-0.021-0.235-0.038-0.301
						C591.933,406.741,591.947,406.842,591.971,406.937z"/>
					<path fill="#FCF03D" d="M476.446,413.273c0-0.061,0-0.098,0-0.149C476.421,413.209,476.414,413.269,476.446,413.273z"/>
					<path fill="#FCF03D" d="M471.658,409.098l0.066-0.046c0.005-0.16,0.01-0.316,0.014-0.472L471.658,409.098z"/>
					<path fill="#FCF03D" d="M571.437,405.205c0.008,0.009,0.011,0.009,0.018,0.016
						C571.555,405.125,571.497,405.142,571.437,405.205z"/>
					<path fill="#FCF03D" d="M536.416,405.826c0.397,0.754-0.646,0.968-0.048,1.806
						C536.313,407.302,536.911,406.316,536.416,405.826z"/>
					<path fill="#FCF03D" d="M606.426,411.757c-0.057,0.01-0.113,0.017-0.17,0.008C606.333,411.793,606.385,411.79,606.426,411.757z
						"/>
					<path fill="#FCF03D" d="M536.368,407.632c0,0.003,0,0.007,0,0.007l0.062,0.079C536.404,407.683,536.39,407.662,536.368,407.632
						z"/>
					<path fill="#FCF03D" d="M562.647,405.712c0.018,0.148,0.053,0.261,0.089,0.369
						C562.733,405.994,562.714,405.889,562.647,405.712z"/>
					<path fill="#FCF03D" d="M569.195,406.911l-0.162-0.112C569.098,406.875,569.149,406.901,569.195,406.911z"/>
					<path fill="#FCF03D" d="M559.247,406.901c-0.088-0.064-0.118-0.181-0.238-0.067c0.011,0.043,0.022,0.073,0.037,0.103
						C559.089,406.822,559.146,406.768,559.247,406.901z"/>
					<path fill="#FCF03D" d="M555.708,406.907c0.02,0.064,0.044,0.112,0.065,0.17c0.035-0.015,0.076-0.031,0.112-0.046
						L555.708,406.907z"/>
					<path fill="#FCF03D" d="M487.2,412.868c-0.077-0.237-0.126-0.499-0.163-0.758C487.092,412.71,486.571,412.924,487.2,412.868z"
						/>
					<path fill="#FCF03D" d="M606.53,411.394c-0.021,0.213-0.051,0.318-0.104,0.363c0.04-0.01,0.079-0.026,0.117-0.045
						C606.554,411.586,606.556,411.468,606.53,411.394z"/>
					<path fill="#FCF03D" d="M559.104,413.555l-0.563-0.125C558.698,413.512,558.902,413.555,559.104,413.555z"/>
					<path fill="#FCF03D" d="M512.588,412.748l-0.129,0.101C512.509,412.868,512.555,412.844,512.588,412.748z"/>
					<path fill="#FCF03D" d="M556.873,413.555c-0.101-0.298-0.207-0.471-0.317-0.583c-0.022,0.066-0.05,0.12-0.065,0.217
						L556.873,413.555z"/>
					<path fill="#FCF03D" d="M487.035,412.102c0.001,0.005,0.002,0.009,0.002,0.009S487.036,412.106,487.035,412.102z"/>
					<path fill="#FCF03D" d="M483.332,414.104c0.536,0.024,0.252-1.085,0.365-1.721c0.64-0.314,0.296,0.815,0.514,1.383
						c0.399-0.294,0.706-1.311,1.004-1.268c0.021,0.183,0.08,0.249,0.012,0.478c0.422-0.881,1.253-0.043,1.745-1.15
						c0.036,0.099,0.055,0.191,0.063,0.275c-0.079-0.555-0.092-1.119-0.075-1.521c0.24-0.02,0.445-0.7,0.536,0.023
						c-0.147-0.021-0.159,0.271-0.229,0.498l0.252-0.314c0.227,1.041-0.344,0.359-0.344,1.13c0.491-0.338,1.063-1.2,1.438-0.906
						c0.079,1.02-0.879,0.343-0.377,1.249l-0.582-0.39c0.444,1.607-0.354-0.111,0.055,1.607c0.766,0.296,0.856-0.519,1.62-0.222
						c0.172-0.566-0.057-0.837,0.115-1.404c1.086-1.017,0.854,2.563,1.652,1.205c0.207-0.679,0.287-1.968,0.855-1.286l-0.193,1.152
						c0.741,0.114,0.423-1.656,1.199-0.881c-0.138,0.452-0.583,0.381-0.471,0.519c0.503,0.909,0.355-0.653,0.742-0.653l0.08,1.02
						c0.789-0.16,1.659-0.896,2.533-1.083c-0.049,0.304-0.198,0.623,0.006,0.935c1.103-0.51,2.354,0.125,3.417,0.729l0.406-0.88
						c0.095,0.009,0.175,0.397,0.073,0.568c0.414,0.334,0.021-0.56,0.221-0.905c0.235-0.062,0.312,0.507,0.162,0.771
						c0.73-0.746,2.083-1.608,2.854-0.665l-0.15,0.262c0.6,0.357,0.677-1.805,1.233-0.983l-0.106,0.156
						c1.302,0.381,2.741-0.425,3.734,0.904c0.189-1.269,1.289,0.565,1.373-1.203c0.743,0.876,0.53,1.192,1.577,1.781
						c0.28,0.082,0.417-1.104,0.763-1.289l0.009,0.925l0.47-0.97l0.25,1.105l0.324-0.237c-0.13-0.055-0.275-0.415-0.255-0.681
						c0.506-0.419,1.234,0.644,1.247,1.117l1.198-0.782c-0.026,0.372-0.228,0.5-0.386,0.737c0.64-0.943,0.116,0.974,0.702,0.109
						c-0.078-0.211,0.043-0.551,0.056-0.738c0.293,0.56,0.958,0.564,1.45,0.328l-0.095,0.638c0.889,0.162,1.874-0.306,2.872-0.294
						c-0.358-0.297-0.275-1.401,0.017-1.508l0.117,0.977c0.189-0.604-0.306-0.368,0.082-1.107c0.373,0.112,0.251,1.11,0.037,1.43
						l0.453-0.34c0.026,0.292-0.08,0.445-0.107,0.817c0.186-0.606,0.782,0.981,1.05-0.073l0.026,0.291
						c0.997,0.008,1.449-0.328,2.262-0.377c0.016-0.844,0.334-0.656,0.575-1.338c0.598,0.27,1.26,0.932,1.979,0.86
						c0.506-0.42,0.147-0.714,0.375-1.216c0.037,0.769,0.756,0.696,0.383,1.249c0.863-0.126,1.104-0.154,2.195-0.778
						c-0.119-0.314-0.252-0.451-0.183-0.713c0.197-0.126,0.45,0.322,0.422,0.691l-0.052,0.079c1.226-1.152,2.828,2.24,3.805,0.639
						l-0.055,0.079l1.012-0.835c0.466,0.133-0.279,0.577,0.065,1.054c1.092-1.282,1.726,0.186,2.624-0.669
						c0.696,2.267,2.47-0.159,3.409,1.288l-0.054-0.534c0.242-0.523,0.293,0.306,0.473,0.428c-0.026-0.415-0.264-0.479-0.113-0.77
						c2.057-0.645,4.245,0.779,6.354,1.262c0.771,0.143,0.438-2.762,1.409-1.487l-0.275,0.99c1.556-1.188,3.182,0.041,4.706-0.967
						c-0.091,0.229-0.094,0.525-0.242,0.521c0.321,0.721,1.189,0.035,1.195-0.552c0.237,0.066,0.055,0.531,0.201,0.83
						c0.322,0.425,0.811-0.92,0.981-0.203c0.029,0.116-0.091,0.233-0.149,0.289c0.21-0.349,0.979,0.089,0.778-0.742
						c0.572,0.396,1.094-0.369,1.55,0.123c0.298-0.929,0.979,0.446,1.073-0.867c-0.041,1.357,1.003,1.095,1.364,0.457
						c-0.121,0.41,0.314,0.425,0.173,0.993c0.413-0.02,0.791-0.271,0.719-0.969c0.76,1.624,1.528-1.307,1.956,0.774
						c1.226-0.729,2.36-1.224,3.463-1.54c-0.04,1.353-1.219,0.135-1.172,1.555c1.046-0.558,1.649-1.719,2.687-1.393
						c0.269,0.186-0.152,0.588-0.243,0.818c1.045-0.558,2.021,0.123,2.95-0.614c-0.002,0.126-0.103,0.264-0.197,0.367
						c0.184-0.044,0.426,0.198,0.405-0.417l-0.179,0.167c-0.293-0.893,0.728-1.864,0.761-2.336c-0.312,1.763,0.918,0.443,0.424,2.67
						c0.121-0.115,0.272-0.407,0.244-0.817c0.18,0.119,0.236,0.359,0.055,0.827c0.656-0.335,0.423-0.988,1.018-0.975
						c-0.002,0.298-0.122,0.413-0.184,0.763c0.302-0.58,0.604-1.161,1.106-0.909c-0.03,0.18,0.028,0.413-0.122,0.408
						c0.863-0.09,1.472-1.546,2.418-0.985c-0.279,1.294,0.322,0.426,0.372,1.546l0.51-0.334l-0.204-0.543
						c0.445,0.019,0.84-0.797,1.224-0.431l-0.332,0.462l0.836-0.213l-0.473-0.425c0.451-0.577-0.049-1.417,0.545-1.104
						c-0.121,0.114,0.446,0.014,0.679,0.674c0,0-0.002,0-0.002,0.003c0.221-0.357,0.448-0.732,0.777-0.454
						c0.086,0.357-0.068,1.238-0.013,1.477c0.218-0.937,1.045-0.26,1.32-1.257c-0.092,0.234-0.097,0.821-0.066,0.942l0.183-0.761
						c0.206,0.243,0.236,0.36,0.203,0.829c0.621,0.14-0.197-1.421,0.54-0.809c-0.058,0.062-0.03,0.176-0.15,0.291
						c0.74,0.319,1.431-0.482,2.111-0.108c0.201,1.127-0.595,0.276-0.364,1.227c0.981-0.204,2.032-1.351,2.981-1.085l-0.177-0.125
						c0.132-1.591,0.707,0.787,1.188,0.037c-0.117,0.117-0.154,0.883-0.122,0.705c0.65,0.256,1.329-0.391,2.315-0.892l-0.122,0.409
						c0.383,0.364,1.009,0.21,1.423,0.396c0.123-0.408,0.36-0.343,0.216-0.937c1.277,2.328,2.436-1.248,3.568,0.691
						c-0.136,0.005-0.323,0.357-0.215,0.359l0.965-0.377c-0.076-0.693-0.127-0.42-0.329-0.959c0.122-0.411,0.395-0.729,0.633-0.729
						c-0.434,0.459,0.004,1.113,0.191,1.5c-0.031-0.213,0.033-0.447,0.017-0.663c0.505,1.233,0.085-1.395,0.773-0.564l-0.037,0.364
						c0.258-0.186,0.495-0.667,0.772-0.563c0.115,0.803-0.273,0.375-0.291,1.034c0.39-0.046,0.77-1.519,1.122-0.72
						c-0.165,0.224-0.403,0.228-0.569,0.449c0.385,0.941,0.429,0.702,0.715,0.852l-0.028-0.021l0.66,0.427l-0.168-0.256
						c0.488-2.09,0.994-0.382,1.651-1.751c-0.639,1.296-0.105,0.75-0.154,1.658c0.168,0.253,0.423,0.535,0.351,0.791
						c0.311-0.733,0.519,0.578,0.957-0.494c0.02,0.292,0.333,0.028,0.263,0.763c0.404-0.229-0.096-0.509-0.062-0.876
						c0.623-0.999,1.464,1.212,2.36-0.159c0.772-0.564,0.915-1.551,1.632-2.042c0.242,0.468-0.198,1.065-0.198,1.065
						c0.391,0.431,0.685,0.352,1.052,0.016c-0.074,0.256,0.003,0.472,0.115,0.8c0.295-0.076,0.197-1.064,0.586-0.633
						c-0.066,0.326-0.152,0.848-0.295,1.175c0.349-0.27,0.691-0.815,1.052-1.079c0.096,0.51-0.217,0.773-0.344,1.106
						c0.404-0.229,1.049-0.463,1.174-1.27l-0.26-0.287c0.147-0.039,0.075,0.692-0.033,0.84c-0.347,0.633-0.5-0.28-0.52-0.573
						l0.256-0.188c-0.263-1.717-1.03,0.275-1.546,0.176l0.215-1.248l-0.529,1.035c-0.112-0.325-0.189-1.021,0.065-1.208
						c-0.37-0.617-0.328,0.443-0.646-0.244c-0.035-0.107-0.02-0.167,0.013-0.217l-0.361,0.372c0.07-0.263-0.061-0.881,0.162-0.701
						c-0.649-0.72-1.047,0.937-1.291-0.01l0.054-0.076c-0.9,0.422-0.087,0.916-0.763,1.991l-0.454-2.26l-0.089,0.916
						c-0.093-0.033-0.276-0.103-0.243-0.469c-0.346,0.627,0.06,0.398-0.142,0.99c-0.447-0.834-1.232,0.391-1.334-1.068
						c-0.16,0.696,0.428,0.537-0.05,1.021c-0.136-1.57-0.552,0.269-0.96-0.451c0.125-0.811,0.513-0.381,0.104-1.104
						c-0.246,1.369-0.796-0.3-1.14-0.038c-0.017,1.09-0.75,0.455-1.328,0.818c0.037-0.367-1.088-0.599-1.626-0.993l0.016-0.183
						c-0.104,1.102-0.659,0.894-1.063,1.121c0.016-0.659,0.088-0.919,0.308-1.215l-0.38,0.006c-0.09,0.353-0.208,0.539-0.455,0.665
						l0.096-0.823c-0.506,0.045-1.018,0.97-1.669,0.419c-0.036,0.769,0.518,2.14-0.17,2.652c-0.025-0.415-0.051-1.126,0.129-1.296
						c-0.059,0.055-0.21,0.346-0.329,0.168l0.275-0.698c-0.297-0.308-0.155,0.583-0.393,0.519c0.005-0.593-0.175-0.423-0.141-0.894
						c0.061-0.057,0.206,0.245,0.297,0.013c-0.267-0.106-0.59-0.457-0.696-0.906c0.023,0.337,0,0.798-0.195,0.875
						c-0.506,0.043-0.174-0.713-0.469-1.018c-0.122,0.412-0.444-0.015-0.453,0.871c-0.147-0.005-0.175-0.418-0.232-0.657
						c-0.262,0.391-1.222,0.111-0.927,1.054l0.066,0.062c-0.012,0.019-0.027,0.02-0.042,0.039h0.002h-0.002
						c-0.857,0.881-1.782-0.502-2.633-0.122l0.002-0.297c-0.509,0.339-1.131,0.2-1.494,0.837c-0.149,0-0.354-0.54-0.29-0.894
						c-0.388,0.223-0.432,0.556-0.992,0.067c0.391-0.518-0.135-0.458,0.399-0.379c-0.504-0.256-0.618-0.73-1.16,0.08
						c0.185-0.759-0.38-0.956-0.619-0.729l0.354,0.543c-0.271,0.11-0.506,0.043-0.745-0.021l0.129-0.998
						c-1.032-1.214-1.861,2.066-2.647,0.034c-0.273,0.697,0.561,0.491,0.316,1.308c-0.475-0.135-0.97-1.567-1.118-1.57
						c-0.65-0.553-0.606,1.458-1.288,1.08c0.088,0.355,0.17,1.307-0.339,1.642c-0.476-0.132-0.584-1.493-0.284-1.779
						c0.114-0.029,0.169,0.084,0.164,0.204c0.153-0.129,0.355-0.282,0.167-0.668l-0.062,0.355c-0.236-0.363-0.89-0.325-0.736-0.908
						c-0.359,0.339-0.153,0.583,0.112,0.768c-0.609-0.516-0.952-0.015-1.579-0.361c0.1,0.196,0.191,0.614,0.092,0.61
						c-0.92-0.44-0.405,0.676-1.028,0.832c-0.354-0.543,0.127-1.296-0.501-0.841c-0.384-0.368-0.081-0.945,0.071-1.235
						c-0.572,0.687-1.068-0.451-1.396-0.577l0.302-0.287c-0.181,0.171-0.328,0.166-0.479,0.164l0.172,0.712
						c-0.177-0.124-0.326-0.127-0.323-0.423c-0.182,0.466,0.14,1.184-0.222,1.822c-0.235-0.362-0.718,0.388-0.8-0.557
						c0.742,0.32-0.082-0.949,0.546-1.102c-0.121,0.112-0.269,0.108-0.446-0.018c-0.026-0.105,0.025-0.195,0.073-0.249
						c-0.709-0.845-0.326,1.068-1.062,1.046c0.094-0.532-0.17-1.01-0.29-0.896c0.296,0.012,0.142,0.889-0.13,1.297
						c-0.472-0.415-0.513,0.309-0.76,0.26l0.282,0.195c-0.096,0.532-0.332,0.463-0.66,0.63c-0.028-0.414,0.298-0.285,0.181-0.468
						c-0.364,0.937-0.824-0.969-1.333-0.338c-0.236-0.36-0.023-1.001-0.23-1.245c-0.57,0.69-0.617-0.729-1.217-0.159
						c0.173,0.716,0.203,0.54-0.22,1.238l0.986-0.504l-0.633,1.041c0.298,0.01,0.628-0.45,0.806-0.328
						c-0.301,0.584-0.271,0.405-0.128,1c-0.407-1.074-0.807,0.625-1.277-0.1l0.015-1.772c-0.707-0.79-1.257,0.909-2.175,0.463
						l0.295,0.309c-0.123,0.704-0.567,0.099-0.865,0.384c0.028-0.593-0.158-0.808-0.285-1.176c0.016,0.439-0.672-0.041-0.755,1.143
						l-0.41-0.78c-0.742-0.319-0.847,1.688-1.56,1.486c0.215-0.645-0.109-1.063,0.368-1.524c-0.237-0.006-0.452-0.114-0.455,0.296
						c-0.14-0.371-0.66,0.798-0.879,0.235c-0.101,0.261-0.134,0.881-0.4,0.832c-0.029-0.12,0.001-0.293,0.001-0.293
						c-0.001,0.293-0.419,0.398-0.186,1.054c-0.732-1.848-2.049,0.135-2.688-1.452c-0.52,0.198-1.145,0.389-1.616,0.432
						c0.03-0.177,0.001-0.295,0.091-0.233c-0.65-0.551-0.4,1.7-1.141,1.085c-0.378-0.957,0.393-0.518,0.157-0.88
						c-0.103-1.949-0.894,0.266-1.392-0.872l0.121-0.114c-0.381-0.662-0.93,0.738-1.552,0.599c0,0,0.03-0.172,0.004-0.294
						c-0.425,0.993-1.23,1.322-1.829,1.599c0.187-0.763,0.271-0.403,0.158-1.179c-0.269,0.11,0.078,1.244-0.457,1.461
						c-0.174-0.417-0.561-0.782-0.611-1.608l0.505-0.045c-0.259-1.07-0.653,0.036-0.92-0.149l0.034-0.468
						c-0.774,0.152-0.785,1.33-1.617,1.246l0.086,0.354c-0.454,1.167-0.381-0.657-0.834,0.211l-0.138-1.185
						c-0.3,0.286-1.051,1.146-1.589,1.368c0.305-0.879,0.935-1.327,1.324-1.849c-0.298-0.009-1.011,0.087-1.166,0.671
						c0.12-0.114,0.271-0.404,0.39-0.222c-0.365,0.931-0.845,1.389-1.438,1.368c0.104-2.296-1.545-0.578-1.975-2.361
						c-1.048,0.849-2.08-0.362-3.301-0.227c0.433,1.787-0.356,0.051-0.282,1.885c-0.284,0.118-0.393,0.088-0.418-0.031l-0.862-1.096
						c-0.204-0.534,0.271-0.404,0.245-0.816c-0.623-0.141-0.262-0.777-0.674-1.265c0.084,0.656-0.217,0.939-0.571,0.689l0.5,0.846
						c-0.871,0.977-0.753-1.539-1.63-0.572l0.277-0.577c-0.45,0.34-1.661-0.012-2.103,1.462c-0.079-0.212-0.185-0.714,0.014-0.847
						c-1.076-0.221-2.396,1.568-3.231,0.661l0.082-0.448c-0.201,0.13-0.35,0.843-0.601,0.391c0.013-0.185,0.08-0.447-0.013-0.474
						c-0.106,0.154-0.533,0.786-0.799,0.524l0.228-0.505c-1.05-0.587-1.611,1.229-2.491,1.537c0.002-1.32-0.823-1.75-1.235-1.964
						l0.015-0.187c-1.223-0.163-2.076,1.094-3.208,1.612c-0.702-1.433-2.38-0.6-3.509-1.403c0.173,0.24-0.027,1.028-0.229,1.161
						c-0.265-0.268-0.732,0.916-0.69-0.295l0.095,0.023c-0.2-1.188-0.744-0.872-1.17-0.904l-0.069,1.584
						c-1.112-2.305-2.914,0.847-3.521-1.218c-0.268,0.396-0.601,0.392-0.866,0.788l0.015-0.85c-0.744-0.217-1.115-0.323-2.034-0.121
						l0.188-0.607c-0.519-0.055-0.654,2.449-1.133,2.499l-0.144-1.268c-0.905,0.02-1.82-1.094-2.714,0.057
						c0.015-0.187,0.041-0.553,0.188-0.604c-0.426-0.033-1.646-0.858-1.492,0.882c-0.011-1.134-0.933-0.111-1.421,0.389l0.075-0.836
						c-0.412,1.068-0.425,1.36-1.001,1.656c-0.136-0.109-0.119-0.67,0.062-0.456c-0.454-0.438-0.354,0.792-0.905,0.347l0.206-0.534
						c-0.468-0.064-0.431,0.223-0.688,0.845c-0.294,0.336-0.888-0.211-0.956-0.967c-0.063,0.461-0.319,1.077-0.595,0.859
						c-0.038-0.286,0.063-0.463,0.113-0.55c-0.782-0.568-1.163,0.973-1.701,0.151c-0.011-0.277-0.046-0.415-0.091-0.499
						c0.621,0.021,1.122,0.066,1.075,0.127c0-0.771-0.502-0.906-0.103-1.971c-0.403,0.581-1.092,1.844-1.581,1.481
						c-0.023-0.075-0.047-0.148-0.064-0.267l0.05-0.087c-0.112-0.076-0.214-0.005-0.309,0.125c-0.156-0.127-0.256-0.221-0.405-0.232
						c-0.058-0.637-0.575-0.344-0.826-0.374c0.021,0.843-0.307,0.707,0,1.404c-0.039-0.062,0.048-0.102,0.214-0.137
						c0.038-0.024,0.082-0.037,0.106-0.087c-0.005,0.022-0.011,0.049-0.017,0.074c0.164-0.024,0.379-0.044,0.622-0.057
						c-0.198,0.429-0.404,0.789-0.682,0.32c-0.128,0.542-0.27,1.1-0.349,1.361c-0.343-1.177-1.003-1.813-1.095-2.537
						c-0.765,0.473-1.8,0.312-2.28,1.896c-0.218,0.203-0.25-0.454-0.331-0.703c0.125-0.159,0.274-0.135,0.342-0.363
						c-0.434,0.407-1.287,0.158-1.391,1.266c-0.547-0.5,0.308-1.02-0.444-0.838l0.102-0.339c-1.48-1.769-2.406,2.825-4.047,0.555
						c0.113,0.139,0.17,0.203,0.193,0.389c-1.87-1.001-3.854,0.939-5.701-0.648c-0.524-0.319-0.581,0.387-0.901,0.925l-0.114-0.906
						l-0.548,1.045c-0.776,0.766-1.344-2.223-2.327-0.775l0.127,0.61c-0.353-0.115-1.119,0.359-1.06-0.342
						c-0.036,0.111-0.116,0.635-0.254,0.316l-0.011-0.475l-0.867,0.813c-0.672-0.343,0.105-1.882-0.876-1.974
						c-0.365,0.183-1.039,1.38-0.902,1.697c0.147,0.023,0.376,0.296,0.387,0.771l-0.333,0.246c-0.061,1.397-0.317,2.827,0.502,3.803
						l0.57-0.854l0.184,0.678l-0.48,0.042c0.272,0.638,0.445,0.073,0.639-0.313c0.045,0.36,0.125,0.612,0.239,0.746l0.56-1.333
						c0.068,0.546-0.251,1.084,0.125,1.386c0.262-0.62-0.252-1.226,0.183-1.632c0.273,0.634,0.193,1.151,0.514,0.609
						c0.045,0.359-0.023,0.589-0.15,0.747c0.285-0.432,0.754-0.183,0.902-0.926c0.284,0.784,0.962-0.203,0.935,1.119
						c0.089-0.316,0.502-1.038,0.764-1.093c-0.479,1.582,0.98,0.093,0.854,1.79c0.354-1.424,1.279-0.633,1.907-1.422
						c-0.035,0.112-0.104,0.342-0.159,0.27c0.353,0.118,0.456,0.547,0.683,0.815c0.045-1.175,0.595-1.444,0.892-2.169
						c0.433,1.134-0.263,1.381-0.127,2.47c-0.022-0.953,0.752-0.951,0.604-1.745c0.331,0.702,0.285,0.341,0.456,1.315
						c0.058-1.47,0.308-0.249,0.582-1.151c0.479,0.724,0.123,1.377,0.649,0.93C483.8,413.584,483.332,414.104,483.332,414.104z
						 M495.845,411.563c0,0.009,0,0.015,0,0.018c-0.107,0.02-0.199,0.036-0.258,0.047
						C495.641,411.614,495.715,411.596,495.845,411.563z M496.896,411.55c-0.128-0.033-0.287-0.039-0.456-0.033
						c-0.037-0.291,0.003-0.591,0.109-0.575C496.492,411.136,496.74,411.304,496.896,411.55z M494.673,405.706
						c0.166-0.12,0.222,0.046,0.244,0.219c-0.078,0.015-0.17,0.043-0.291,0.101c-0.006,0.03-0.013,0.07-0.02,0.104
						C494.623,405.968,494.641,405.817,494.673,405.706z"/>
					<path fill="#FCF03D" d="M494.373,406.812c-0.023,0.02-0.037,0.055-0.068,0.062c0.034,0.075,0.066,0.138,0.099,0.189
						c0.021-0.09,0.041-0.18,0.06-0.264C494.433,406.803,494.401,406.808,494.373,406.812z"/>
					<path fill="#FCF03D" d="M589.694,408.062l-0.022-0.02c0.019,0.033,0.035,0.066,0.047,0.12
						C589.703,408.121,589.703,408.095,589.694,408.062z"/>
					<polygon fill="#FCF03D" points="511.417,413.164 511.415,412.95 511.323,413.137 					"/>
					<path fill="#FCF03D" d="M595.485,410.956c0.011,0.073,0.033,0.15,0.076,0.215C595.559,411.116,595.525,411.04,595.485,410.956z
						"/>
					<path fill="#FCF03D" d="M597.987,411.145l0.354,0.301C598.188,411.274,598.076,411.193,597.987,411.145z"/>
					<path fill="#FCF03D" d="M599.91,411.563c0.024-0.147,0.032-0.259,0.038-0.361l-0.004-0.005L599.91,411.563z"/>
					<path fill="#FCF03D" d="M569.328,412.554c-0.026,0.005-0.052,0.017-0.074,0.038
						C569.079,412.755,569.198,412.69,569.328,412.554z"/>
					<path fill="#FCF03D" d="M578.429,410.584c-0.097,0.152-0.191,0.303-0.292,0.398
						C578.299,411.047,578.424,411.063,578.429,410.584z"/>
					<path fill="#FCF03D" d="M559.165,413.569c0.001-0.006,0.001-0.007,0.001-0.015c-0.021,0.003-0.041,0-0.063,0L559.165,413.569z"
						/>
					<path fill="#FCF03D" d="M577.713,410.968c0.162,0.168,0.298,0.132,0.424,0.015
						C578.004,410.926,577.848,410.839,577.713,410.968z"/>
					<path fill="#FCF03D" d="M608.247,411.946l0.093,0.034c-0.001-0.056,0.004-0.102,0.011-0.136L608.247,411.946z"/>
					<path fill="#FCF03D" d="M608.351,411.845l0.104-0.1C608.406,411.745,608.366,411.752,608.351,411.845z"/>
					<path fill="#FCF03D" d="M608.671,411.533l-0.217,0.212C608.529,411.747,608.621,411.773,608.671,411.533z"/>
					<path fill="#FCF03D" d="M605.701,411.556l-0.029,0.306C605.688,411.799,605.698,411.699,605.701,411.556z"/>
					<path fill="#FCF03D" d="M604.928,411.645c0.184,0.069,0.463,0.652,0.72,0.46l0.024-0.243
						C605.551,412.316,605.103,411.129,604.928,411.645z"/>
					<path fill="#FCF03D" d="M601.697,407.864l0.648,0.244c-0.113-0.325-0.262-0.764,0.032-0.842
						C601.561,406.295,602.547,407.995,601.697,407.864z"/>
					<path fill="#FCF03D" d="M599.688,407.392c0.348-0.151-0.005-0.473,0.014-0.657C599.48,407.031,599.427,407.106,599.688,407.392
						z"/>
					<path fill="#FCF03D" d="M585.158,407.389l0.034-0.768C584.924,406.731,585.19,406.919,585.158,407.389z"/>
					<polygon fill="#FCF03D" points="582.381,411.354 582.642,411.832 582.766,411.129 					"/>
					<polygon fill="#FCF03D" points="580.739,405.889 580.857,405.779 580.409,406.058 					"/>
					<path fill="#FCF03D" d="M556.338,406.161l0.081,0.945C556.601,406.937,556.639,405.875,556.338,406.161z"/>
					<path fill="#FCF03D" d="M545.804,407.124c-0.115-0.473-0.411-0.776-0.594-0.313
						C545.447,406.877,545.683,407.245,545.804,407.124z"/>
					<polygon fill="#FCF03D" points="514.211,405.584 514.422,405.268 514.023,405.531 					"/>
				</g>
			</g>
		</g>
	</g>
</g>
<text transform="matrix(1 0 0 1 480 401.1582)" font-family="'MyriadPro-Regular'" font-size="12">Home Country Specialisation (after capital inflow)</text>
</svg>
